<svg width="210" height="213" viewBox="0 0 210 213" fill="none" xmlns="http://www.w3.org/2000/svg">
<path d="M113.396 18.0157C110.644 17.7969 108.235 19.851 108.016 22.6037C107.797 25.3565 109.851 27.7654 112.604 27.9843L113.396 18.0157ZM115.652 205.935L115.396 200.941C115.22 200.95 115.046 200.968 114.872 200.996L115.652 205.935ZM86.5899 14.4518L84.6202 9.85617L84.6202 9.85617L86.5899 14.4518ZM138.025 11.404C140.733 11.9425 143.365 10.1835 143.904 7.47511C144.443 4.76671 142.684 2.13454 139.975 1.59599L138.025 11.404ZM112.604 27.9843C145.828 30.6257 168.185 42.6353 181.829 58.682C195.505 74.768 200.865 95.4249 199.116 116.165C195.595 157.906 163.559 198.469 115.396 200.941L115.908 210.928C170.039 208.149 205.227 162.694 209.081 117.006C211.019 94.0311 205.104 70.6201 189.447 52.2046C173.757 33.7497 148.721 20.8241 113.396 18.0157L112.604 27.9843ZM114.872 200.996C70.9126 207.937 28.2012 177.903 14.5008 138.241C7.71511 118.597 8.12023 96.7368 19.033 75.942C29.971 55.0989 51.734 34.8312 88.5596 19.0475L84.6202 9.85617C46.2983 26.2812 22.4584 47.8945 10.1782 71.2951C-2.12736 94.7441 -2.55605 119.49 5.04882 141.506C20.1295 185.164 67.0966 218.663 116.432 210.873L114.872 200.996ZM88.5596 19.0475C93.9935 16.7185 103.508 14.1868 113.353 12.5558C123.32 10.9045 132.677 10.3405 138.025 11.404L139.975 1.59599C132.726 0.154518 121.83 1.01511 111.718 2.69027C101.484 4.3858 91.0917 7.08244 84.6202 9.85617L88.5596 19.0475Z" fill="#3D3B39"/>
</svg>
