<svg width="90" height="90" viewBox="0 0 91 96" fill="none" xmlns="http://www.w3.org/2000/svg">
<mask id="path-1-inside-1" fill="white">
<path d="M71.9142 3.48116C63.1138 12.7706 54.298 22.0617 45.5068 31.3528C36.7002 22.0666 27.8936 12.7755 19.084 3.48116C8.89383 -7.26284 -6.89516 9.40003 3.29034 20.144C12.0938 29.4254 20.905 38.7214 29.6978 47.9995C20.8989 57.2857 12.0892 66.58 3.29034 75.8711C-6.89516 86.6119 8.90153 103.27 19.084 92.5324C27.8875 83.2413 36.694 73.9518 45.5068 64.6607C54.3134 73.9518 63.1138 83.238 71.9142 92.5324C82.1013 103.272 97.8918 86.6119 87.714 75.8728C78.9059 66.5817 70.0993 57.2954 61.2912 48.0011C70.1008 38.7116 78.9074 29.4205 87.714 20.1294C97.8918 9.38866 82.1013 -7.27422 71.9142 3.46978"/>
</mask>
<path d="M71.9142 3.48116C63.1138 12.7706 54.298 22.0617 45.5068 31.3528C36.7002 22.0666 27.8936 12.7755 19.084 3.48116C8.89383 -7.26284 -6.89516 9.40003 3.29034 20.144C12.0938 29.4254 20.905 38.7214 29.6978 47.9995C20.8989 57.2857 12.0892 66.58 3.29034 75.8711C-6.89516 86.6119 8.90153 103.27 19.084 92.5324C27.8875 83.2413 36.694 73.9518 45.5068 64.6607C54.3134 73.9518 63.1138 83.238 71.9142 92.5324C82.1013 103.272 97.8918 86.6119 87.714 75.8728C78.9059 66.5817 70.0993 57.2954 61.2912 48.0011C70.1008 38.7116 78.9074 29.4205 87.714 20.1294C97.8918 9.38866 82.1013 -7.27422 71.9142 3.46978" fill="#EA2A2A"/>
<path d="M45.5068 31.3528L44.0556 32.7291L45.5084 34.2611L46.9595 32.7274L45.5068 31.3528ZM19.084 3.48116L20.5355 2.1053L20.5351 2.10485L19.084 3.48116ZM3.29034 20.144L1.8389 21.52L1.83927 21.5204L3.29034 20.144ZM29.6978 47.9995L31.1496 49.3751L32.4531 47.9993L31.1494 46.6237L29.6978 47.9995ZM3.29034 75.8711L4.74157 77.2474L4.7425 77.2464L3.29034 75.8711ZM19.084 92.5324L20.5352 93.9086L20.5357 93.908L19.084 92.5324ZM45.5068 64.6607L46.9583 63.2849L45.5073 61.754L44.0557 63.2844L45.5068 64.6607ZM71.9142 92.5324L70.4619 93.9075L70.4632 93.9088L71.9142 92.5324ZM87.714 75.8728L89.1656 74.497L89.1654 74.4968L87.714 75.8728ZM61.2912 48.0011L59.84 46.6249L58.5353 48.0006L59.8395 49.3768L61.2912 48.0011ZM87.714 20.1294L89.1655 21.5053L89.1657 21.5051L87.714 20.1294ZM70.4623 2.10568C61.6635 11.3935 52.8456 20.6867 44.054 29.9783L46.9595 32.7274C55.7503 23.4367 64.5641 14.1478 73.3661 4.85664L70.4623 2.10568ZM46.958 29.9766C38.1516 20.6906 29.3452 11.3997 20.5355 2.1053L17.6324 4.85702C26.442 14.1513 35.2488 23.4426 44.0556 32.7291L46.958 29.9766ZM20.5351 2.10485C17.5971 -0.992842 14.1184 -2.22238 10.7263 -1.95246C7.39808 -1.68764 4.34756 0.0015703 2.09462 2.37886C-2.39771 7.11913 -4.15837 15.1939 1.8389 21.52L4.74177 18.7681C0.55355 14.3502 1.59463 8.7215 4.99796 5.13033C6.69284 3.3419 8.86363 2.20839 11.0435 2.03493C13.1596 1.86656 15.4758 2.58316 17.6328 4.85748L20.5351 2.10485ZM1.83927 21.5204C10.6425 30.8014 19.4534 40.0972 28.2461 49.3752L31.1494 46.6237C22.3567 37.3456 13.5452 28.0493 4.74141 18.7677L1.83927 21.5204ZM28.246 46.6239C19.4474 55.9097 10.6373 65.2046 1.83818 74.4959L4.7425 77.2464C13.5411 67.9555 22.3504 58.6616 31.1496 49.3751L28.246 46.6239ZM1.83911 74.4949C-4.15899 80.82 -2.39525 88.8932 2.09781 93.6322C4.35114 96.0088 7.40167 97.6977 10.7292 97.9631C14.1207 98.2335 17.5988 97.0051 20.5352 93.9086L17.6327 91.1562C15.4779 93.4284 13.163 94.1444 11.0471 93.9757C8.86725 93.8019 6.696 92.6683 5.00054 90.8801C1.59603 87.2892 0.554164 81.663 4.74157 77.2474L1.83911 74.4949ZM20.5357 93.908C29.339 84.6172 38.1454 75.3279 46.9579 66.0371L44.0557 63.2844C35.2427 72.5757 26.4359 81.8654 17.6322 91.1568L20.5357 93.908ZM44.0552 66.0366C52.8618 75.3276 61.6619 84.6135 70.4619 93.9075L73.3665 91.1573C64.5657 81.8626 55.765 72.576 46.9583 63.2849L44.0552 66.0366ZM70.4632 93.9088C73.4006 97.0054 76.879 98.234 80.2707 97.9638C83.5985 97.6986 86.649 96.0096 88.9023 93.633C93.3951 88.8943 95.1595 80.8215 89.1656 74.497L86.2623 77.2485C90.4463 81.6632 89.4043 87.2897 85.9995 90.8809C84.3041 92.6691 82.133 93.8027 79.953 93.9764C77.8369 94.145 75.5213 93.4289 73.3652 91.156L70.4632 93.9088ZM89.1654 74.4968C80.357 65.2053 71.5508 55.9196 62.7428 46.6254L59.8395 49.3768C68.6477 58.6713 77.4548 67.958 86.2625 77.2488L89.1654 74.4968ZM62.7423 49.3773C71.5522 40.0876 80.359 30.7963 89.1655 21.5053L86.2624 18.7536C77.4558 28.0447 68.6494 37.3356 59.84 46.6249L62.7423 49.3773ZM89.1657 21.5051C95.1594 15.1799 93.3951 7.10595 88.9023 2.36683C86.649 -0.0100628 83.5984 -1.69913 80.2705 -1.96389C76.8785 -2.23375 73.4002 -1.00417 70.4629 2.09369L73.3655 4.84588C75.5218 2.57174 77.8374 1.85518 79.9532 2.02351C82.133 2.19693 84.304 3.33038 85.9995 5.1188C89.4043 8.7103 90.4464 14.3382 86.2622 18.7538L89.1657 21.5051Z" fill="#5F1414" mask="url(#path-1-inside-1)"/>
</svg>
