<svg width="274" height="282" viewBox="0 0 274 282" fill="none" xmlns="http://www.w3.org/2000/svg">
<path d="M132.3 65.5601L152.55 75.578L122.768 225.788L112.53 277.423L65.1254 268.235L132.3 65.5601Z" fill="#A1744B"/>
<path d="M99.9905 162.827V162.827C109.857 167.109 120.55 169.261 131.374 169.143L133.446 169.121" stroke="#7B512B" stroke-width="2"/>
<path d="M94.6123 178.6V178.6C105.425 183.063 117.035 185.388 128.802 185.446L131.068 185.457" stroke="#7B512B" stroke-width="2"/>
<path d="M85.593 206.333L86.8115 206.813C97.8359 211.154 109.579 213.495 121.489 213.725L125.279 213.798" stroke="#7B512B" stroke-width="2"/>
<path d="M79.9389 222.284L83.0903 223.488C93.5608 227.488 104.66 229.694 115.922 230.013L121.932 230.183" stroke="#7B512B" stroke-width="2"/>
<path d="M75.4791 237.08L79.7506 238.684C89.9139 242.502 100.66 244.634 111.565 244.996L118.856 245.239" stroke="#7B512B" stroke-width="2"/>
<path d="M70.9196 250.017L76.9997 252.241C86.6881 255.786 96.8928 257.805 107.25 258.228L116.604 258.611" stroke="#7B512B" stroke-width="2"/>
<path d="M89.9716 194.281V194.281C101.22 198.828 113.255 201.233 125.456 201.372L127.811 201.399" stroke="#7B512B" stroke-width="2"/>
<path d="M7.75787 36.1784C8.15886 35.6551 48.5362 -15.206 98.5377 8.76218C120.966 19.5042 135.178 36.5126 139.923 58.1318C150.177 44.6799 165.445 36.3391 185.395 33.3023C240.164 24.9687 271.348 85.7905 271.657 86.4097C272.108 87.3119 271.877 88.416 271.094 89.0611C270.312 89.7062 269.167 89.7221 268.356 89.1256C268.114 88.945 243.787 71.1142 202.288 77.4109C159.871 83.8427 130.077 90.4587 129.776 90.5213C129.39 90.6044 128.988 90.5843 128.613 90.4631C128.237 90.3419 127.901 90.124 127.638 89.8315C127.365 89.5191 100.118 58.9299 74.6307 46.7155C36.9248 28.6645 10.6032 39.4019 10.3539 39.5094C9.90488 39.6965 9.40656 39.7318 8.93586 39.6098C8.46516 39.4878 8.04823 39.2154 7.7494 38.8345C7.45079 38.4554 7.28929 37.9874 7.29083 37.5058C7.29237 37.0241 7.45684 36.5566 7.75787 36.1784V36.1784Z" fill="#2BB970" stroke="#339562" stroke-width="4"/>
<path d="M239.654 223.663L239.647 223.673C239.09 224.516 238.291 225.162 237.372 225.555C236.454 225.947 235.442 226.078 234.456 225.942C233.471 225.805 232.532 225.403 231.762 224.764C230.991 224.123 230.419 223.267 230.15 222.288L230.15 222.287C230.009 221.775 218.233 179.03 186.707 142.579L186.707 142.578C169.781 122.996 147.163 103.242 132.369 90.809C117.552 92.86 98.3012 98.8127 76.9265 109.059C34.693 129.334 14.4108 164.795 13.9247 165.65C13.4134 166.578 12.6158 167.305 11.6728 167.758C10.7257 168.212 9.661 168.378 8.6231 168.245C7.5939 168.115 6.61216 167.696 5.81706 167.021C5.01938 166.344 4.44197 165.434 4.20023 164.401L4.19745 164.389L4.19482 164.378C4.09255 163.915 0.261298 146.244 4.40375 125.046C8.56224 103.765 20.7849 78.8667 52.7852 64.394C91.4014 46.9159 121.225 56.3068 139.856 67.9425C162.656 64.7347 203.823 66.4133 237.597 108.06C258.837 134.249 259.401 163.092 254.672 185.306C249.951 207.484 239.925 223.247 239.654 223.663Z" fill="#26C673" stroke="#319460" stroke-width="4"/>
<path d="M149.919 123.72C161.985 127.813 175.109 120.933 179.279 108.446C183.448 95.9597 177.122 82.4808 165.056 78.3876C152.99 74.2943 139.866 81.1747 135.696 93.6612C131.527 106.148 137.853 119.627 149.919 123.72Z" fill="#66493C" stroke="#482C20" stroke-width="2"/>
<line y1="-1" x2="16.9143" y2="-1" transform="matrix(-0.865873 0.512534 -0.460983 -0.880548 158.238 82.0918)" stroke="#543A2F" stroke-width="2"/>
<line y1="-1" x2="16.9143" y2="-1" transform="matrix(-0.865873 0.512533 -0.460984 -0.880548 156.786 95.2369)" stroke="#543A2F" stroke-width="2"/>
<line y1="-1" x2="16.9143" y2="-1" transform="matrix(-0.865873 0.512533 -0.460983 -0.880548 174.664 94.483)" stroke="#543A2F" stroke-width="2"/>
<line y1="-1" x2="12.8959" y2="-1" transform="matrix(-0.697604 0.72472 -0.684706 -0.720374 155.736 105.419)" stroke="#543A2F" stroke-width="2"/>
<line y1="-1" x2="16.9143" y2="-1" transform="matrix(-0.865873 0.512533 -0.460984 -0.880548 170.046 106.554)" stroke="#543A2F" stroke-width="2"/>
<path d="M113.029 99.3804C124.825 103.332 137.467 98.094 141.093 87.36C144.719 76.626 137.828 64.8452 126.032 60.8939C114.236 56.9425 101.594 62.1803 97.9679 72.9143C94.3415 83.6483 101.233 95.429 113.029 99.3804Z" fill="#66493C" stroke="#482C20" stroke-width="2"/>
<line y1="-1" x2="14.4491" y2="-1" transform="matrix(-0.871318 0.503166 -0.470475 -0.875471 122.756 65.031)" stroke="#543A2F" stroke-width="2"/>
<line y1="-1" x2="14.4491" y2="-1" transform="matrix(-0.871318 0.503165 -0.470475 -0.875471 121.546 76.1129)" stroke="#543A2F" stroke-width="2"/>
<line y1="-1" x2="14.4491" y2="-1" transform="matrix(-0.871318 0.503165 -0.470476 -0.875471 136.944 75.5272)" stroke="#543A2F" stroke-width="2"/>
<line y1="-1" x2="10.9504" y2="-1" transform="matrix(-0.705101 0.71749 -0.692516 -0.71292 120.672 84.6971)" stroke="#543A2F" stroke-width="2"/>
<line y1="-1" x2="14.4491" y2="-1" transform="matrix(-0.871318 0.503165 -0.470476 -0.875471 133.002 85.6943)" stroke="#543A2F" stroke-width="2"/>
<path d="M114.702 146.487C128.672 151.226 143.584 144.96 147.849 132.188C152.114 119.416 143.995 105.337 130.025 100.598C116.055 95.8586 101.143 102.124 96.8777 114.896C92.6129 127.668 100.732 141.748 114.702 146.487Z" fill="#66493C" stroke="#482C20" stroke-width="2"/>
<line y1="-1" x2="16.9143" y2="-1" transform="matrix(-0.865874 0.512532 -0.460985 -0.880547 119.44 103.05)" stroke="#543A2F" stroke-width="2"/>
<line y1="-1" x2="16.9143" y2="-1" transform="matrix(-0.865873 0.512533 -0.460984 -0.880548 117.988 116.195)" stroke="#543A2F" stroke-width="2"/>
<line y1="-1" x2="16.9143" y2="-1" transform="matrix(-0.865874 0.512532 -0.460985 -0.880547 135.866 115.442)" stroke="#543A2F" stroke-width="2"/>
<line y1="-1" x2="16.9143" y2="-1" transform="matrix(-0.865873 0.512533 -0.460984 -0.880548 131.248 127.512)" stroke="#543A2F" stroke-width="2"/>
<path d="M160.385 274.096C174.355 278.835 189.268 272.569 193.533 259.797C197.797 247.025 189.678 232.946 175.709 228.207C161.739 223.467 146.826 229.733 142.561 242.505C138.296 255.277 146.415 269.356 160.385 274.096Z" fill="#66493C" stroke="#482C20" stroke-width="2"/>
<line y1="-1" x2="16.9143" y2="-1" transform="matrix(-0.865874 0.512532 -0.460985 -0.880547 165.123 230.659)" stroke="#543A2F" stroke-width="2"/>
<line y1="-1" x2="16.9143" y2="-1" transform="matrix(-0.865873 0.512533 -0.460984 -0.880548 163.672 243.804)" stroke="#543A2F" stroke-width="2"/>
<line y1="-1" x2="16.9143" y2="-1" transform="matrix(-0.865874 0.512532 -0.460985 -0.880547 181.55 243.051)" stroke="#543A2F" stroke-width="2"/>
<line y1="-1" x2="16.9143" y2="-1" transform="matrix(-0.865873 0.512533 -0.460984 -0.880548 176.931 255.121)" stroke="#543A2F" stroke-width="2"/>
</svg>
