<svg width="118" height="117" viewBox="0 0 118 117" fill="none" xmlns="http://www.w3.org/2000/svg">
<path d="M86.9338 105.709L85.204 92.846C84.8347 90.0998 82.9622 87.7821 80.3399 86.8255L70.0962 83.0884C68.8661 82.6819 68.0367 81.5406 68.0367 80.255V75.4387L74.5243 72.7583C77.8918 71.3671 80.0852 68.1047 80.0852 64.4875V62.9942C82.5806 62.9942 84.6035 60.9885 84.6035 58.5142C84.6035 56.04 82.5806 54.0342 80.0852 54.0342V51.0476C80.0852 46.9237 76.7136 40.5943 72.5548 40.5943H45.4451C41.2862 40.5943 37.9146 46.9239 37.9146 51.0476V54.0342C35.4192 54.0342 33.3964 56.04 33.3964 58.5142C33.3964 60.9885 35.4192 62.9942 37.9146 62.9942V64.4875C37.9146 68.1047 40.1081 71.3671 43.4755 72.7583L49.9634 75.4387V80.2548C49.9634 81.5404 49.1337 82.6817 47.9038 83.0882L37.6601 86.8253C35.0378 87.782 33.1654 90.0996 32.796 92.8458L31.0662 105.709C30.7052 108.394 32.8124 110.781 35.545 110.781H82.455C85.1877 110.781 87.2949 108.394 86.9338 105.709Z" fill="#F6B47B"/>
<path d="M68.0365 75.4383L49.9634 71.4559V80.2544C49.9634 81.3294 49.3636 82.2762 48.4541 82.8041C61.0853 84.9963 68.0365 75.4383 68.0365 75.4383Z" fill="#E2A071"/>
<path d="M41.1442 95.0991L37.8297 86.7732C37.6115 86.2254 37.8828 85.6058 38.4353 85.3897L42.0387 83.9794C42.5912 83.7631 43.2161 84.032 43.4341 84.5799L46.7484 92.9058L41.1442 95.0991Z" fill="#BD445A"/>
<path d="M76.8557 95.0991L80.1701 86.7732C80.3883 86.2254 80.117 85.6058 79.5644 85.3897L75.9611 83.9794C75.4085 83.7631 74.7837 84.032 74.5657 84.5799L71.2513 92.9058L76.8557 95.0991Z" fill="#BD445A"/>
<path d="M74.0609 92.8606H43.9391C42.2754 92.8606 40.9269 94.1977 40.9269 95.8472V110.781H77.0731V95.8472C77.0731 94.1978 75.7246 92.8606 74.0609 92.8606Z" fill="#F05467"/>
<path d="M68.0365 95.847L59 100.327L49.9634 95.847L40.9269 100.327V103.314L49.9634 98.8337L59 103.314L68.0365 98.8337L77.0731 103.314V100.327L68.0365 95.847Z" fill="#FFC84A"/>
<path d="M68.0365 101.821L59 106.301L49.9634 101.821L40.9269 106.301V109.288L49.9634 104.808L59 109.288L68.0365 104.808L77.0731 109.288V106.301L68.0365 101.821Z" fill="#FFA34E"/>
<path d="M81.3793 14.118C81.3793 14.118 87.3556 6.04902 97.6551 6.04902C107.955 6.04902 113.931 13.7819 113.931 24.2042C113.931 34.7864 102.063 63.2043 107.828 80.687C107.828 80.687 92.5689 75.4757 87.4827 54.4628C82.8187 35.1936 89.5172 22.1869 89.5172 22.1869L81.3793 14.118Z" fill="#6E4439"/>
<path d="M88.2457 16.1351C88.2457 16.1351 94.9849 11.3441 99.6897 14.1178C110.045 20.2233 101.585 36.9964 99.6897 46.3937C97.1466 59.0015 98.1638 71.1049 107.828 80.6868C107.828 80.6868 92.569 75.4755 87.4828 54.4627C82.8187 35.1935 88.2457 22.1868 88.2457 22.1868V16.1351Z" fill="#5E342E"/>
<path d="M90.5579 18.8246C91.3953 18.0817 91.4668 16.8063 90.7176 15.9762L85.7685 10.4919C85.0193 9.66152 83.733 9.59067 82.8958 10.3335C82.0583 11.0764 81.9869 12.3518 82.7361 13.1819L87.6852 18.6662C88.4341 19.4966 89.7205 19.5674 90.5579 18.8246Z" fill="#BD445A"/>
<path d="M36.6207 14.118C36.6207 14.118 30.6444 6.04902 20.3448 6.04902C10.0453 6.04902 4.06897 13.7819 4.06897 24.2042C4.06897 34.7864 15.9369 63.2043 10.1724 80.687C10.1724 80.687 25.431 75.4757 30.5172 54.4628C35.1813 35.1936 28.4828 22.1869 28.4828 22.1869L36.6207 14.118Z" fill="#6E4439"/>
<path d="M29.7543 16.1351C29.7543 16.1351 23.015 11.3441 18.3103 14.1178C7.95452 20.2233 16.4147 36.9964 18.3103 46.3937C20.8534 59.0015 19.8362 71.1049 10.1724 80.6868C10.1724 80.6868 25.431 75.4755 30.5172 54.4627C35.1812 35.1935 29.7543 22.1868 29.7543 22.1868V16.1351Z" fill="#5E342E"/>
<path d="M27.4424 18.8246C26.605 18.0817 26.5335 16.8063 27.2827 15.9762L32.2318 10.4919C32.981 9.66152 34.2673 9.59067 35.1045 10.3335C35.942 11.0764 36.0134 12.3518 35.2642 13.1819L30.3151 18.6662C29.5659 19.4966 28.2798 19.5674 27.4424 18.8246Z" fill="#BD445A"/>
<path d="M87.4828 46.3938V42.3594C87.4828 36.7887 82.9283 28.2387 77.3104 28.2387H40.6897C35.0717 28.2387 30.5173 36.789 30.5173 42.3594V46.3938C27.1464 46.3938 24.4138 49.1033 24.4138 52.4456C24.4138 55.7879 27.1464 58.4973 30.5173 58.4973V60.5145C30.5173 65.4008 33.4802 69.8077 38.0291 71.687L51.1746 77.1179C53.6542 78.1425 56.3137 78.6697 58.9998 78.6697C61.6858 78.6697 64.3451 78.1425 66.8246 77.1179L79.971 71.6868C84.5198 69.8077 87.4828 65.4008 87.4828 60.5145V58.4973C90.8537 58.4973 93.5862 55.7879 93.5862 52.4456C93.5862 49.1033 90.8537 46.3938 87.4828 46.3938Z" fill="#FDC88E"/>
<path d="M44.7586 54.4628C43.6396 54.4628 42.7241 53.5551 42.7241 52.4456V50.4283C42.7241 49.3188 43.6396 48.4111 44.7586 48.4111C45.8776 48.4111 46.7931 49.3188 46.7931 50.4283V52.4456C46.7931 53.5551 45.8776 54.4628 44.7586 54.4628Z" fill="#623F33"/>
<path d="M73.2414 54.4628C72.1224 54.4628 71.2069 53.5551 71.2069 52.4456V50.4283C71.2069 49.3188 72.1224 48.4111 73.2414 48.4111C74.3604 48.4111 75.2759 49.3188 75.2759 50.4283V52.4456C75.2759 53.5551 74.3604 54.4628 73.2414 54.4628Z" fill="#623F33"/>
<path d="M59 68.6391C55.3829 68.6391 51.9996 67.7566 49.7177 66.2172C48.7889 65.5908 48.5473 64.3358 49.1803 63.415C49.811 62.4951 51.0777 62.2555 52.0065 62.8821C53.6058 63.9606 56.2204 64.6049 59 64.6049C61.7796 64.6049 64.3942 63.9606 65.9935 62.8821C66.9243 62.2538 68.188 62.4941 68.8197 63.415C69.4524 64.3358 69.211 65.5908 68.2823 66.2172C66.0006 67.7566 62.617 68.6391 59 68.6391Z" fill="#E2A071"/>
<path d="M61.02 30.5978L58.4914 27.23C52.4726 40.8464 36.4216 43.2648 30.5173 43.5684V46.3938C27.1464 46.3938 24.4138 49.1032 24.4138 52.4456C24.4138 55.7879 27.1464 58.4973 30.5173 58.4973V60.5145C30.5173 65.4008 33.4802 69.8077 38.0291 71.687L51.1744 77.1179C51.8178 77.3837 52.4744 77.6127 53.1394 77.8111C47.33 73.5973 43.4629 69.9136 41.197 67.505C39.5486 65.7526 38.6552 63.44 38.6552 61.0436V49.7694C44.4174 47.7751 60.4796 41.2721 61.02 30.5978Z" fill="#F6B47B"/>
<path d="M69.1725 6.04902C62.5604 6.04902 59.0001 8.06626 59.0001 8.06626C59.0001 8.06626 55.4397 6.04902 48.8276 6.04902C42.2156 6.04902 17.1235 18.6706 26.4483 47.9206C26.4483 47.9206 59.0001 42.1912 59.0001 28.2387C59.0001 42.1912 91.5518 47.9206 91.5518 47.9206C100.877 18.6706 75.7845 6.04902 69.1725 6.04902Z" fill="#6E4439"/>
<path d="M59 8.06727V8.06626C59 8.06626 55.4396 6.04902 48.8276 6.04902C42.2155 6.04902 17.1237 18.6706 26.4482 47.9206C26.4482 47.9206 30.3888 47.2255 35.5246 45.7345C29.7769 19.506 52.691 8.08744 59 8.06727Z" fill="#653C34"/>
</svg>
