<svg width="118" height="117" viewBox="0 0 118 117" fill="none" xmlns="http://www.w3.org/2000/svg">
<path d="M86.9654 103.112L86.8383 101.978C86.7881 101.53 86.3807 101.206 85.9284 101.256L85.8572 101.264L84.6278 91.5124C84.3603 89.3912 82.8882 87.6107 80.8428 86.9347L74.0113 84.6767C73.0732 84.3666 72.0441 84.564 71.3207 85.1753L69.3083 84.5102C68.1652 84.1324 67.3943 83.0718 67.3943 81.8771V77.4011L73.4235 74.9102C76.5531 73.6177 78.5915 70.5859 78.5915 67.2243V65.8366C80.9105 65.8366 82.7904 63.9726 82.7904 61.6732C82.7904 60.9788 82.6181 60.3246 82.3147 59.7491C82.6198 59.0638 82.7904 58.3068 82.7904 57.5099C82.7904 56.9478 82.681 56.4163 82.5245 55.9051C83.5516 54.8988 84.19 53.5035 84.19 51.9587C84.19 51.3967 84.0807 50.8652 83.9241 50.3539C84.9514 49.3476 85.5897 47.9524 85.5897 46.4076C85.5897 43.7377 83.6874 41.5112 81.1542 40.9798C81.293 40.4964 81.3908 39.9962 81.3908 39.4687C81.3908 36.4029 78.8842 33.9176 75.7922 33.9176C74.631 33.9176 73.5526 34.2683 72.6582 34.8686C71.8942 32.7041 69.8381 31.142 67.3943 31.142C66.0137 31.142 64.7663 31.6564 63.7901 32.4777C62.8136 30.8535 61.0422 29.7542 58.9966 29.7542C56.9511 29.7542 55.1798 30.8535 54.203 32.4777C53.2268 31.6564 51.9793 31.142 50.5988 31.142C48.155 31.142 46.0989 32.7041 45.3349 34.8686C44.4403 34.2683 43.3619 33.9176 42.2009 33.9176C39.1089 33.9176 36.6023 36.4029 36.6023 39.4687C36.6023 39.9962 36.7003 40.4964 36.8389 40.9798C34.3055 41.5112 32.4032 43.7377 32.4032 46.4076C32.4032 47.9524 33.0417 49.3476 34.0688 50.3539C33.9122 50.8652 33.8029 51.3967 33.8029 51.9587C33.8029 53.5035 34.4413 54.8988 35.4685 55.9051C35.3119 56.4163 35.2025 56.9478 35.2025 57.5099C35.2025 58.3068 35.3731 59.0638 35.6782 59.7491C35.375 60.3246 35.2025 60.9788 35.2025 61.6732C35.2025 63.9726 37.0824 65.8366 39.4015 65.8366V67.2243C39.4015 70.5857 41.4399 73.6175 44.5693 74.9106L50.5986 77.4015V81.8772C50.5986 83.0719 49.8276 84.1326 48.6846 84.5104L46.6723 85.1755C45.9488 84.5642 44.9197 84.3667 43.9816 84.6769L37.1501 86.9348C35.1047 87.6109 33.6327 89.3914 33.3651 91.5126L32.1357 101.264L32.0645 101.256C31.6123 101.207 31.2048 101.53 31.1546 101.978L31.0276 103.112C30.9774 103.561 31.3033 103.965 31.7556 104.014L33.8029 104.24V107.47C33.8029 109.003 35.0563 110.246 36.6022 110.246H43.6004H74.3925H81.3908C82.9368 110.246 84.19 109.003 84.19 107.47V104.24L86.2374 104.014C86.6896 103.964 87.0157 103.56 86.9654 103.112Z" fill="#C38762"/>
<path d="M74.3925 110.246V103.307H86.1145L84.6275 91.513C84.36 89.3917 82.888 87.6112 80.8426 86.9352L74.0111 84.6773C72.8214 84.284 71.483 84.704 70.811 85.7538C68.3301 89.6299 63.9693 92.2048 58.9966 92.2048C54.0238 92.2048 49.6629 89.6297 47.1819 85.7537C46.5099 84.7038 45.1714 84.2838 43.9818 84.6771L37.1503 86.935C35.1049 87.611 33.6328 89.3916 33.3653 91.5128L32.0341 102.072L43.6005 103.307V110.246H74.3927V110.246H74.3925Z" fill="#FFD739"/>
<path d="M67.3944 77.4016L50.5987 73.7008V81.8774C50.5987 82.8764 50.0413 83.7563 49.196 84.2469C60.9345 86.2841 67.3944 77.4016 67.3944 77.4016Z" fill="#A46D4D"/>
<path d="M43.6006 102.528L32.0647 101.257C31.6123 101.207 31.205 101.53 31.1546 101.978L31.0276 103.112C30.9774 103.561 31.3033 103.965 31.7556 104.015L43.6006 105.32V102.528Z" fill="#FFB440"/>
<path d="M74.3925 102.528L85.9283 101.257C86.3808 101.207 86.788 101.53 86.8384 101.978L86.9655 103.112C87.0157 103.561 86.6897 103.965 86.2375 104.015L74.3925 105.32V102.528Z" fill="#FFB440"/>
<path d="M43.6006 104.354V101.214C43.6006 99.8784 43.1152 98.5881 42.2336 97.5788L34.5323 88.7641C33.9108 89.5442 33.4948 90.4867 33.3655 91.5125L31.9036 103.109C34.1295 103.241 40.0507 103.929 43.6006 104.354Z" fill="#FFC33D"/>
<path d="M74.3925 104.354V101.214C74.3925 99.8784 74.8778 98.5881 75.7594 97.5788L83.4607 88.7641C84.0822 89.5442 84.4982 90.4867 84.6275 91.5125L86.0895 103.109C83.8635 103.241 77.9421 103.929 74.3925 104.354Z" fill="#FFC33D"/>
<path d="M95.2341 36.4991C96.7272 35.0364 97.6549 33.0083 97.6549 30.7629C97.6549 26.8819 94.8898 23.6455 91.2076 22.8732C91.4093 22.1704 91.5515 21.4435 91.5515 20.6767C91.5515 16.2203 87.908 12.6077 83.4136 12.6077C81.7257 12.6077 80.1581 13.1176 78.8581 13.99C77.7475 10.8439 74.7589 8.57325 71.2067 8.57325C69.1999 8.57325 67.3867 9.32089 65.9676 10.5148C64.5483 8.15392 61.9735 6.55602 59.0001 6.55602C56.0267 6.55602 53.452 8.15392 52.0322 10.5148C50.6132 9.32089 48.8 8.57325 46.7932 8.57325C43.241 8.57325 40.2524 10.8439 39.1418 13.99C37.8415 13.1176 36.2739 12.6077 34.5863 12.6077C30.0919 12.6077 26.4484 16.2203 26.4484 20.6767C26.4484 21.4435 26.5908 22.1704 26.7922 22.8732C23.1098 23.6455 20.3447 26.8819 20.3447 30.7629C20.3447 33.0083 21.2727 35.0364 22.7658 36.4991C22.5381 37.2422 22.3792 38.0148 22.3792 38.8318C22.3792 41.0772 23.3072 43.1053 24.8002 44.5681C24.5726 45.3112 24.4137 46.0838 24.4137 46.9008C24.4137 51.3571 28.0572 54.9697 32.5516 54.9697C32.5524 54.9697 32.5531 54.9697 32.5541 54.9697H85.4457C85.4465 54.9697 85.4473 54.9697 85.4483 54.9697C89.9427 54.9697 93.5862 51.3571 93.5862 46.9008C93.5862 46.0838 93.4273 45.3112 93.1997 44.5681C94.6927 43.1053 95.6207 41.0772 95.6207 38.8318C95.6204 38.0148 95.4617 37.2422 95.2341 36.4991Z" fill="#623F33"/>
<path d="M87.4825 46.9008V40.849C87.4825 35.2787 82.9281 28.7456 77.3101 28.7456H40.6895C35.0713 28.7456 30.5171 35.2787 30.5171 40.849V46.9008C27.1463 46.9008 24.4137 49.6104 24.4137 52.9525C24.4137 56.2948 27.1463 59.0042 30.5171 59.0042V61.0214C30.5171 65.9074 33.4801 70.3143 38.0289 72.1939L51.1745 77.6248C53.6542 78.6493 56.3138 79.1765 58.9998 79.1765C61.6858 79.1765 64.3452 78.649 66.8247 77.6248L79.971 72.1936C84.5196 70.3146 87.4825 65.9077 87.4825 61.0214V59.0042C90.8534 59.0042 93.586 56.2948 93.586 52.9525C93.586 49.6102 90.8534 46.9008 87.4825 46.9008Z" fill="#D29771"/>
<path d="M44.7587 54.9697C43.6398 54.9697 42.7242 54.062 42.7242 52.9525V50.9352C42.7242 49.8258 43.6398 48.918 44.7587 48.918C45.8777 48.918 46.7932 49.8258 46.7932 50.9352V52.9525C46.7932 54.062 45.8774 54.9697 44.7587 54.9697Z" fill="#623F33"/>
<path d="M73.2411 54.9697C72.1222 54.9697 71.2067 54.062 71.2067 52.9525V50.9352C71.2067 49.8258 72.1222 48.918 73.2411 48.918C74.3601 48.918 75.2756 49.8258 75.2756 50.9352V52.9525C75.2756 54.062 74.3601 54.9697 73.2411 54.9697Z" fill="#623F33"/>
<path d="M59.0001 69.146C55.3831 69.146 51.9997 68.2635 49.7178 66.724C48.7891 66.0977 48.5477 64.8427 49.1804 63.9218C49.8111 63.002 51.0778 62.7624 52.0066 63.389C53.6059 64.4675 56.2205 65.1118 59.0001 65.1118C61.7797 65.1118 64.3943 64.4675 65.9936 63.389C66.9244 62.7607 68.1881 63.001 68.8198 63.9218C69.4525 64.8427 69.2111 66.0977 68.2824 66.724C66.0007 68.2635 62.6171 69.146 59.0001 69.146Z" fill="#A46D4D"/>
<path d="M30.5171 28.9978V46.9007C27.1463 46.9007 24.4137 49.6101 24.4137 52.9525C24.4137 56.2948 27.1463 59.0042 30.5171 59.0042V61.0214C30.5171 65.9077 33.4801 70.3146 38.0289 72.1939L51.1742 77.6248C51.8176 77.8905 52.4742 78.1195 53.1393 78.318C47.3298 74.1042 43.4628 70.4205 41.1969 68.0119C39.5484 66.2594 38.655 63.9469 38.655 61.5504V38.7746C40.8205 38.5353 42.7535 37.5433 44.1947 36.0732C45.3045 36.5473 46.5252 36.8146 47.8102 36.8146C50.6068 36.8146 53.0792 35.5447 54.7585 33.5855C55.9967 34.3402 57.4399 34.7973 58.9998 34.7973C61.089 34.7973 62.9744 33.994 64.4156 32.711C65.9951 33.995 67.9879 34.7973 70.1895 34.7973C74.0763 34.7973 77.3732 32.388 78.6949 28.9978H30.5171Z" fill="#C38762"/>
<path d="M87.4825 30.7629C87.3503 30.7629 87.2269 30.7931 87.0967 30.8014C87.3327 30.1569 87.4825 29.4708 87.4825 28.7456C87.4825 25.4033 84.75 22.6939 81.3791 22.6939C80.6388 22.6939 79.9382 22.8445 79.2815 23.0837C78.9553 18.3647 75.032 14.625 70.1895 14.625C66.0206 14.625 62.5421 17.405 61.4359 21.1848C60.6887 20.8613 59.867 20.6767 58.9998 20.6767C56.7164 20.6767 54.7498 21.9347 53.7031 23.7757C52.4221 21.9059 50.2617 20.6767 47.8105 20.6767C44.8971 20.6767 42.4005 22.416 41.2978 24.9003C40.1784 23.5633 38.5101 22.6939 36.6208 22.6939C34.3531 22.6939 32.3759 23.9209 31.3235 25.741C31.1837 25.7271 31.042 25.7198 30.8986 25.7198C28.5811 25.7198 26.7025 27.5824 26.7025 29.8803C26.7025 30.5581 26.8693 31.1961 27.1595 31.7617C25.5057 32.8441 24.4137 34.7025 24.4137 36.8146C24.4137 40.1569 27.1463 42.8663 30.5171 42.8663C33.888 42.8663 36.6206 40.1569 36.6206 36.8146C36.6206 36.0894 36.4708 35.4033 36.2348 34.7588C36.365 34.7671 36.4886 34.7973 36.6206 34.7973C38.904 34.7973 40.8708 33.5393 41.9173 31.6984C43.1983 33.5681 45.3592 34.7973 47.8102 34.7973C50.7236 34.7973 53.2201 33.058 54.3228 30.5737C55.4423 31.9107 57.1101 32.7801 58.9998 32.7801C61.0249 32.7801 62.8061 31.7912 63.9164 30.2855C65.5567 31.8222 67.755 32.7801 70.1895 32.7801C72.2664 32.7801 74.16 32.068 75.6963 30.9124C76.577 33.1808 78.7808 34.7973 81.3791 34.7973C81.5113 34.7973 81.6347 34.7671 81.7649 34.7588C81.5289 35.4033 81.3791 36.0894 81.3791 36.8146C81.3791 40.1569 84.1117 42.8663 87.4825 42.8663C90.8534 42.8663 93.586 40.1569 93.586 36.8146C93.586 33.4723 90.8534 30.7629 87.4825 30.7629Z" fill="#623F33"/>
</svg>
