<svg width="117" height="118" viewBox="0 0 117 118" fill="none" xmlns="http://www.w3.org/2000/svg">
<path d="M86.2282 104.108L86.1022 102.964C86.0524 102.512 85.6484 102.186 85.1998 102.236L85.1292 102.244L83.9102 92.4092C83.645 90.2698 82.1854 88.4741 80.1573 87.7923L73.3838 85.5151C72.4536 85.2023 71.4333 85.4016 70.716 86.0179L68.7207 85.3472C67.5872 84.9661 66.8229 83.8964 66.8229 82.6915V78.1773L72.8009 75.6652C75.9042 74.3616 77.9253 71.3039 77.9253 67.9136V66.514C80.2247 66.514 82.0886 64.6341 82.0886 62.3151C82.0886 59.9961 80.2247 58.1162 77.9253 58.1162V55.3169C77.9253 51.452 74.8186 48.3188 70.9864 48.3188H46.0065C42.1743 48.3188 39.0676 51.452 39.0676 55.3169V58.1162C36.7683 58.1162 34.9043 59.9961 34.9043 62.3151C34.9043 64.6341 36.7683 66.514 39.0676 66.514V67.9136C39.0676 71.3037 41.0887 74.3614 44.1916 75.6655L50.1698 78.1779V82.6919C50.1698 83.8968 49.4053 84.9665 48.272 85.3475L46.2768 86.0183C45.5595 85.4019 44.5391 85.2026 43.6089 85.5155L36.8354 87.7927C34.8073 88.4745 33.3477 90.2702 33.0825 92.4095L31.8635 102.244L31.7929 102.237C31.3443 102.186 30.9405 102.512 30.8905 102.965L30.7646 104.108C30.7148 104.56 31.038 104.968 31.4864 105.018L33.5164 105.246V108.503C33.5164 110.049 34.7589 111.303 36.2919 111.303H80.7007C82.2336 111.303 83.4762 110.049 83.4762 108.503V105.246L85.5062 105.018C85.9548 104.968 86.2781 104.56 86.2282 104.108Z" fill="#FFD7A3"/>
<path d="M50.1699 78.0608V82.6915C50.1699 83.6875 49.6465 84.5901 48.825 85.0886C59.8839 87.0157 66.2051 78.8255 66.7799 78.0608H50.1699Z" fill="#FDC88E"/>
<path d="M73.7619 111.302V104.304H85.3845L83.9101 92.4091C83.6449 90.2697 82.1853 88.474 80.1572 87.7922L73.3837 85.515C72.2041 85.1184 70.877 85.5419 70.2107 86.6008C67.7509 90.5099 63.4271 93.1068 58.4964 93.1068C53.5658 93.1068 49.2418 90.5098 46.7818 86.6006C46.1155 85.5418 44.7884 85.1182 43.6088 85.5148L36.8353 87.792C34.8072 88.4738 33.3476 90.2696 33.0824 92.4089L31.7625 103.059L43.2308 104.304V111.302H73.7619V111.302Z" fill="#5B7FFF"/>
<path d="M43.231 105.361V102.193C43.231 100.847 42.7498 99.5455 41.8756 98.5276L34.2396 89.6376C33.6234 90.4244 33.2109 91.3749 33.0827 92.4094L31.6332 104.105C33.8404 104.238 39.7114 104.932 43.231 105.361Z" fill="#3F71F2"/>
<path d="M43.231 103.518L31.7929 102.237C31.3443 102.186 30.9405 102.512 30.8905 102.965L30.7646 104.108C30.7148 104.56 31.038 104.968 31.4864 105.018L43.231 106.334V103.518Z" fill="#376DD7"/>
<path d="M73.762 105.361V102.193C73.762 100.847 74.2432 99.5455 75.1175 98.5276L82.7535 89.6376C83.3697 90.4244 83.7822 91.3749 83.9104 92.4094L85.3599 104.105C83.1527 104.238 77.2815 104.932 73.762 105.361Z" fill="#3F71F2"/>
<path d="M73.762 103.518L85.2 102.237C85.6486 102.186 86.0524 102.512 86.1024 102.965L86.2283 104.108C86.2781 104.56 85.9549 104.968 85.5065 105.018L73.762 106.334V103.518Z" fill="#376DD7"/>
<path d="M58.4964 102.904C53.8977 102.904 50.1698 106.664 50.1698 111.302H66.8231C66.8231 106.664 63.0952 102.904 58.4964 102.904Z" fill="#FFA64E"/>
<path d="M86.7413 47.3015V43.2326C86.7413 37.6146 82.2254 33.0602 76.6551 33.0602H40.3449C34.7746 33.0602 30.2587 37.6146 30.2587 43.2326V47.3015H30.2585C26.9162 47.3015 24.2068 50.0341 24.2068 53.405C24.2068 56.7758 26.9162 59.5084 30.2585 59.5084H30.2587V61.5428C30.2587 66.4706 33.1966 70.9152 37.7069 72.8108L50.741 78.2881C53.1995 79.3214 55.8365 79.8531 58.4997 79.8531C61.163 79.8531 63.7998 79.3214 66.2583 78.2881L79.2931 72.8105C83.8034 70.9154 86.7413 66.4709 86.7413 61.5428V59.5084C90.0836 59.5084 92.793 56.7758 92.793 53.405C92.793 50.0341 90.0836 47.3015 86.7413 47.3015Z" fill="#FFE1B2"/>
<path d="M44.3794 55.4394C43.2699 55.4394 42.3622 54.5239 42.3622 53.4049V51.3705C42.3622 50.2515 43.2699 49.336 44.3794 49.336C45.4889 49.336 46.3966 50.2515 46.3966 51.3705V53.4049C46.3966 54.5239 45.4889 55.4394 44.3794 55.4394Z" fill="#623F33"/>
<path d="M72.6206 55.4394C71.5111 55.4394 70.6034 54.5239 70.6034 53.4049V51.3705C70.6034 50.2515 71.5111 49.336 72.6206 49.336C73.7301 49.336 74.6379 50.2515 74.6379 51.3705V53.4049C74.6379 54.5239 73.7301 55.4394 72.6206 55.4394Z" fill="#623F33"/>
<path d="M58.5 69.7368C54.9137 69.7368 51.559 68.8467 49.2964 67.2942C48.3756 66.6625 48.136 65.3968 48.7636 64.4681C49.389 63.5403 50.6449 63.2987 51.5658 63.9307C53.1516 65.0184 55.744 65.6681 58.5 65.6681C61.2561 65.6681 63.8485 65.0184 65.4343 63.9307C66.3572 63.297 67.6101 63.5393 68.2365 64.4681C68.8638 65.3968 68.6245 66.6625 67.7037 67.2942C65.4414 68.8467 62.0864 69.7368 58.5 69.7368Z" fill="#E4B07B"/>
<path d="M86.7422 47.3015V43.2326H30.2597V47.3015C26.9174 47.3015 24.208 50.0341 24.208 53.4049C24.208 56.7758 26.9174 59.5084 30.2597 59.5084V61.5428C30.2597 66.4708 33.1976 70.9154 37.7078 72.8108L50.7417 78.2881C51.3796 78.5561 52.0307 78.787 52.6901 78.9872C46.9299 74.7374 43.0956 71.0222 40.8489 68.5931C39.2145 66.8256 38.3286 64.4933 38.3286 62.0764V47.3015H86.7422Z" fill="#FFD7A3"/>
<path d="M86.7412 41.1981H30.2587L28.9048 26.1786C28.5092 21.79 30.9604 17.6437 34.9765 15.9078L54.6293 7.41312C55.8523 6.88466 57.1688 6.61205 58.4992 6.61205H58.5007C59.831 6.61205 61.1475 6.88466 62.3705 7.41312L82.0234 15.9078C86.0394 17.6437 88.4906 21.79 88.095 26.1786L86.7412 41.1981Z" fill="#FFA64E"/>
<path d="M58.4999 6.61205H58.4992C57.1688 6.61205 55.852 6.88466 54.6293 7.41312L34.9765 15.9078C30.9604 17.6437 28.5092 21.79 28.9048 26.1786L30.2587 41.1981H58.4999V6.61205Z" fill="#FF8C51"/>
<path d="M83.5913 35.0947H32.7522C29.7531 35.0947 27.8024 38.2779 29.1436 40.9832L30.2587 43.2326H86.7412L87.5052 40.1506C88.1419 37.5823 86.216 35.0947 83.5913 35.0947Z" fill="#B97E63"/>
<path d="M42.3622 43.2326C42.3622 43.2326 50.179 47.0472 62.5345 49.336C62.5345 49.336 59.9499 46.8565 56.4828 43.2326H42.3622Z" fill="#E09156"/>
<path d="M60.5172 43.2326C60.5172 43.2326 65.5603 45.9028 70.6034 47.3015L68.5861 43.2326H60.5172Z" fill="#E09156"/>
<path d="M30.2588 43.2326V47.3015H31.7997C33.3278 47.3015 34.7249 46.4308 35.4083 45.0522L36.3105 43.2326H30.2588Z" fill="#E09156"/>
<path d="M86.7413 43.2326V47.3015H85.2004C83.6723 47.3015 82.2751 46.4308 81.5918 45.0522L80.6896 43.2326H86.7413Z" fill="#E09156"/>
</svg>
