<svg width="117" height="118" viewBox="0 0 117 118" fill="none" xmlns="http://www.w3.org/2000/svg">
<path d="M58.5 72.7315H36.655C34.751 79.4433 31.7642 86.7506 30.6752 92.9118L58.5 89.0074V72.7315Z" fill="#5E342E"/>
<path d="M80.3452 72.7315H58.5003H58.5V89.0074L86.3251 92.9118C85.2358 86.7506 82.2492 79.4433 80.3452 72.7315Z" fill="#6E4439"/>
<path d="M86.198 101.059L85.9188 100.094C85.784 99.6281 85.3339 99.3424 84.871 99.4019L83.8951 94.5636C83.5745 92.1386 82.0834 90.0315 79.9138 88.9374L76.761 87.3476C76.2914 87.1106 75.7529 87.3208 75.5231 87.7701L69.2836 85.4547C68.0881 85.0528 67.282 83.9246 67.282 82.6538V75.3496L73.587 72.7C76.8598 71.3249 78.9915 68.1 78.9915 64.5243V63.048C81.4167 63.048 83.3826 61.0653 83.3826 58.6195C83.3826 57.2986 82.8085 56.1136 81.8991 55.3021C81.9185 55.3058 81.9319 55.3082 81.9319 55.3082C88.6405 33.9033 70.5883 24.6669 65.8313 24.6669C61.0743 24.6669 58.5129 26.1431 58.5129 26.1431C58.5129 26.1431 55.9514 24.6669 51.1944 24.6669C46.4374 24.6669 28.3852 33.9033 35.0938 55.3082C34.1884 56.1193 33.6172 57.3019 33.6172 58.6195C33.6172 61.0653 35.5831 63.048 38.0082 63.048V64.5243C38.0082 68.0998 40.1399 71.3247 43.4125 72.7002L49.7177 75.3498V82.6538C49.7177 83.9246 48.9114 85.0528 47.7162 85.4547L41.477 87.7699C41.2498 87.3201 40.7124 87.1088 40.2435 87.3452L37.3684 88.795C34.9149 90.0322 33.4252 92.1388 33.1047 94.5636L32.1288 99.4019C31.6659 99.3424 31.216 99.6281 31.081 100.094L30.8018 101.059C30.6523 101.575 30.9463 102.116 31.4582 102.266L33.6172 102.902V107.334C33.6172 108.964 34.9279 110.286 36.5445 110.286H42.3993H74.6005H80.4552C82.0719 110.286 83.3826 108.964 83.3826 107.334V102.902L85.5414 102.266C86.0535 102.116 86.3475 101.575 86.198 101.059Z" fill="#C38762"/>
<path d="M67.282 75.2267H49.7178V82.6538C49.7178 83.7043 49.1658 84.6563 48.2994 85.182C60.5441 87.3153 67.282 75.2267 67.282 75.2267Z" fill="#A46D4D"/>
<path d="M85.0644 100.864L83.8953 94.5636C83.5748 92.1385 82.0836 90.0315 79.9141 88.9374L76.7613 87.3475C76.2272 87.0781 75.6037 87.3867 75.4469 87.9679C73.4178 95.4893 66.6003 98.4774 58.4997 98.4774C50.3973 98.4774 43.5783 95.4866 41.5511 87.9622C41.3952 87.3839 40.775 87.077 40.2437 87.345L37.3686 88.7948C34.9151 90.032 33.4254 92.1385 33.1049 94.5634L31.9135 101.032C35.7802 102.375 42.3993 104.382 42.3993 104.382V110.286H74.6005V104.382L85.0644 100.864Z" fill="#FFA64E"/>
<path d="M42.3631 103.931C42.2736 102.175 41.6925 100.479 40.6429 99.0677L33.7714 92.3705C33.4397 93.0595 33.2066 93.7928 33.1045 94.564L31.9443 100.797L42.3631 103.931Z" fill="#FF8C51"/>
<path d="M30.8018 101.059C30.6523 101.575 30.9463 102.116 31.4582 102.267L42.3993 105.486V104.382C42.3993 103.685 42.2906 103.002 42.132 102.331L32.2784 99.4326C31.7665 99.282 31.2304 99.5783 31.0811 100.095L30.8018 101.059Z" fill="#F77447"/>
<path d="M74.6367 103.931C74.7262 102.175 75.3073 100.479 76.3569 99.0677L83.2284 92.3705C83.5601 93.0595 83.7932 93.7928 83.8953 94.564L85.0555 100.797L74.6367 103.931Z" fill="#FF8C51"/>
<path d="M86.198 101.059C86.3475 101.575 86.0535 102.116 85.5415 102.267L74.6005 105.486V104.382C74.6005 103.685 74.7091 103.002 74.8678 102.331L84.7213 99.4326C85.2332 99.282 85.7693 99.5783 85.9186 100.095L86.198 101.059Z" fill="#F77447"/>
<path d="M86.7414 48.3177V44.2488C86.7414 38.6308 82.2255 34.0763 76.6552 34.0763H40.3448C34.7745 34.0763 30.2586 38.6308 30.2586 44.2488V48.3177C26.9163 48.3177 24.2069 51.0503 24.2069 54.4212C24.2069 57.7921 26.9163 60.5246 30.2586 60.5246V62.5591C30.2586 67.4869 33.1965 71.9315 37.7068 73.8271L50.7409 79.3044C53.1995 80.3377 55.8365 80.8694 58.4998 80.8694C61.163 80.8694 63.7998 80.3374 66.2583 79.3044L79.2932 73.8268C83.8035 71.9317 86.7414 67.4871 86.7414 62.5591V60.5246C90.0837 60.5246 92.7931 57.7921 92.7931 54.4212C92.7931 51.0503 90.0837 48.3177 86.7414 48.3177Z" fill="#D29771"/>
<path d="M44.3793 56.4557C43.2698 56.4557 42.3621 55.5401 42.3621 54.4212V52.3867C42.3621 51.2677 43.2698 50.3522 44.3793 50.3522C45.4888 50.3522 46.3965 51.2677 46.3965 52.3867V54.4212C46.3965 55.5401 45.4888 56.4557 44.3793 56.4557Z" fill="#623F33"/>
<path d="M72.6206 56.4557C71.5112 56.4557 70.6034 55.5401 70.6034 54.4212V52.3867C70.6034 51.2677 71.5112 50.3522 72.6206 50.3522C73.7301 50.3522 74.6379 51.2677 74.6379 52.3867V54.4212C74.6379 55.5401 73.7301 56.4557 72.6206 56.4557Z" fill="#623F33"/>
<path d="M58.5 70.7531C54.9136 70.7531 51.5589 69.863 49.2963 68.3105C48.3754 67.6788 48.1359 66.4131 48.7635 65.4843C49.3888 64.5566 50.6448 64.315 51.5657 64.947C53.1515 66.0346 55.7439 66.6844 58.5 66.6844C61.256 66.6844 63.8484 66.0346 65.4342 64.947C66.3571 64.3132 67.6101 64.5556 68.2364 65.4843C68.8638 66.4131 68.6245 67.6788 67.7036 68.3105C65.4413 69.863 62.0864 70.7531 58.5 70.7531Z" fill="#A46D4D"/>
<path d="M57.9957 29.2444C56.2306 42.7229 30.2586 48.3177 30.2586 48.3177C26.9163 48.3177 24.2069 51.0503 24.2069 54.4212C24.2069 57.7921 26.9163 60.5246 30.2586 60.5246V62.5591C30.2586 67.4871 33.1965 71.9317 37.7068 73.8271L50.7407 79.3044C51.3786 79.5725 52.0297 79.8034 52.6891 80.0035C46.9289 75.7537 43.0946 72.0385 40.8479 69.6093C39.2134 67.8419 38.3276 65.5096 38.3276 63.0926V51.7285C44.0863 49.7032 60.076 41.7057 60.5351 32.0419C60.5354 32.0396 57.9957 29.2444 57.9957 29.2444Z" fill="#C38762"/>
<path d="M68.604 7.62807C62.048 7.62807 58.5178 9.66255 58.5178 9.66255C58.5178 9.66255 54.9877 7.62807 48.4316 7.62807C41.8756 7.62807 16.9962 20.3576 26.242 49.8576C26.242 49.8576 58.5178 44.0791 58.5178 30.0074C58.5178 44.0791 90.7937 49.8576 90.7937 49.8576C100.039 20.3576 75.1601 7.62807 68.604 7.62807Z" fill="#6E4439"/>
<path d="M58.5178 9.66357V9.66255C58.5178 9.66255 54.9877 7.62807 48.4316 7.62807C41.8756 7.62807 16.9962 20.3576 26.242 49.8576C26.242 49.8576 30.1491 49.1564 35.2414 47.6527C29.5424 21.2001 52.2624 9.68391 58.5178 9.66357Z" fill="#5E342E"/>
</svg>
