<svg width="118" height="118" viewBox="0 0 118 118" fill="none" xmlns="http://www.w3.org/2000/svg">
<path d="M61.1071 78.3311C57.0481 78.3582 49.4174 78.8224 46.3264 79.8079L61.1071 93.48L75.8877 79.8079C72.7969 78.8225 65.166 78.3582 61.1071 78.3311Z" fill="#4E87BB"/>
<path d="M90.0454 107.341L88.1746 92.3736C87.8921 90.1144 86.3375 88.2181 84.1775 87.4981L78.83 85.7157C78.8443 85.6296 79.0323 84.316 77.4436 83.2569C76.1503 82.3947 77.844 80.8242 75.8732 79.808L70.9152 84.2701C70.3299 83.7231 69.9755 82.9489 69.9755 82.1114V74.7104L76.3424 72.0576C79.6474 70.6808 81.8 67.4518 81.8 63.8715V62.3935C84.249 62.3935 86.2342 60.4082 86.2342 57.9593C86.2342 56.6545 85.6705 55.4816 84.7737 54.6702L85.3335 44.0331C85.8231 34.7309 78.4125 26.9199 69.0973 26.9199H53.117C50.0537 26.9199 47.381 27.7646 44.9428 29.2293C44.381 29.5668 43.1848 31.6312 43.1848 31.6312C43.1848 31.6312 42.1047 31.2215 41.7067 31.6016C38.4058 34.7542 36.6205 39.0908 36.8807 44.0331L37.4405 54.6702C36.5437 55.4816 35.98 56.6547 35.98 57.9594C35.98 60.4084 37.9652 62.3936 40.4142 62.3936V63.8717C40.4142 67.4518 42.5668 70.6808 45.8716 72.058L52.2387 74.7107V82.1116C52.2387 82.9524 51.8816 83.7295 51.2918 84.277L46.3264 79.808C44.3556 80.8242 46.0493 82.3947 44.756 83.2569C43.1133 84.352 43.3701 85.7192 43.3703 85.7203L38.0367 87.4982C35.8767 88.2182 34.3221 90.1146 34.0396 92.3738L32.1688 107.341C31.8381 109.988 33.9016 112.326 36.5688 112.326H85.6454C88.3127 112.326 90.3763 109.988 90.0454 107.341Z" fill="#F6B47B"/>
<path d="M90.0454 107.342L88.1745 92.3739C87.8921 90.1147 86.3375 88.2183 84.1777 87.4983L75.8329 84.7166C75.1674 84.4947 74.425 84.7642 74.0899 85.3804C71.5862 89.9831 61.6793 93.1107 61.1071 93.1107C60.5349 93.1107 50.628 89.9831 48.1245 85.3804C47.7893 84.7642 47.0468 84.4949 46.3815 84.7166L38.0367 87.4983C35.8767 88.2183 34.3221 90.1147 34.0398 92.3739L32.1689 107.342C31.838 109.988 33.9016 112.326 36.5688 112.326H85.6454C88.3126 112.326 90.3763 109.988 90.0454 107.342Z" fill="#8DB9E2"/>
<path d="M35.272 89.4463C34.6157 90.2772 34.1763 91.281 34.0398 92.3735L32.1689 107.341C31.838 109.988 33.9016 112.325 36.5688 112.325H44.8484V102.706C44.8484 101.283 44.3358 99.9092 43.4048 98.8343L35.272 89.4463Z" fill="#6AA2DE"/>
<path d="M86.9422 89.4463C87.5985 90.2772 88.0379 91.281 88.1744 92.3735L90.0453 107.341C90.3763 109.988 88.3128 112.325 85.6454 112.325H77.3658V102.706C77.3658 101.283 77.8784 99.9092 78.8094 98.8343L86.9422 89.4463Z" fill="#6AA2DE"/>
<path d="M69.9756 74.7106L52.2388 70.7689V82.1114C52.2388 83.1755 51.6501 84.1126 50.7576 84.6351C63.1537 86.8049 69.9756 74.7106 69.9756 74.7106Z" fill="#E2A071"/>
<path d="M77.4437 83.2568C76.1504 82.3945 77.8441 80.8241 75.8732 79.8079L61.1 93.1038L46.3265 79.8079C44.3557 80.8241 46.0494 82.3945 44.7561 83.2568C43.1128 84.3524 43.3704 85.7202 43.3704 85.7202L61.0926 94.5812V94.5886L61.1 94.5849L61.1072 94.5886V94.5812L78.8294 85.7202C78.8294 85.7202 79.0871 84.3524 77.4437 83.2568Z" fill="#6AA2DE"/>
<path d="M85.2402 9.11727C81.8258 6.98353 77.8805 5.85199 73.8542 5.85199H73.6941V50.102H92.6584L95.1711 29.9993C96.2086 21.6988 92.3336 13.5507 85.2402 9.11727Z" fill="#734A3E"/>
<path d="M88.5 43.7771V39.5628C88.5 33.7442 83.7829 29.0271 77.9643 29.0271H40.0357C34.2169 29.0271 29.5 33.7442 29.5 39.5628V43.7771C26.0087 43.7771 23.1786 46.6072 23.1786 50.0985C23.1786 53.5898 26.0087 56.4199 29.5 56.4199V58.5271C29.5 63.6308 32.5688 68.2341 37.2801 70.1975L50.8952 75.8704C53.4632 76.9406 56.2178 77.4914 58.9997 77.4914C61.7817 77.4914 64.536 76.9403 67.1041 75.8704L80.7199 70.1972C85.4312 68.2344 88.5 63.6311 88.5 58.5271V56.4199C91.9913 56.4199 94.8214 53.5898 94.8214 50.0985C94.8214 46.6072 91.9913 43.7771 88.5 43.7771Z" fill="#FDC88E"/>
<path d="M44.25 52.2057C43.091 52.2057 42.1428 51.2575 42.1428 50.0985V47.9914C42.1428 46.8325 43.091 45.8842 44.25 45.8842C45.4089 45.8842 46.3571 46.8325 46.3571 47.9914V50.0985C46.3571 51.2575 45.4089 52.2057 44.25 52.2057Z" fill="#623F33"/>
<path d="M73.75 52.2057C72.591 52.2057 71.6428 51.2575 71.6428 50.0985V47.9914C71.6428 46.8325 72.591 45.8842 73.75 45.8842C74.9089 45.8842 75.8571 46.8325 75.8571 47.9914V50.0985C75.8571 51.2575 74.9089 52.2057 73.75 52.2057Z" fill="#623F33"/>
<path d="M59 67.0133C55.2538 67.0133 51.7496 66.0914 49.3862 64.4834C48.4243 63.8291 48.1743 62.5182 48.8296 61.5563C49.4829 60.5955 50.7948 60.3452 51.7567 60.9998C53.4132 62.1263 56.1212 62.7993 59 62.7993C61.8789 62.7993 64.5869 62.1263 66.2433 60.9998C67.2074 60.3434 68.5162 60.5944 69.1704 61.5563C69.8258 62.5182 69.5758 63.8291 68.6139 64.4834C66.2507 66.0914 62.7463 67.0133 59 67.0133Z" fill="#E2A071"/>
<path d="M21.924 23.651C21.929 23.6955 21.9342 23.74 21.9398 23.7843L25.2295 50.1019H37.8724V12.1734H32.6551C26.4324 12.1734 21.2233 17.4678 21.924 23.651Z" fill="#623F33"/>
<path d="M77.9084 29.0306H39.9798C39.2571 29.0306 38.5528 29.1062 37.8727 29.2469V29.2429C33.0639 30.2193 29.4441 34.4694 29.4441 39.5663V43.7806C25.9528 43.7806 23.1227 46.6108 23.1227 50.102C23.1227 53.5933 25.9528 56.4235 29.4441 56.4235V58.5306C29.4441 63.6346 32.5129 68.238 37.2242 70.201L50.839 75.874C51.5054 76.1516 52.1854 76.3908 52.8742 76.5981C46.8573 72.1965 42.8521 68.3486 40.5053 65.8327C38.798 64.0021 37.8727 61.5865 37.8727 59.0832V35.1993C49.5715 44.5344 74.8019 43.7801 88.4441 43.7801V39.5663C88.4441 33.7477 83.727 29.0306 77.9084 29.0306Z" fill="#F6B47B"/>
<path d="M73.6941 5.85202H44.1941C37.2116 5.85202 31.5513 11.5123 31.5513 18.4949C31.5513 30.6768 43.1398 38.0529 52.6227 41.6735C52.6227 41.6735 51.5652 39.743 50.1408 36.89C58.5512 39.7035 71.5409 41.6735 89.2343 41.6735C89.2343 41.6735 89.2343 37.1299 89.2343 35.6154C89.2343 4.88616 73.6941 5.85202 73.6941 5.85202Z" fill="#734A3E"/>
</svg>
