<svg width="118" height="117" viewBox="0 0 118 117" fill="none" xmlns="http://www.w3.org/2000/svg">
<path d="M86.9337 105.631L85.204 92.7837C84.8346 90.0411 82.9622 87.7262 80.3399 86.7707L70.0962 83.0381C68.8662 82.632 68.0366 81.4922 68.0366 80.2082V75.3978L74.5243 72.7208C77.8919 71.3315 80.0853 68.0732 80.0853 64.4605V62.969C82.5807 62.969 84.6036 60.9658 84.6036 58.4946C84.6036 56.0235 82.5807 54.0202 80.0853 54.0202V51.0373C80.0853 46.9188 76.7137 40.597 72.5549 40.597H45.4451C41.2861 40.597 37.9147 46.9188 37.9147 51.0373V54.0202C35.4192 54.0202 33.3964 56.0235 33.3964 58.4946C33.3964 60.9658 35.4192 62.969 37.9147 62.969V64.4605C37.9147 68.073 40.1081 71.3314 43.4755 72.721L49.9634 75.398V80.2082C49.9634 81.4922 49.1337 82.632 47.9038 83.0381L37.6601 86.7707C35.0378 87.7262 33.1654 90.0411 32.796 92.7837L31.0663 105.631C30.7052 108.313 32.8122 110.696 35.5448 110.696H82.4552C85.1878 110.696 87.295 108.313 86.9337 105.631Z" fill="#F6B47B"/>
<path d="M67.3922 75.8148L50.0237 72.1164V80.2877C50.0237 81.2861 49.4473 82.1654 48.5732 82.6556C60.712 84.6916 67.3922 75.8148 67.3922 75.8148Z" fill="#E2A071"/>
<path d="M76.2894 85.1034L70.8699 93.7009C70.0441 95.0107 68.5962 95.8065 67.0384 95.8065H50.9615C49.4037 95.8065 47.9558 95.0107 47.13 93.7009L41.7107 85.1034C41.2755 84.4129 40.3628 84.1955 39.6587 84.6143L34.7115 87.5575C33.9892 87.9872 33.7627 88.9211 34.2093 89.6295L40.9268 100.286H77.0731L83.7907 89.6293C84.2372 88.9209 84.0107 87.9872 83.2884 87.5573L78.3412 84.6142C77.6373 84.1955 76.7244 84.4131 76.2894 85.1034Z" fill="#F23F44"/>
<path d="M77.0732 100.286H40.9269V110.74H77.0732V100.286Z" fill="#FF4F4F"/>
<path d="M89.5152 56.4828H85.4463C85.4463 56.4828 83.5084 61.8012 83.4118 68.586C83.3576 72.3859 84.3507 76.6463 85.4463 80.6897H89.5152C90.6108 76.6461 91.6039 72.3859 91.5497 68.586C91.4531 61.8012 89.5152 56.4828 89.5152 56.4828Z" fill="#6E4439"/>
<path d="M32.5517 56.4828H28.4828C28.4828 56.4828 26.5449 61.8012 26.4483 68.586C26.3941 72.3859 27.3872 76.6463 28.4828 80.6897H32.5517C33.6473 76.6461 34.6404 72.3859 34.5862 68.586C34.4896 61.8012 32.5517 56.4828 32.5517 56.4828Z" fill="#5E342E"/>
<path d="M29.5489 43.4489H18.3124C16.873 43.4489 15.8888 44.8902 16.4234 46.2153L18.4892 51.3358C18.9546 52.4891 20.3505 52.9556 21.4249 52.3164L29.5489 47.4833V43.4489Z" fill="#F23F44"/>
<path d="M29.5489 43.4488H18.3124C16.873 43.4488 15.8888 42.0075 16.4234 40.6824L18.4892 35.5619C18.9546 34.4086 20.3505 33.9421 21.4249 34.5813L29.5489 39.4144V43.4488Z" fill="#FF4F4F"/>
<path d="M88.4514 43.4489H99.6879C101.127 43.4489 102.111 44.8902 101.577 46.2153L99.5111 51.3358C99.0457 52.4891 97.6498 52.9556 96.5754 52.3164L88.4514 47.4833V43.4489Z" fill="#F23F44"/>
<path d="M88.4514 43.4488H99.6879C101.127 43.4488 102.111 42.0075 101.577 40.6824L99.5111 35.5619C99.0457 34.4086 97.6498 33.9421 96.5754 34.5813L88.4514 39.4144V43.4488Z" fill="#FF4F4F"/>
<path d="M30.5173 46.3966C27.1464 46.3966 24.4138 49.1062 24.4138 52.4483C24.4138 55.7906 27.1464 58.5 30.5173 58.5V60.5172C30.5173 65.4035 33.4802 69.8104 38.0291 71.6897L51.1749 77.1209C53.6542 78.1452 56.3137 78.6727 58.9998 78.6727C61.6858 78.6727 64.3451 78.1452 66.8246 77.1209L79.971 71.6897C84.5198 69.8104 87.4828 65.4035 87.4828 60.5172V58.5C90.8537 58.5 93.5862 55.7906 93.5862 52.4483C93.5862 49.106 90.8537 46.3966 87.4828 46.3966V39.8405C87.4828 33.4345 82.2453 28.2414 75.7845 28.2414H42.2155C35.7548 28.2414 30.5173 33.4345 30.5173 39.8405V46.3966Z" fill="#FDC88E"/>
<path d="M44.7587 54.4655C43.6398 54.4655 42.7242 53.5578 42.7242 52.4483V50.431C42.7242 49.3216 43.6398 48.4138 44.7587 48.4138C45.8777 48.4138 46.7932 49.3216 46.7932 50.431V52.4483C46.7932 53.5578 45.8777 54.4655 44.7587 54.4655Z" fill="#623F33"/>
<path d="M73.2414 54.4655C72.1224 54.4655 71.2069 53.5578 71.2069 52.4483V50.431C71.2069 49.3216 72.1224 48.4138 73.2414 48.4138C74.3604 48.4138 75.2759 49.3216 75.2759 50.431V52.4483C75.2759 53.5578 74.3604 54.4655 73.2414 54.4655Z" fill="#623F33"/>
<path d="M59 68.6414C55.3829 68.6414 51.9996 67.7589 49.7177 66.2195C48.7889 65.5931 48.5473 64.3382 49.1803 63.4173C49.811 62.4974 51.0777 62.2579 52.0065 62.8845C53.6058 63.963 56.2204 64.6072 59 64.6072C61.7796 64.6072 64.3942 63.963 65.9935 62.8845C66.9243 62.2561 68.188 62.4964 68.8197 63.4173C69.4524 64.3382 69.2111 65.5931 68.2823 66.2195C66.0006 67.7589 62.617 68.6414 59 68.6414Z" fill="#E2A071"/>
<path d="M30.5173 46.3966C27.1464 46.3966 24.4138 49.106 24.4138 52.4483C24.4138 55.7906 27.1464 58.5 30.5173 58.5V60.5172C30.5173 65.4035 33.4802 69.8104 38.0291 71.6897L51.1744 77.1207C51.8178 77.3864 52.4744 77.6154 53.1394 77.8138C47.33 73.6001 43.4629 69.9163 41.197 67.5077C39.5486 65.7553 38.6552 63.4427 38.6552 61.0463V49.7722C44.4789 47.7567 60.8255 41.1363 61.0345 30.2586L58.4914 27.7371C58.4914 27.7371 57.3895 42.1939 30.5173 46.3966Z" fill="#F6B47B"/>
<path d="M69.1725 6.05172C62.5604 6.05172 59 8.06896 59 8.06896C59 8.06896 55.4397 6.05172 48.8276 6.05172C42.2156 6.05172 17.1235 18.6733 26.4483 47.9234C26.4483 47.9234 59 42.1939 59 28.2414C59 42.1939 91.5518 47.9234 91.5518 47.9234C100.877 18.6733 75.7845 6.05172 69.1725 6.05172Z" fill="#6E4439"/>
<path d="M59.0001 8.06997V8.06896C59.0001 8.06896 55.4397 6.05172 48.8277 6.05172C42.2156 6.05172 17.1238 18.6733 26.4484 47.9234C26.4484 47.9234 30.3889 47.2282 35.5247 45.7372C29.777 19.5087 52.6912 8.09015 59.0001 8.06997Z" fill="#5E342E"/>
<path d="M32.5518 84.7241H28.4828C27.3593 84.7241 26.4484 83.8209 26.4484 82.7069C26.4484 81.5929 27.3593 80.6897 28.4828 80.6897H32.5518C33.6754 80.6897 34.5863 81.5929 34.5863 82.7069C34.5863 83.8212 33.6754 84.7241 32.5518 84.7241Z" fill="#F23F44"/>
<path d="M32.5518 84.7241C32.5518 84.7241 36.1122 90.7759 30.5173 98.8448C24.9225 90.7759 28.4829 84.7241 28.4829 84.7241" fill="#5E342E"/>
<path d="M85.4462 84.7241H89.5152C90.6387 84.7241 91.5497 83.8209 91.5497 82.7069C91.5497 81.5929 90.6387 80.6897 89.5152 80.6897H85.4462C84.3227 80.6897 83.4117 81.5929 83.4117 82.7069C83.4117 83.8212 84.3227 84.7241 85.4462 84.7241Z" fill="#FF4F4F"/>
<path d="M85.4462 84.7241C85.4462 84.7241 81.8859 90.7759 87.4807 98.8448C93.0756 90.7759 89.5152 84.7241 89.5152 84.7241" fill="#6E4439"/>
</svg>
