<svg width="117" height="117" viewBox="0 0 117 117" fill="none" xmlns="http://www.w3.org/2000/svg">
<path d="M92.7877 102.975L92.6617 101.841C92.6119 101.393 92.2079 101.07 91.7593 101.119L91.6887 101.127L90.4697 91.3757C90.2045 89.2545 88.7449 87.474 86.7168 86.798L79.9433 84.5401C79.0131 84.2299 77.9928 84.4275 77.2755 85.0386L75.2802 84.3735C74.1467 83.9957 73.3824 82.9351 73.3824 81.7404V77.2645L79.3604 74.7736C82.4633 73.4807 84.4846 70.4489 84.4846 67.0874V65.6996C86.784 65.6996 88.6479 63.8357 88.6479 61.5363C88.6479 59.237 86.784 57.373 84.4846 57.373V51.8219C84.4846 47.9897 81.3779 44.883 77.5457 44.883H52.5658C48.7337 44.883 45.627 47.9897 45.627 51.8219V57.373C43.3276 57.373 41.4636 59.237 41.4636 61.5363C41.4636 63.8357 43.3276 65.6996 45.627 65.6996V67.0874C45.627 70.4488 47.6481 73.4805 50.751 74.7736L56.7291 77.2645V81.7402C56.7291 82.9349 55.9647 83.9955 54.8314 84.3733L52.8361 85.0384C52.1188 84.4273 51.0984 84.2297 50.1683 84.5399L43.3947 86.7978C41.3667 87.4738 39.9071 89.2543 39.6418 91.3755L38.4229 101.127L38.3522 101.119C37.9037 101.069 37.4998 101.393 37.4498 101.841L37.3239 102.975C37.2741 103.423 37.5973 103.828 38.0457 103.877L40.0757 104.103V107.333C40.0757 108.866 41.3183 110.109 42.8512 110.109H87.26C88.7929 110.109 90.0355 108.866 90.0355 107.333V104.103L92.0655 103.877C92.5143 103.828 92.8374 103.424 92.7877 102.975Z" fill="#A2795C"/>
<path d="M56.7294 81.7407C56.7294 82.7283 56.2061 83.6232 55.3845 84.1175C66.9943 86.1233 73.3827 77.2648 73.3827 77.2648L56.7294 77.265V81.7407Z" fill="#8F6951"/>
<path d="M80.3215 110.109V103.17H91.9441L90.4698 91.3757C90.2046 89.2544 88.745 87.4739 86.7169 86.7979L79.9434 84.54C78.7638 84.1467 77.4367 84.5667 76.7704 85.6166C74.3106 89.4926 69.9866 92.0675 65.056 92.0675C60.1254 92.0675 55.8015 89.4925 53.3415 85.6164C52.6752 84.5666 51.3481 84.1466 50.1685 84.5398L43.395 86.7977C41.3669 87.4738 39.9073 89.2543 39.6421 91.3755L38.3221 101.935L49.7903 103.17V110.109L80.3215 110.109Z" fill="#F23F44"/>
<path d="M49.7904 104.217V101.077C49.7904 99.7413 49.3092 98.451 48.4351 97.4418L40.799 88.6271C40.1829 89.4072 39.7704 90.3497 39.6422 91.3754L38.1926 102.972C40.3999 103.104 46.2709 103.792 49.7904 104.217Z" fill="#FF4F4F"/>
<path d="M49.7904 102.39L38.3524 101.119C37.9038 101.07 37.4999 101.393 37.45 101.841L37.324 102.975C37.2742 103.423 37.5974 103.827 38.0458 103.877L49.7902 105.182L49.7904 102.39Z" fill="#C93F44"/>
<path d="M80.3214 104.217V101.077C80.3214 99.7413 80.8026 98.451 81.6767 97.4418L89.3128 88.6271C89.929 89.4072 90.3415 90.3497 90.4697 91.3754L91.9192 102.972C89.712 103.104 83.841 103.792 80.3214 104.217Z" fill="#FF4F4F"/>
<path d="M80.3214 102.39L91.7594 101.119C92.208 101.07 92.6119 101.393 92.6618 101.841L92.7878 102.975C92.8376 103.423 92.5144 103.827 92.066 103.877L80.3216 105.182V102.39H80.3214Z" fill="#C93F44"/>
<path d="M36.8145 35.0495L14.0271 36.9064C12.9398 36.9969 12.1034 37.9059 12.1034 38.997V39.003C12.1034 40.1617 13.0427 41.101 14.2013 41.101H36.8145V35.0495Z" fill="#C93F44"/>
<path d="M92.8201 47.1529V39.084C92.8201 33.5136 88.3043 28.9978 82.734 28.9978H46.4237C40.8533 28.9978 36.3375 33.5136 36.3375 39.084V47.1537C36.3284 47.1537 36.3193 47.1529 36.3103 47.1529C32.9679 47.1529 30.2585 49.8623 30.2585 53.2046C30.2585 56.5469 32.9679 59.2563 36.3103 59.2563C36.3193 59.2563 36.3284 59.2556 36.3375 59.2556V61.2736C36.3375 66.1596 39.2753 70.5665 43.7856 72.446L56.8198 77.877C59.2783 78.9015 61.9151 79.4287 64.5786 79.4287C67.2418 79.4287 69.8786 78.9015 72.3371 77.877L85.372 72.4458C89.8823 70.5665 92.8204 66.1596 92.8204 61.2733V59.2561C96.1627 59.2561 98.8721 56.5467 98.8721 53.2044C98.8718 49.8623 96.1624 47.1529 92.8201 47.1529Z" fill="#AD8366"/>
<path d="M46.9268 68.2641C45.2924 66.5116 44.4065 64.1991 44.4065 61.8026V39.3364H36.3376V47.1532C32.9953 47.1532 30.2859 49.8626 30.2859 53.2049C30.2859 56.5472 32.9953 59.2566 36.3376 59.2566V61.2739C36.3376 66.1601 39.2755 70.567 43.7857 72.4463L56.8196 77.8772C57.4576 78.143 58.1086 78.372 58.768 78.5704C53.0078 74.3562 49.1735 70.6727 46.9268 68.2641Z" fill="#A2795C"/>
<path d="M50.4582 55.2219C49.3487 55.2219 48.4409 54.3141 48.4409 53.2046V51.1874C48.4409 50.0779 49.3487 49.1702 50.4582 49.1702C51.5676 49.1702 52.4754 50.0779 52.4754 51.1874V53.2046C52.4754 54.3141 51.5676 55.2219 50.4582 55.2219Z" fill="#623F33"/>
<path d="M78.6995 55.2219C77.59 55.2219 76.6823 54.3141 76.6823 53.2046V51.1874C76.6823 50.0779 77.59 49.1702 78.6995 49.1702C79.809 49.1702 80.7167 50.0779 80.7167 51.1874V53.2046C80.7167 54.3141 79.809 55.2219 78.6995 55.2219Z" fill="#623F33"/>
<path d="M64.5789 69.3977C60.9925 69.3977 57.6379 68.5151 55.3753 66.9757C54.4544 66.3494 54.2149 65.0944 54.8425 64.1736C55.4678 63.2537 56.7238 63.0142 57.6447 63.6408C59.2305 64.7192 61.8229 65.3635 64.5789 65.3635C67.335 65.3635 69.9274 64.7192 71.5132 63.6408C72.4361 63.0124 73.689 63.2527 74.3154 64.1736C74.9427 65.0944 74.7035 66.3494 73.7826 66.9757C71.52 68.5151 68.1653 69.3977 64.5789 69.3977Z" fill="#8F6951"/>
<path d="M88.1023 16.0252L68.4494 7.60247C67.2267 7.07849 65.91 6.80818 64.5796 6.80818H64.5781C63.2477 6.80818 61.931 7.07849 60.7083 7.60247L41.0553 16.0252C37.0393 17.7464 34.5881 21.8578 34.9837 26.2092L36.3375 41.1015H70.6305C71.7446 41.1015 72.6478 40.1982 72.6478 39.0842V33.0325C72.6478 31.9185 73.551 31.0153 74.665 31.0153H86.7684C87.8825 31.0153 88.7857 31.9185 88.7857 33.0325V39.0842C88.7857 40.1982 89.6889 41.1015 90.8029 41.1015H92.8202L94.174 26.2092C94.5696 21.8575 92.1184 17.7464 88.1023 16.0252Z" fill="#FF4F4F"/>
<path d="M64.5788 6.80818H64.5781C63.2477 6.80818 61.9309 7.07849 60.7082 7.60247L41.0553 16.0252C37.0393 17.7464 34.5881 21.8575 34.9837 26.209L36.3375 41.1012H52.4754V23.9249C52.4754 20.715 53.7505 17.6365 56.0204 15.3666L64.5788 6.80818Z" fill="#F23F44"/>
<path d="M88.7857 35.0495H72.6478V39.084H88.7857V35.0495Z" fill="#F23F44"/>
</svg>
