<svg width="117" height="117" viewBox="0 0 117 117" fill="none" xmlns="http://www.w3.org/2000/svg">
<path d="M90.776 24.4574C84.4719 11.0932 72.6207 6.30232 58.5001 6.30232C44.3794 6.30232 32.5282 11.0932 26.2243 24.4574C19.9205 37.8216 23.7028 46.3948 16.1382 66.8193C16.1382 66.8193 29.7545 80.9399 58.5001 80.9399C87.2456 80.9399 100.862 66.8193 100.862 66.8193C93.2976 46.3948 97.0799 37.8216 90.776 24.4574Z" fill="#9D6E48"/>
<path d="M58.5001 6.30232C44.3794 6.30232 32.5282 11.0932 26.2243 24.4574C19.9205 37.8216 23.7028 46.3948 16.1382 66.8193C16.1382 66.8193 28.7988 79.8675 55.3845 80.8451L55.2221 54.7159C55.2221 54.7159 42.3622 52.0052 42.3622 42.6125C42.3622 21.4076 55.3063 6.30232 58.5001 6.30232Z" fill="#8D5F3D"/>
<path d="M86.1967 105.496L84.4816 92.6336C84.3183 91.4083 83.8567 90.2697 83.1662 89.2979C83.4861 88.6145 83.2457 87.7842 82.5823 87.3861L77.6771 84.4429C76.979 84.024 76.074 84.2415 75.6425 84.932L75.5392 85.0972L69.5019 82.8759C68.2824 82.4693 67.4598 81.328 67.4598 80.0425V75.2261L73.8925 72.5458C77.2314 71.1548 79.4062 67.8924 79.4062 64.2752V62.7819C81.8804 62.7819 83.8862 60.7762 83.8862 58.3019C83.8862 55.8277 81.8804 53.822 79.4062 53.822V50.8353C79.4062 46.7115 76.0632 43.3687 71.9396 43.3687H45.0598C40.936 43.3687 37.5932 46.7115 37.5932 50.8353V53.822C35.1189 53.822 33.1132 55.8277 33.1132 58.3019C33.1132 60.7762 35.1189 62.7819 37.5932 62.7819V64.2752C37.5932 67.8922 39.768 71.1546 43.1069 72.546L49.5397 75.2265V80.0427C49.5397 81.3282 48.7171 82.4695 47.4976 82.8761L41.4603 85.0974L41.3571 84.9322C40.9255 84.2419 40.0206 84.0242 39.3224 84.4431L34.4172 87.3863C33.7537 87.7844 33.5134 88.6147 33.8334 89.2981C33.1431 90.2699 32.6813 91.4085 32.5179 92.6338L30.8028 105.497C30.4448 108.182 32.534 110.569 35.2434 110.569H81.7559C84.4654 110.568 86.5547 108.182 86.1967 105.496Z" fill="#FFD7A3"/>
<path d="M67.4597 75.2263L49.5398 75.2265V80.0427C49.5398 81.1053 48.9766 82.0684 48.0928 82.6002C60.585 84.7584 67.4593 75.2271 67.4597 75.2263Z" fill="#FDC88E"/>
<path d="M75.6425 84.9321L74.4934 86.7708C71.0468 92.2852 65.0028 95.6351 58.4999 95.6351C51.9971 95.6351 45.953 92.2852 42.5064 86.7708L41.3573 84.9321C40.9258 84.2416 40.0208 84.0242 39.3227 84.443L34.4175 87.3862C33.7013 87.8159 33.4767 88.7498 33.9195 89.4582L40.5799 100.115H76.4196L83.0802 89.4582C83.523 88.7498 83.2984 87.8161 82.5822 87.3862L77.677 84.443C76.979 84.0242 76.0741 84.2418 75.6425 84.9321Z" fill="#C38762"/>
<path d="M81.6377 86.8195L79.0756 85.2822L71.9985 96.6059C70.6342 98.7891 68.2413 100.115 65.6669 100.115H51.3328C48.7583 100.115 46.3655 98.7891 45.0011 96.6059L37.9241 85.2822L35.3619 86.8195L42.2435 97.8306C42.8651 98.8251 42.15 100.115 40.9772 100.115H40.5798V110.569H76.4195V100.115H76.0223C74.8495 100.115 74.1344 98.8251 74.756 97.8306L81.6377 86.8195Z" fill="#8D5F3D"/>
<path d="M86.7414 46.647V42.6126C86.7414 37.042 82.2255 32.5264 76.6552 32.5264H40.345C34.7744 32.5264 30.2589 37.042 30.2589 42.6126V46.647C26.9165 46.647 24.2072 49.3564 24.2072 52.6987C24.2072 56.041 26.9165 58.7504 30.2589 58.7504V60.7677C30.2589 65.6536 33.1967 70.0605 37.707 71.9401L50.7411 77.371C53.1996 78.3955 55.8366 78.9227 58.4999 78.9227C61.1631 78.9227 63.7999 78.3955 66.2584 77.371L79.2932 71.9398C83.8035 70.0608 86.7414 65.6539 86.7414 60.7677V58.7504C90.0837 58.7504 92.7931 56.041 92.7931 52.6987C92.7931 49.3564 90.0837 46.647 86.7414 46.647Z" fill="#FFE1B2"/>
<path d="M44.3794 54.7159C43.2699 54.7159 42.3622 53.8082 42.3622 52.6987V50.6815C42.3622 49.572 43.2699 48.6642 44.3794 48.6642C45.4889 48.6642 46.3966 49.572 46.3966 50.6815V52.6987C46.3966 53.8082 45.4889 54.7159 44.3794 54.7159Z" fill="#623F33"/>
<path d="M72.6208 54.7159C71.5113 54.7159 70.6035 53.8082 70.6035 52.6987V50.6815C70.6035 49.572 71.5113 48.6642 72.6208 48.6642C73.7302 48.6642 74.638 49.572 74.638 50.6815V52.6987C74.638 53.8082 73.7302 54.7159 72.6208 54.7159Z" fill="#623F33"/>
<path d="M58.5 68.8913C54.9137 68.8913 51.559 68.0087 49.2964 66.4694C48.3756 65.843 48.136 64.588 48.7636 63.6672C49.389 62.7473 50.6449 62.5078 51.5658 63.1344C53.1516 64.2128 55.744 64.8571 58.5 64.8571C61.2561 64.8571 63.8485 64.2128 65.4343 63.1344C66.3572 62.506 67.6101 62.7463 68.2365 63.6672C68.8638 64.588 68.6245 65.843 67.7037 66.4694C65.4414 68.0087 62.0864 68.8913 58.5 68.8913Z" fill="#E4B07B"/>
<path d="M38.3278 32.7293C33.7242 33.664 30.2589 37.7328 30.2589 42.6122V46.6467C26.9165 46.6467 24.2072 49.3561 24.2072 52.6984C24.2072 56.0407 26.9165 58.7501 30.2589 58.7501V60.7673C30.2589 65.6533 33.1967 70.0605 37.707 71.9398L50.7408 77.3707C51.3788 77.6364 52.0298 77.8654 52.6892 78.0638C46.929 73.8501 43.0948 70.1664 40.8481 67.7578C39.2136 66.0053 38.3278 63.6928 38.3278 61.2963V46.6182C46.4058 46.4127 68.0731 44.9139 76.6552 36.5605C78.4268 34.8363 79.1803 33.6164 79.2355 32.7727L38.3278 32.7293Z" fill="#FFD7A3"/>
<path d="M34.2933 34.5436V42.6126C34.2933 42.6126 48.6654 42.7991 62.5343 41.0149L68.5863 36.5609L68.5873 40.0905C75.2366 38.8933 81.2217 37.1322 84.7242 34.5436C84.7242 31.2013 82.0148 28.4919 78.6725 28.4919H40.345C37.0027 28.4919 34.2933 31.2013 34.2933 34.5436Z" fill="#9D6E48"/>
<path d="M90.7251 8.37006C87.9678 5.61275 83.4976 5.61275 80.7403 8.37006C79.2934 9.81692 77.4888 12.8569 76.494 15.8199C71.2638 12.2903 65.0412 10.3366 58.5001 10.3366C51.9589 10.3366 45.7363 12.29 40.5058 15.8199C39.5111 12.8569 37.7067 9.81692 36.2598 8.37006C33.5025 5.61275 29.0323 5.61275 26.275 8.37006C23.5177 11.1274 23.5177 15.5978 26.275 18.3549C27.655 19.7349 30.488 21.446 33.3194 22.4667C32.5768 23.3977 31.8771 24.373 31.2301 25.3958C30.6353 26.3373 30.9149 27.5834 31.8564 28.1793C32.799 28.7761 34.0441 28.4935 34.64 27.5529C39.8613 19.2989 48.7813 14.3711 58.5001 14.3711C68.2188 14.3711 77.1388 19.2989 82.3601 27.5532C82.7442 28.1599 83.3982 28.492 84.0672 28.492C84.4356 28.492 84.8088 28.3916 85.1439 28.1798C86.0854 27.5839 86.3653 26.3378 85.7703 25.3963C85.123 24.3735 84.4233 23.3982 83.6809 22.467C86.5121 21.446 89.345 19.7351 90.7253 18.3551C93.4824 15.5978 93.4824 11.1274 90.7251 8.37006Z" fill="#C38762"/>
<path d="M31.2674 10.3368C32.0756 10.3368 32.8356 10.6515 33.4069 11.2232C34.2565 12.0727 35.5805 14.1991 36.4285 16.3946C35.6408 17.0565 34.8846 17.7519 34.1629 18.4776C32.0037 17.6213 29.955 16.3295 29.1276 15.5025C28.5563 14.9308 28.2416 14.1708 28.2416 13.3627C28.2416 12.5545 28.5563 11.7945 29.1279 11.2229C29.6995 10.6515 30.4593 10.3368 31.2674 10.3368Z" fill="#8D5F3D"/>
<path d="M85.7328 10.3368C86.5409 10.3368 87.3009 10.6515 87.8723 11.2232C88.4439 11.7945 88.7586 12.5545 88.7586 13.3627C88.7586 14.1708 88.4439 14.9308 87.8723 15.5022C87.045 16.3295 84.9962 17.6211 82.837 18.4774C82.1153 17.7514 81.3591 17.0562 80.5714 16.3943C81.4197 14.1988 82.7435 12.0727 83.593 11.2229C84.1649 10.6515 84.9246 10.3368 85.7328 10.3368Z" fill="#8D5F3D"/>
<path d="M40.345 28.4919C37.0027 28.4919 34.2933 31.2013 34.2933 34.5436V42.6126C34.2933 42.6126 37.5083 42.6542 42.3633 42.5094C42.3734 37.4462 43.121 32.7334 44.2958 28.4917L40.345 28.4919Z" fill="#8D5F3D"/>
</svg>
