<svg width="78" height="90" viewBox="0 0 78 90" fill="none" xmlns="http://www.w3.org/2000/svg">
<path d="M17.6719 18.0703C10.4766 20.5313 -2.40624 31.336 1.85157 53.6563C6.10938 75.9766 21.2422 85.6953 25.9219 87.2735C30.6016 88.8516 32.1094 86.75 34.8594 87.4063C37.6094 88.0625 42.1484 89.375 43.9375 88.7188C45.7266 88.0625 46.2734 87.1406 49.4375 87.2735C52.6016 87.4063 58.1016 83.8594 62.5 78.4766C66.8984 73.0938 92.2969 38.0235 64.0391 19.1172C64.0391 19.1172 59.5391 15.586 51.7422 15.9219C45.1328 16.2032 43.0078 19.2344 36.3516 18.7032C31.1172 18.2813 26.8906 14.9219 17.6719 18.0703V18.0703Z" fill="#FF2727" stroke="#9F2222"/>
<path opacity="0.2" d="M52.781 18.2423C58.9607 18.2423 62.5779 20.9454 62.6013 20.961C62.6482 21.0001 62.6951 21.0314 62.742 21.0626C69.5232 25.6017 73.4998 31.5079 74.5545 38.6173C75.5857 45.5392 73.9607 53.5626 69.7185 62.4533C65.8435 70.5783 61.2029 76.3595 60.6873 76.9923C56.6795 81.8986 51.8123 84.9376 49.6092 84.9376H49.531C49.2889 84.9298 49.0623 84.922 48.8513 84.922C46.4138 84.922 45.156 85.5548 44.1482 86.0626C43.7967 86.2423 43.492 86.3908 43.1404 86.5236C43.1404 86.5236 42.9998 86.5626 42.6404 86.5626C41.1404 86.5626 38.5623 85.922 36.6795 85.4533C36.2263 85.3361 35.7967 85.2345 35.3982 85.1408C34.8513 85.008 34.3045 84.9455 33.742 84.9455C32.8357 84.9455 32.0232 85.1173 31.3123 85.2658C30.6326 85.4064 29.992 85.547 29.2576 85.547C28.4685 85.547 27.6248 85.3908 26.6717 85.0704C22.9607 83.8204 8.26541 74.7501 4.15603 53.2345C2.3904 43.9923 3.49978 36.0626 7.46072 29.6642C10.7029 24.422 15.2576 21.3907 18.4295 20.3048C20.8045 19.4923 22.9685 19.0939 25.0467 19.0939C27.3904 19.0939 29.2888 19.586 31.3045 20.1017C32.8513 20.5001 34.4529 20.9142 36.1873 21.047C36.7654 21.0939 37.3357 21.1173 37.8904 21.1173C41.0545 21.1173 43.2654 20.3751 45.4138 19.6564C47.3513 19.0079 49.1795 18.3907 51.8592 18.2735C52.1717 18.2501 52.4763 18.2423 52.781 18.2423ZM52.781 15.8985C52.4451 15.8985 52.1013 15.9064 51.7498 15.922C45.6717 16.1798 43.3826 18.7657 37.8748 18.7657C37.3982 18.7657 36.8904 18.7423 36.3592 18.7032C32.7498 18.4142 29.6248 16.7423 25.0388 16.7423C22.9451 16.7423 20.5545 17.0939 17.6638 18.0782C10.4685 20.5392 -2.41428 31.3439 1.84353 53.6642C6.10915 75.9923 21.2342 85.7033 25.9138 87.2814C27.2498 87.7345 28.3279 87.8829 29.2498 87.8829C31.0935 87.8829 32.3201 87.2814 33.7342 87.2814C34.0857 87.2814 34.4607 87.3204 34.8513 87.4142C37.0779 87.9454 40.4685 88.9064 42.6326 88.9064C43.1404 88.9064 43.5857 88.8517 43.9295 88.7267C45.6013 88.1095 46.1873 87.2658 48.8435 87.2658C49.031 87.2658 49.2263 87.2736 49.4295 87.2814H49.6013C52.7888 87.2814 58.1717 83.7658 62.492 78.4767C66.8904 73.0939 92.2889 38.0236 64.031 19.1173C64.0545 19.1173 59.9451 15.8985 52.781 15.8985Z" fill="#A40000"/>
<path d="M29.1635 27.2342C28.5151 26.7811 28.0698 25.867 28.562 25.3358C29.0463 24.8279 31.8979 25.0858 34.1323 25.5389C34.687 25.6795 38.6557 26.7654 40.9291 26.6795C42.4604 26.6326 44.2807 26.2029 47.0151 25.5858C49.9057 24.9061 49.8432 24.5623 51.1557 24.4529C52.4526 24.3279 53.7338 24.3514 53.9135 25.0154C54.062 25.5779 53.3276 26.4139 52.5463 26.8983C49.4995 28.7967 45.2338 29.8826 40.9448 29.7811C35.9526 29.6795 31.8666 29.1326 29.1635 27.2342Z" fill="#BC1818"/>
<path d="M56.4137 1.69778C55.3876 2.50082 53.8713 1.9687 52.4195 1.78745C52.4195 1.78745 49.4164 1.41185 46.5016 2.81818C44.4709 3.79741 43.2658 5.32286 42.7362 6.0886C40.9943 8.61618 40.9701 11.4627 40.9883 12.504C41.064 12.5516 41.3617 12.8546 41.4145 12.9406C41.4363 12.9313 41.4515 12.9276 41.4733 12.9182C43.0599 12.2436 47.2594 15.3034 52.4816 12.4847C57.7039 9.66604 57.384 0.879392 57.384 0.879392L57.422 0.8373C57.4173 0.834323 56.6368 1.52464 56.4137 1.69778Z" fill="#2E6C0B"/>
<path opacity="0.2" d="M48.8715 3.24635C50.7294 2.79867 52.2807 2.97635 52.293 2.9775C52.5743 3.01261 52.8631 3.06237 53.1727 3.11534C54.0855 3.27401 55.0324 3.44093 55.95 3.21983C56.0031 3.20704 56.0524 3.19516 56.1046 3.17848C55.8307 5.7549 54.9174 9.80647 51.9282 11.4198C51.2214 11.8 50.4912 12.0829 49.7557 12.2602C47.5906 12.7819 45.6886 12.3307 44.1615 11.9702C43.4088 11.7935 42.7612 11.6368 42.1749 11.6176C42.2927 9.30921 43.048 7.73206 43.6975 6.78128C44.3004 5.90345 45.3683 4.69133 47.0111 3.90039C47.5831 3.62677 48.2117 3.40533 48.8715 3.24635ZM48.5903 2.07946C47.9192 2.24118 47.21 2.47792 46.5014 2.81738C44.4707 3.79645 43.2655 5.32149 42.7358 6.08701C40.9938 8.6139 40.9693 11.4595 40.9875 12.5004C41.0631 12.548 41.3608 12.8508 41.4136 12.9369C41.4354 12.9275 41.4506 12.9238 41.4724 12.9145C41.5274 12.893 41.5871 12.8745 41.6478 12.8599C43.0659 12.5182 46.1361 14.3711 50.034 13.4319C50.8189 13.2428 51.6362 12.9388 52.4815 12.4841C57.7039 9.66595 57.3847 0.882257 57.3847 0.882257L57.4227 0.840175C57.4075 0.84383 56.6337 1.52827 56.4144 1.70045C56.1885 1.87836 55.9343 1.98899 55.6651 2.05386C54.7171 2.28227 53.5491 1.92995 52.4193 1.78652C52.4202 1.79041 50.6947 1.57239 48.5903 2.07946Z" fill="#424242"/>
<path d="M39.3264 18.9179C39.3264 18.9179 39.3256 18.8973 39.3279 18.8551C39.3272 18.8178 39.3276 18.7678 39.3233 18.6981C39.315 18.5086 39.3009 18.2082 39.2943 17.8186C39.2909 17.0454 39.3287 15.9084 39.7228 14.594C39.9233 13.9423 40.2212 13.2462 40.6609 12.5868C40.8803 12.2551 41.1319 11.9364 41.4216 11.6377C41.564 11.4869 41.7132 11.3469 41.8781 11.2031L42.1031 11.0157L42.3586 10.8168C43.0383 10.3076 43.823 9.8896 44.6555 9.61825C45.4911 9.34201 46.351 9.2014 47.1785 9.06443C48.0108 8.93045 48.8187 8.79822 49.5804 8.56058C50.3381 8.32389 51.0477 7.99061 51.6805 7.56344C52.3065 7.1552 52.9034 6.70405 53.467 6.21323C54.0071 5.74599 54.502 5.2813 54.9381 4.83081C55.815 3.93282 56.4853 3.12623 56.9273 2.54528C57.1474 2.25087 57.311 2.01583 57.4124 1.84991C57.5177 1.68304 57.5577 1.59017 57.5577 1.59017L57.6085 1.61122C57.6085 1.61122 57.5704 1.71196 57.4797 1.88779C57.3891 2.06362 57.2419 2.31549 57.0423 2.62578C56.6431 3.24635 56.0184 4.10437 55.1851 5.0626C54.7733 5.54471 54.2997 6.04589 53.7749 6.55938C53.227 7.09945 52.6421 7.60056 52.0245 8.05906C51.3841 8.55878 50.6181 8.9681 49.8109 9.25832C49.0007 9.55343 48.1533 9.72849 47.3294 9.89787C46.5085 10.0624 45.7081 10.2428 44.9861 10.5416C44.2613 10.8286 43.6149 11.2341 43.0639 11.7081L42.8645 11.881L42.655 12.0813C42.5374 12.197 42.406 12.3244 42.2961 12.4549C42.0666 12.71 41.8702 12.9821 41.7012 13.2642C41.3575 13.8214 41.137 14.4073 40.9883 14.9633C40.7016 16.0853 40.7139 17.0853 40.7523 17.7794C40.7739 18.128 40.7991 18.4049 40.8189 18.6082C40.8269 18.7103 40.8341 18.7918 40.8352 18.8998L40.8324 18.992L39.3264 18.9179Z" fill="#24450C"/>
<path d="M41.8749 22.6641C41.1092 18.0548 37.9999 7.09384 35.5311 2.84384C33.4296 4.20322 30.8046 5.42978 28.6014 3.68759C28.5233 3.77353 28.4764 3.82822 28.4764 3.82822C33.6639 9.91415 35.6796 12.3048 37.8671 18.5313C40.1171 24.922 40.6014 27.6641 40.4686 28.6563C40.328 29.6876 42.1092 28.9298 42.1092 28.9298C42.1092 28.9298 42.9061 28.8204 41.8749 22.6641Z" fill="#664C36"/>
<path d="M34 4.50002C34.8516 6.35939 34.4207 5.5356 34.1091 4.37935C34.2028 4.46529 34.125 3.84377 34.5 4.50002C35.8984 6.91408 37.2184 11.0078 38.5075 15.5703C36.6403 11.0547 35.3828 9.5547 31.5 5.00002C32.3359 4.29689 33.3047 4.50002 34 4.50002ZM33.195 1.00002C31.2028 1.00002 29.1247 3.1172 28.6091 3.6797C28.5309 3.76564 28.4841 3.82033 28.4841 3.82033C33.6716 9.90627 35.6872 12.2969 37.8747 18.5235C40.1247 24.9141 40.6091 27.6563 40.4762 28.6485C40.4216 29.0703 40.6794 29.1875 41.0075 29.1875C41.4919 29.1875 42.1247 28.9219 42.1247 28.9219C42.1247 28.9219 42.9137 28.8203 41.8825 22.6641C41.1169 18.0547 38.0075 7.09377 35.5387 2.84377C34.9997 1.92189 34.4997 1.31252 34.0466 1.14845C33.7734 1.05006 33.4853 0.999833 33.195 1.00002Z" fill="#664C36"/>
</svg>
