<svg width="98" height="89" viewBox="0 0 98 89" fill="none" xmlns="http://www.w3.org/2000/svg">
<path d="M89.125 45.4375L97.5781 44.3594L92.3359 50.9219L89.125 45.4375Z" fill="#424242"/>
<path d="M20.4609 26.5547C19.8359 26.5547 19.2266 26.2578 18.8437 25.7031C11.2109 14.4922 3.27343 18.0078 3.1953 18.0469C2.21874 18.5 1.05468 18.0781 0.601554 17.1016C0.383461 16.6322 0.360511 16.0955 0.53774 15.6092C0.71497 15.1229 1.0779 14.7268 1.54687 14.5078C1.65624 14.461 12.5937 9.58596 22.0703 23.5078C22.2701 23.8006 22.3863 24.1424 22.4063 24.4963C22.4263 24.8502 22.3494 25.2029 22.1839 25.5163C22.0183 25.8297 21.7704 26.0921 21.4668 26.2751C21.1632 26.458 20.8154 26.5547 20.4609 26.5547V26.5547Z" fill="#424242"/>
<path d="M32.6484 22.0234C31.6797 22.0234 30.8359 21.3047 30.7109 20.3125C29.0312 7.07812 20.8047 6.82812 20.4531 6.82031C19.3828 6.80469 18.5078 5.92969 18.5156 4.85937C18.5156 3.78906 19.375 2.92187 20.4453 2.91406C20.6406 2.91406 32.4531 3.07813 34.5859 19.8125C34.7187 20.8828 33.9687 21.8594 32.8906 22C32.8125 22.0234 32.7344 22.0234 32.6484 22.0234V22.0234Z" fill="#424242"/>
<path d="M46.3828 3.42189C49.1953 0.898453 53.0937 0.125016 56.8125 1.3672C58.4062 1.89064 59.8047 2.67189 60.9844 3.69533C70.8594 12.2813 65.5312 28.2656 60.7187 41.1016C60.6875 41.1797 58.5234 47.7188 56.1953 48.2266C54.2969 48.6406 52.0937 45.8125 52.0937 45.8125C51.9922 45.7188 49.6484 42.7031 49.3906 42.2969C45.2109 36.1875 42.4219 29.3985 41.0781 22.1094C40.7812 20.4922 40.6406 18.7031 40.7109 16.836C40.7344 16.1172 40.789 15.3906 40.8906 14.6641C40.9765 13.9844 41.0937 13.3047 41.2422 12.6328C41.9765 9.39064 43.4765 6.21095 46.0781 3.70314L46.3828 3.42189V3.42189Z" fill="#BDBDBD"/>
<path d="M76.3516 5.16406C80.5391 4.67187 84.5859 6.47656 87.1797 9.99999C88.2969 11.5 89.0625 13.1172 89.4844 14.8047C92.9687 28.9687 77.8359 40.1172 65.1953 48.7187C65.1172 48.7734 58.9453 53.3437 56.4922 52.3047C54.5 51.4609 54.3047 47.4609 54.3047 47.4609C54.2734 47.3125 54.0781 43.0547 54.1016 42.5234C54.2187 34.2734 56.0391 26.2891 59.5 18.7891C60.2656 17.125 61.2891 15.3984 62.5547 13.75C63.0391 13.1094 63.5547 12.4844 64.1172 11.8828C64.6328 11.3203 65.1719 10.7734 65.7422 10.2578C68.4922 7.77343 71.9062 5.84374 75.8906 5.22656L76.3516 5.16406V5.16406Z" fill="#ECEFF1"/>
<path d="M75.2969 70.7656C85.402 70.7656 93.5938 64.1968 93.5938 56.0937C93.5938 47.9907 85.402 41.4219 75.2969 41.4219C65.1918 41.4219 57 47.9907 57 56.0937C57 64.1968 65.1918 70.7656 75.2969 70.7656Z" fill="#FFE927"/>
<path d="M82.5305 72.7295C89.8646 69.2841 92.3269 59.0767 88.0303 49.9305C83.7337 40.7844 74.3051 36.163 66.971 39.6084C59.6369 43.0538 57.1746 53.2612 61.4712 62.4073C65.7678 71.5535 75.1964 76.1748 82.5305 72.7295Z" fill="#424242"/>
<path d="M75.8594 75.2707C83.1935 71.8253 85.6559 61.6179 81.3592 52.4718C77.0626 43.3257 67.634 38.7043 60.3 42.1497C52.9659 45.595 50.5035 55.8025 54.8002 64.9486C59.0968 74.0947 68.5253 78.7161 75.8594 75.2707Z" fill="#FFE927"/>
<path d="M68.0774 79.308C75.4115 75.8626 77.8738 65.6551 73.5772 56.509C69.2806 47.3629 59.852 42.7415 52.5179 46.1869C45.1839 49.6323 42.7215 59.8397 47.0181 68.9858C51.3148 78.132 60.7433 82.7533 68.0774 79.308Z" fill="#424242"/>
<path d="M60.4915 82.3707C67.8256 78.9253 70.288 68.7179 65.9913 59.5718C61.6947 50.4256 52.2662 45.8043 44.9321 49.2496C37.598 52.695 35.1356 62.9024 39.4323 72.0486C43.7289 81.1947 53.1575 85.8161 60.4915 82.3707Z" fill="#FFE927"/>
<path d="M32.125 67.5313C30.2031 67.5313 29 67.3047 28.8672 67.2813C28.3587 67.1805 27.911 66.882 27.6224 66.4513C27.3338 66.0207 27.228 65.493 27.3281 64.9844C27.4296 64.4778 27.727 64.0318 28.1558 63.7436C28.5845 63.4553 29.1098 63.3481 29.6172 63.4453C29.7422 63.4688 37.3516 64.8047 45.1641 59.5469C46.0547 58.9453 47.2734 59.1797 47.875 60.0782C48.4766 60.9766 48.2422 62.1875 47.3438 62.7891C41.3906 66.7969 35.6016 67.5313 32.125 67.5313V67.5313Z" fill="#424242"/>
<path d="M35.3594 75.5781C34.4297 75.5781 33.6094 74.9141 33.4375 73.9688C33.25 72.9063 33.9531 71.8985 35.0078 71.7031C35.1328 71.6797 42.7031 70.1563 48.0703 62.4297C48.2161 62.2184 48.4022 62.038 48.618 61.8988C48.8337 61.7596 49.0748 61.6644 49.3274 61.6187C49.58 61.573 49.8392 61.5776 50.09 61.6323C50.3409 61.687 50.5784 61.7907 50.7891 61.9375C51.6719 62.5547 51.8984 63.7656 51.2812 64.6563C44.9375 73.7969 36.0781 75.4844 35.7031 75.5469C35.5937 75.5703 35.4766 75.5781 35.3594 75.5781V75.5781Z" fill="#424242"/>
<path d="M52.8672 81.211C52.5712 81.2117 52.279 81.145 52.0127 81.016C51.7463 80.887 51.5128 80.699 51.3299 80.4664C51.147 80.2338 51.0194 79.9626 50.9568 79.6733C50.8942 79.3841 50.8983 79.0844 50.9687 78.7969C50.9922 78.6875 52.7265 71.2891 50.6406 62.1875C50.5828 61.9372 50.5749 61.6779 50.6175 61.4245C50.6601 61.1711 50.7522 60.9286 50.8886 60.7109C51.0251 60.4932 51.2031 60.3045 51.4126 60.1557C51.6221 60.0069 51.8589 59.9009 52.1094 59.8438C52.3597 59.786 52.619 59.7781 52.8724 59.8207C53.1258 59.8632 53.3683 59.9554 53.586 60.0918C53.8037 60.2283 53.9924 60.4063 54.1412 60.6158C54.29 60.8253 54.396 61.062 54.4531 61.3125C56.7656 71.3829 54.8515 79.3907 54.7734 79.7266C54.6651 80.1503 54.419 80.5259 54.074 80.7946C53.729 81.0633 53.3045 81.2097 52.8672 81.211V81.211Z" fill="#424242"/>
<path d="M60.125 81.1562C60.0313 81.1562 59.9375 81.1484 59.8438 81.1328C59.3312 81.0587 58.8689 80.7843 58.5584 80.3698C58.2479 79.9553 58.1145 79.4346 58.1875 78.9218C58.2031 78.8281 59.2031 71.289 56.2266 62.4218C55.8828 61.3984 56.4375 60.289 57.4609 59.9453C58.4922 59.6015 59.5938 60.1562 59.9375 61.1796C63.2266 70.9765 62.1094 79.1328 62.0625 79.4687C61.995 79.9353 61.7624 80.3622 61.4068 80.6719C61.0513 80.9815 60.5965 81.1534 60.125 81.1562V81.1562Z" fill="#424242"/>
<path d="M64.5078 48.2734C64.0781 47.6875 65 45.8828 64.4844 45.4062C63.9531 44.9219 62.2422 46.0234 61.6328 45.6641C61.0156 45.2969 61.1797 43.2734 60.5078 43.0312C59.8359 42.7891 58.6641 44.4453 57.9531 44.3281C57.25 44.2109 56.6875 42.2578 55.9688 42.2578C55.2578 42.2578 54.7109 44.2187 54 44.3437C53.3047 44.4609 52.1406 42.7969 51.4531 43.0312C50.7891 43.2578 50.8828 45.2891 50.2344 45.6328C49.6094 45.9609 47.9922 44.7266 47.4063 45.1562C46.8203 45.5859 47.5156 47.5 47.0234 48C46.5078 48.5156 44.5938 47.8203 44.1797 48.3906C43.75 48.9766 45 50.5859 44.6797 51.2109C44.3516 51.8594 42.3203 51.7969 42.1016 52.4766C41.8828 53.1641 43.5859 54.2813 43.4922 54.9844C43.3984 55.6953 41.4609 56.3281 41.4922 57.0391C41.5234 57.7578 43.5078 58.1953 43.6719 58.8906C43.8359 59.5859 42.2813 60.8828 42.5859 61.5391C42.8828 62.1797 44.8828 61.8281 45.3125 62.4141C45.7422 63 44.8203 64.8047 45.3359 65.2813C45.8672 65.7656 47.5781 64.6641 48.1875 65.0234C48.8047 65.3906 48.6406 67.4141 49.3125 67.6563C49.9844 67.8984 51.1563 66.2422 51.8672 66.3594C52.5703 66.4766 53.1328 68.4297 53.8516 68.4297C54.5625 68.4297 55.1094 66.4688 55.8203 66.3438C56.5156 66.2266 57.6797 67.8906 58.3672 67.6563C59.0313 67.4297 58.9375 65.3984 59.5859 65.0547C60.2109 64.7266 61.8281 65.9609 62.4141 65.5313C63 65.1016 62.3047 63.1875 62.7969 62.6875C63.3125 62.1719 65.2266 62.8672 65.6406 62.2969C66.0703 61.7109 64.8203 60.1016 65.1406 59.4766C65.4688 58.8281 67.5 58.8906 67.7188 58.2109C67.9375 57.5234 66.2344 56.4063 66.3281 55.7031C66.4219 54.9922 68.3594 54.3594 68.3281 53.6484C68.2969 52.9297 66.3125 52.4922 66.1484 51.7969C65.9844 51.1016 67.5391 49.8047 67.2344 49.1484C66.9375 48.5 64.9375 48.8594 64.5078 48.2734Z" fill="#E4B02B"/>
<path d="M38.1594 60.8756C50.7534 57.5312 58.4985 45.5402 55.4586 34.0931C52.4188 22.6459 39.745 16.0773 27.1511 19.4217C14.5571 22.7661 6.81198 34.7571 9.85185 46.2042C12.8917 57.6514 25.5654 64.22 38.1594 60.8756Z" fill="#FFE927"/>
<path d="M34.461 54.2891C32.2031 54.2891 30.3828 53.4844 30.1094 53.3594C29.6404 53.1404 29.2775 52.7443 29.1003 52.258C28.923 51.7718 28.946 51.235 29.1641 50.7656C29.2716 50.5336 29.4239 50.3251 29.6121 50.152C29.8004 49.9789 30.0209 49.8446 30.261 49.7568C30.5012 49.669 30.7564 49.6294 31.0119 49.6403C31.2674 49.6512 31.5182 49.7124 31.75 49.8203C31.8125 49.8438 34.1797 50.8828 36.1406 50.086C37.1953 49.6563 37.9766 48.75 38.5313 47.3125C38.6238 47.0727 38.7627 46.8535 38.9401 46.6674C39.1174 46.4814 39.3298 46.3322 39.565 46.2284C39.8001 46.1246 40.0535 46.0683 40.3104 46.0626C40.5674 46.0569 40.823 46.102 41.0625 46.1953C42.0703 46.586 42.5703 47.7188 42.1797 48.7266C41.2188 51.1953 39.6719 52.875 37.586 53.7188C36.5078 54.1328 35.4453 54.2891 34.461 54.2891V54.2891Z" fill="#424242"/>
<path d="M41.0391 34.5859C41.586 34.375 42.1484 34.3516 42.7031 34.4531C43.5469 34.6094 44.3594 35.0859 45 35.8203C45.3906 36.2813 45.7266 36.8281 45.9609 37.4531C46.1406 37.9688 46.2266 38.4844 46.25 38.9922C46.2969 39.9844 46.0469 40.9141 45.5547 41.6484C45.1797 42.2188 44.6641 42.6797 44.0156 42.9297C42.1328 43.6328 39.9375 42.3594 39.1094 40.0547C38.2813 37.7656 39.1563 35.3047 41.0391 34.5859V34.5859Z" fill="#424242"/>
<path d="M24.9141 48.4687C22.9219 48.7578 20.9531 47.0547 20.5391 44.6328C20.1328 42.2343 21.4219 40.0234 23.4297 39.7343C25.4219 39.4297 27.3906 41.1484 27.7891 43.5625C28.2031 45.9687 26.9063 48.1562 24.9141 48.4687V48.4687Z" fill="#424242"/>
</svg>
