<svg width="100" height="100" viewBox="0 0 100 100" fill="none" xmlns="http://www.w3.org/2000/svg">
<path d="M3.26461 39.9669C2.86861 37.7122 2.07096 33.1707 3.40904 28.9444C4.11223 26.7234 5.41449 24.543 7.66409 22.8293C9.90144 21.1249 12.909 20.009 16.8134 19.6258C19.4809 19.364 22.5938 20.0096 25.6953 21.0756C28.0151 21.8729 30.45 22.9484 32.8711 24.2007C33.6926 22.3648 34.8696 20.7076 36.3143 19.298C35.3712 17.5727 34.6365 15.7695 34.0973 13.977C33.7379 12.7938 33.1239 10.7708 32.8872 9.41734C32.6574 8.10401 32.5235 6.42183 33.1675 4.92653C33.5328 4.07825 34.0065 3.02516 34.7876 2.19117C35.6935 1.22385 36.8532 0.695638 38.2574 0.553104C39.2067 0.456746 40.1355 0.408788 41.0279 0.601271C42.0188 0.815033 42.731 1.27008 43.3343 1.73187C44.2962 2.46806 45.1635 3.4269 45.5954 4.80092C46.7751 3.83613 48.0641 2.94987 49.5796 2.41836C50.7133 2.0208 52.0881 1.89548 53.3503 2.02078C54.5656 2.14143 56.1181 2.54015 57.2541 3.61801C58.4543 4.75682 59.4467 6.48371 59.8968 8.27301C60.344 10.0504 60.3586 12.3607 58.8739 14.2566C58.5098 14.7215 58.1623 15.1339 57.7621 15.4865C57.4916 15.7248 57.2305 15.9067 56.9819 16.058C58.7228 16.8888 60.2957 17.9837 61.636 19.2895C64.6928 15.6517 68.128 12.3033 71.6339 9.9299C75.7752 7.12642 80.6079 5.29982 85.1314 6.95439C89.5349 8.56501 91.8396 11.0782 92.5103 14.2089C93.0909 16.9189 92.3129 19.7117 91.7696 21.662L91.7151 21.8577C91.4402 22.8476 91.2316 23.6104 91.1316 24.2634C91.0287 24.9353 91.0976 25.1735 91.1093 25.2025C91.2001 25.4292 91.4085 25.7909 91.811 26.3389C92.2039 26.8736 92.6898 27.465 93.269 28.1686L93.3172 28.2271C94.4651 29.6214 95.9101 31.3766 97.0249 33.3568C98.1667 35.3846 99.054 37.8012 98.9116 40.5219C98.6265 45.97 95.5473 50.429 91.453 53.8814C88.552 56.3276 85.0507 58.3518 81.4038 59.9671C84.8195 62.4657 87.7666 65.9754 89.5994 70.8478C92.1078 77.5165 90.4657 82.9505 86.8375 86.8801C83.3489 90.6586 78.1718 92.9135 73.6145 93.9228C70.2365 94.6709 67.2198 93.3604 64.8203 91.4635C63.3202 90.2777 61.9488 88.7813 60.7184 87.1721C60.4123 87.5391 60.0797 87.9037 59.7196 88.251C57.9122 89.9944 55.2137 91.4958 51.4721 91.0888C49.1624 90.8376 47.2341 90.26 45.6872 89.2923C44.8449 90.233 43.9721 91.1076 43.0802 91.8666C39.5134 94.9024 34.924 97.7833 30.2075 98.6457C27.8092 99.0842 25.3084 99.012 22.9067 98.0992C20.4924 97.1817 18.3573 95.4823 16.5958 92.9558C11.8637 86.1686 13.7098 77.0929 19.9093 71.1142C17.8815 70.7752 16.0384 70.3211 14.5065 69.7423C6.55957 66.7395 2.87213 62.2665 1.70721 57.3029C0.624618 52.6902 2.73367 44.7588 2.73367 44.7588C2.73367 44.7588 3.1906 43.0344 3.32378 42.3708C3.46275 41.6785 3.47669 41.3186 3.45983 41.166C3.43606 40.9511 3.35882 40.5042 3.26461 39.9669Z" fill="white"/>
<path d="M54.7319 57.2748C54.7319 57.2748 80.4329 53.1346 87.6287 72.2828C92.0545 84.0599 81.8339 90.5602 73.2364 92.4661C62.9595 94.7442 54.7319 71.2477 54.7319 71.2477C54.7319 71.2477 48.0493 85.2208 41.3672 90.9135C34.4562 96.8012 24.4048 101.321 18.2367 92.4661C12.9701 84.905 17.2087 73.3179 28.0029 69.1777C38.6689 65.0867 54.7319 57.2748 54.7319 57.2748Z" fill="#FFEE55"/>
<path fill-rule="evenodd" clip-rule="evenodd" d="M56.671 70.5594L56.6747 70.5699L56.6902 70.6135C56.7045 70.6533 56.7265 70.7145 56.7561 70.7954C56.8154 70.9573 56.9049 71.1982 57.0232 71.5063C57.26 72.1227 57.6112 73.006 58.0649 74.061C58.975 76.1776 60.284 78.9541 61.8919 81.6436C63.5138 84.3567 65.3686 86.8593 67.3352 88.5295C69.3018 90.1996 71.1029 90.8194 72.7943 90.4444C76.8487 89.5456 81.114 87.59 83.8097 84.6675C85.136 83.2296 86.0602 81.5848 86.4424 79.7188C86.8235 77.8582 86.6934 75.6437 85.7057 73.0154C82.4693 64.403 75.0847 60.9277 68.1094 59.634C64.6348 58.9896 61.3539 58.9105 58.9322 58.9959C57.725 59.0385 56.741 59.1216 56.0651 59.1931C55.7532 59.226 55.5075 59.2565 55.3364 59.2792C55.2243 59.3335 55.0808 59.4027 54.9082 59.4858C54.4456 59.7087 53.7737 60.0311 52.9344 60.4307C51.2559 61.2298 48.9067 62.3379 46.2227 63.5745C40.8661 66.0423 34.1335 69.0415 28.7348 71.1122C18.8198 74.9151 15.6369 85.1283 19.92 91.2775C21.255 93.1941 22.7226 94.2858 24.2078 94.8509C25.7059 95.4207 27.3668 95.5091 29.1556 95.1817C32.7966 94.5154 36.7092 92.1701 40.0391 89.3333C43.1002 86.7254 46.2956 82.0702 48.7923 77.8808C50.0208 75.8194 51.0459 73.9301 51.7637 72.5562C52.1223 71.8699 52.4033 71.314 52.5937 70.9315C52.6889 70.7403 52.7614 70.5926 52.8096 70.4938L52.8634 70.383L52.8762 70.3564L52.8791 70.3505C52.8791 70.3504 52.8796 70.3494 52.8796 70.3494M54.7319 57.2748C54.7319 57.2748 38.6689 65.0867 28.0029 69.1777C17.2087 73.3179 12.9701 84.905 18.2367 92.4661C24.4048 101.321 34.4562 96.8012 41.3672 90.9135C46.2967 86.7139 51.2265 78.0079 53.4734 73.7299C54.2722 72.2089 54.7319 71.2477 54.7319 71.2477C54.7319 71.2477 55.0855 72.2575 55.7376 73.838C58.2312 79.8818 65.0899 94.2719 73.2364 92.4661C81.8339 90.5602 92.0545 84.0599 87.6287 72.2828C80.4329 53.1346 54.7319 57.2748 54.7319 57.2748Z" fill="#FFC639"/>
<path d="M16.6953 22.0833C26.9755 21.0735 50.106 36.5739 52.1615 44.3365C49.0774 38.1264 71.1799 4.25243 84.5442 9.14532C95.8524 13.2855 87.6287 22.3734 89.1703 26.2233C90.4137 29.3286 97.2156 34.3031 96.8804 40.7141C95.8524 60.3798 52.1615 67.6251 54.7316 60.3798C57.8156 70.2127 25.9471 72.2828 14.9997 68.1424C-4.15656 60.8973 5.90105 45.8893 5.38654 41.2314C5.04566 38.1455 0.704771 23.654 16.6953 22.0833Z" fill="#FFEE55"/>
<path fill-rule="evenodd" clip-rule="evenodd" d="M52.8898 46.2723C51.9034 46.6486 50.7943 46.2122 50.3225 45.2623C50.1707 44.9565 50.0578 44.6344 49.9774 44.3015C49.4164 42.9672 48.0234 41.1082 45.775 38.9364C43.2732 36.5198 39.9794 33.9672 36.4044 31.6639C32.8303 29.3611 29.032 27.3441 25.5374 25.9712C21.9834 24.575 18.977 23.9391 16.8949 24.1436C13.2097 24.5056 10.927 25.5866 9.49293 26.8577C8.06477 28.1235 7.29663 29.7387 6.92938 31.5118C6.32505 34.4294 6.82269 37.3166 7.1814 39.3979C7.28669 40.0088 7.38001 40.5502 7.42998 41.0026C7.53388 41.9432 7.36514 42.9694 7.17052 43.8686C7.01051 44.6079 6.7905 45.4366 6.56919 46.2703C6.51239 46.4842 6.45551 46.6984 6.39954 46.9116C5.83049 49.0785 5.28319 51.3993 5.25839 53.7388C5.23402 56.0374 5.71641 58.2801 7.16587 60.339C8.62519 62.412 11.2034 64.4953 15.7227 66.2046C18.17 67.1302 21.9707 67.7615 26.3667 67.9917C30.7254 68.2199 35.5098 68.046 39.8496 67.45C44.2349 66.8478 47.9761 65.8395 50.3716 64.5103C51.5673 63.8468 52.2623 63.1933 52.602 62.6308C52.6862 62.4914 52.7532 62.3513 52.8007 62.2066C52.4656 61.3606 52.5141 60.4762 52.7953 59.6836C53.0923 58.8464 53.887 58.2936 54.7697 58.3101C55.6525 58.3266 56.4263 58.9087 56.6922 59.7565C56.7874 60.06 56.8598 60.3615 56.9101 60.6601C57.5145 60.8717 58.5654 61.0459 60.1061 61.0591C63.5907 61.0892 68.6264 60.2983 73.8455 58.6621C79.0615 57.0269 84.2871 54.6012 88.2273 51.4761C92.175 48.345 94.6132 44.6997 94.8272 40.6053C94.9548 38.1647 93.7267 35.8241 91.973 33.4718C91.3713 32.6647 90.7683 31.9317 90.1704 31.2049C89.8954 30.8706 89.6215 30.5375 89.3492 30.1991C88.5642 29.2236 87.7063 28.1035 87.2634 26.9973C86.9025 26.096 86.8743 25.1675 86.9448 24.3704C87.0156 23.5693 87.2018 22.7478 87.3978 21.9907C87.5144 21.5401 87.634 21.1089 87.7503 20.6897C88.0547 19.592 88.3364 18.5766 88.4831 17.5093C88.6756 16.1095 88.5657 14.9851 88.0333 14.0416C87.5059 13.1072 86.3751 12.0183 83.8416 11.0908C81.4303 10.208 78.2696 10.9679 74.5424 13.436C70.8867 15.8568 67.1232 19.6456 63.7947 23.8648C60.4745 28.0734 57.6731 32.6009 55.9029 36.4077C55.0154 38.3163 54.417 39.9802 54.1259 41.2921C53.9806 41.9468 53.9233 42.4637 53.9261 42.849C53.927 42.9679 53.9335 43.0671 53.943 43.1484C54.0222 43.3682 54.0908 43.5865 54.1482 43.8032C54.4199 44.8294 53.8763 45.8961 52.8898 46.2723ZM51.947 43.6845C51.5768 42.7339 50.9336 41.6874 50.071 40.5833C43.7246 32.4606 25.4985 21.2186 16.6953 22.0833C2.29987 23.4973 4.38194 35.3829 5.18927 39.9916C5.27873 40.5022 5.35253 40.9236 5.38654 41.2314C5.50164 42.2734 5.08763 43.8335 4.58996 45.7087C2.86308 52.2158 0.128979 62.5182 14.9997 68.1424C24.4805 71.7282 49.6523 70.6559 54.2235 63.9175C54.6624 63.2705 54.9113 62.5713 54.9383 61.8189C55.3035 62.2581 55.9738 62.5861 56.8883 62.8041C65.5362 64.866 96.0237 57.1032 96.8804 40.7141C97.1064 36.3923 94.0889 32.7233 91.7174 29.8397C90.571 28.4457 89.5755 27.2353 89.1703 26.2233C88.6862 25.0144 89.165 23.2891 89.6996 21.3627C90.8674 17.154 92.3017 11.9855 84.5442 9.14532C73.1073 4.95806 55.2708 29.1623 52.297 40.1229C51.903 41.5747 51.7699 42.7942 51.947 43.6845ZM56.4852 60.4586C56.4853 60.4586 56.4864 60.4594 56.4884 60.4613C56.4862 60.4595 56.4852 60.4586 56.4852 60.4586Z" fill="#FFC639"/>
<path d="M29.0668 75.1796C32.0789 71.5517 38.35 70.585 41.1307 75.143C43.2162 78.5615 41.7572 82.199 38.6085 84.3945C35.3782 86.647 30.4653 87.2437 28.4151 83.6156C26.7047 80.5888 26.8309 77.8727 29.0668 75.1796Z" fill="#FFC639"/>
<path fill-rule="evenodd" clip-rule="evenodd" d="M35.2777 73.6416C33.4561 73.7413 31.5583 74.6706 30.3326 76.1469C29.3759 77.2993 28.9467 78.3587 28.8757 79.3761C28.8041 80.4029 29.0864 81.546 29.8377 82.8756C30.5337 84.1074 31.6756 84.6408 33.0896 84.6579C34.5707 84.6757 36.2728 84.1039 37.6572 83.1386C40.3339 81.2722 41.2849 78.4691 39.7341 75.9273C38.6849 74.2074 37.0333 73.5455 35.2777 73.6416ZM41.1307 75.143C38.35 70.585 32.0789 71.5517 29.0668 75.1796C26.8309 77.8727 26.7047 80.5888 28.4151 83.6156C30.4653 87.2437 35.3782 86.647 38.6085 84.3945C41.7572 82.199 43.2162 78.5615 41.1307 75.143Z" fill="#FF9344"/>
<path d="M71.4032 68.4146C76.2064 67.8885 81.3566 71.4548 79.9684 76.5655C78.9273 80.3985 75.2163 81.9841 71.3711 81.4038C67.4262 80.8085 63.5097 77.9009 64.7302 73.9435C65.7484 70.6419 67.8377 68.8052 71.4032 68.4146Z" fill="#FFC639"/>
<path fill-rule="evenodd" clip-rule="evenodd" d="M76.9314 71.5357C75.5688 70.3717 73.5414 69.743 71.5868 69.9571C70.0611 70.1243 68.9773 70.5832 68.1779 71.2552C67.3711 71.9333 66.7292 72.9337 66.2819 74.384C65.8676 75.7275 66.283 76.879 67.2711 77.8495C68.3062 78.866 69.932 79.615 71.6225 79.8701C74.8913 80.3634 77.6284 79.0241 78.4025 76.174C78.9263 74.2455 78.2447 72.6577 76.9314 71.5357ZM79.9684 76.5655C81.3566 71.4548 76.2064 67.8885 71.4032 68.4146C67.8377 68.8052 65.7484 70.6419 64.7302 73.9435C63.5097 77.9009 67.4262 80.8085 71.3711 81.4038C75.2163 81.9841 78.9273 80.3985 79.9684 76.5655Z" fill="#FF9344"/>
<path d="M19.8726 57.5776C15.1226 52.1336 15.5298 42.814 23.5056 40.2069C29.4875 38.2516 36.9955 42.2487 37.1965 46.6662C37.501 53.3568 39.1596 59.2556 32.8608 61.0959C27.6059 62.6312 23.3986 61.6188 19.8726 57.5776Z" fill="#FFC639"/>
<path fill-rule="evenodd" clip-rule="evenodd" d="M18.5183 48.0516C18.081 50.9405 19.0272 54.19 21.1134 56.581C22.7103 58.4112 24.3768 59.4644 26.1469 59.9308C27.9264 60.3997 29.9704 60.3174 32.3894 59.6107C33.7015 59.2273 34.4665 58.677 34.9498 58.0666C35.4466 57.4392 35.7537 56.6114 35.8994 55.5053C36.0465 54.3882 36.0171 53.0884 35.9182 51.5822C35.8835 51.0531 35.8391 50.4861 35.7929 49.8974C35.7131 48.88 35.6282 47.7977 35.5798 46.7339C35.5161 45.3339 34.1982 43.6208 31.779 42.4276C29.4327 41.2702 26.5184 40.8624 24.0275 41.6766C20.6787 42.7712 18.9462 45.2253 18.5183 48.0516ZM23.5056 40.2069C15.5298 42.814 15.1226 52.1336 19.8726 57.5776C23.3986 61.6188 27.6059 62.6312 32.8608 61.0959C38.1743 59.5435 37.8252 55.103 37.4032 49.7354C37.3249 48.74 37.2441 47.7128 37.1965 46.6662C36.9955 42.2487 29.4875 38.2516 23.5056 40.2069Z" fill="#FF9344"/>
<path d="M64.1336 36.574C68.0561 30.5538 77.4176 28.0366 82.4732 34.5039C86.265 39.3544 84.6311 47.4419 80.3158 48.9945C73.7801 51.3459 68.4487 54.6872 64.6727 49.512C61.5226 45.1945 61.2218 41.0429 64.1336 36.574Z" fill="#FFC639"/>
<path fill-rule="evenodd" clip-rule="evenodd" d="M73.1537 32.3861C70.1553 32.8826 67.2285 34.7529 65.5057 37.3969C64.187 39.4209 63.6599 41.2674 63.7463 43.0266C63.8333 44.7952 64.5483 46.6342 65.9984 48.6216C66.785 49.6997 67.5675 50.2269 68.3221 50.4786C69.0979 50.7373 70.0134 50.7609 71.1546 50.5509C72.3073 50.3389 73.5861 49.9091 75.0481 49.3522C75.5617 49.1565 76.1097 48.9402 76.6788 48.7156C77.6623 48.3275 78.7085 47.9146 79.7476 47.5408C81.1153 47.0487 82.4044 45.3155 82.837 42.739C83.2567 40.24 82.7576 37.4552 81.1787 35.4354C79.056 32.72 76.0871 31.9003 73.1537 32.3861ZM82.4732 34.5039C77.4176 28.0366 68.0561 30.5538 64.1336 36.574C61.2218 41.0429 61.5226 45.1945 64.6727 49.512C67.858 53.8777 72.1502 52.1829 77.3385 50.1342C78.3006 49.7543 79.2935 49.3623 80.3158 48.9945C84.6311 47.4419 86.265 39.3544 82.4732 34.5039Z" fill="#FF9344"/>
<path d="M64.0653 64.2629C64.6426 55.4623 59.976 44.4615 57.5705 40.0612C56.6084 39.1445 54.1067 37.311 51.7974 37.311C49.4882 37.311 48.9109 40.2446 48.911 41.7113C49.1515 42.8114 49.7769 46.0016 50.3542 49.9619C51.0759 54.9122 48.9109 68.6632 47.4676 72.5134C46.0244 76.3637 43.8594 80.764 44.5811 83.5142C45.3027 86.2644 46.746 88.4645 51.7974 89.0146C56.8489 89.5646 59.0138 85.1643 60.4571 82.9641C61.9004 80.764 63.3436 75.2636 64.0653 64.2629Z" fill="#EBBFFF"/>
<path fill-rule="evenodd" clip-rule="evenodd" d="M49.6332 41.667C49.8829 42.8178 50.501 45.9851 51.0718 49.9013C51.4424 52.4436 51.0716 57.1747 50.4408 61.7083C49.8093 66.2462 48.9024 70.6891 48.1619 72.6647C47.889 73.3926 47.5956 74.1279 47.3024 74.8627C46.8053 76.1086 46.3087 77.3535 45.913 78.5599C45.2831 80.4804 44.9626 82.1623 45.2891 83.4064C45.6417 84.7504 46.1522 85.8765 47.1139 86.7316C48.058 87.5711 49.5065 88.2096 51.8999 88.4702C54.073 88.7068 55.6477 87.9028 56.9143 86.68C57.9443 85.6856 58.6941 84.49 59.3377 83.4638C59.5018 83.2022 59.6589 82.9517 59.812 82.7183C60.4826 81.6961 61.1908 79.8393 61.8195 76.8274C62.4455 73.8283 62.9849 69.7241 63.3449 64.2355C63.911 55.6061 59.3477 44.7691 56.9445 40.3459C56.4864 39.9208 55.6965 39.3032 54.7653 38.7874C53.7726 38.2375 52.7232 37.8612 51.7978 37.8612C51.1381 37.8612 50.5821 38.2699 50.1676 39.1476C49.7805 39.9671 49.6389 40.973 49.6332 41.667ZM48.8096 38.775C49.261 37.8192 50.1482 36.7611 51.7978 36.7611C53.1817 36.7611 54.5378 37.3015 55.6138 37.8975C56.7071 38.5032 57.6187 39.2264 58.1344 39.7177L58.1979 39.7782L58.237 39.8498C60.6558 44.2744 65.3718 55.3665 64.7864 64.2905C64.4248 69.8027 63.8817 73.949 63.2448 77.0003C62.6106 80.0388 61.8756 82.0323 61.1029 83.2102C60.9703 83.4124 60.8279 83.64 60.6743 83.8854C60.0298 84.9153 59.1888 86.2594 58.0471 87.3616C56.6075 88.7515 54.5741 89.8726 51.6958 89.5592C49.0377 89.2698 47.2389 88.5331 46.018 87.4475C44.8147 86.3775 44.2428 85.0284 43.8738 83.6222C43.4786 82.1161 43.8798 80.2228 44.5128 78.293C44.9154 77.0655 45.4335 75.7661 45.9393 74.4975C46.2297 73.7692 46.516 73.051 46.7741 72.3624C47.4768 70.4878 48.3741 66.13 49.0055 61.5923C49.6376 57.0503 49.9884 52.4308 49.6374 50.0228C49.0614 46.0717 48.4378 42.8914 48.1995 41.8019L48.1897 41.757L48.1897 41.7115C48.1897 40.9396 48.3391 39.7712 48.8096 38.775Z" fill="#C779C9"/>
<path d="M49.1881 47.135C49.1258 46.7575 49.0642 46.3931 49.004 46.0437C53.9767 45.6349 57.7543 45.2067 60.5815 44.7961C60.7255 45.1396 60.8699 45.4922 61.0141 45.853C58.1266 46.277 54.2686 46.7169 49.1881 47.135Z" fill="#C779C9"/>
<path d="M49.1312 60.6561C49.1797 60.2833 49.2262 59.9111 49.2703 59.5407C51.4374 59.3792 53.865 59.1502 56.2774 58.839C59.1703 58.4658 62.0157 57.9777 64.3539 57.3538C64.4164 57.7267 64.4735 58.0997 64.525 58.4722C62.1416 59.0861 59.3286 59.5611 56.5183 59.9236C53.9689 60.2525 51.4023 60.4911 49.1312 60.6561Z" fill="#C779C9"/>
<path d="M47.5897 69.4674C47.6727 69.1102 47.7561 68.7345 47.8392 68.343C48.7111 68.6574 49.697 68.9651 50.7565 69.2261C53.2749 69.8466 56.1494 70.189 58.8723 69.7739C59.8923 69.6185 60.8032 69.4859 61.6205 69.3669C62.7017 69.2095 63.619 69.076 64.4084 68.9448C64.37 69.3348 64.3305 69.716 64.29 70.0885C63.5466 70.2071 62.7144 70.3282 61.7824 70.4638C60.9826 70.5802 60.1092 70.7073 59.1553 70.8527C56.1051 71.3176 52.966 70.9266 50.3126 70.2729C49.3387 70.0329 48.4221 69.7556 47.5897 69.4674Z" fill="#C779C9"/>
<path d="M45.1827 76.4216C45.319 76.0642 45.4594 75.7053 45.6011 75.3469C47.1473 75.9773 49.4981 76.6545 52.5988 76.9171C55.0565 77.1253 57.895 76.7355 60.4829 76.1397C61.5862 75.8857 62.6319 75.5971 63.5675 75.3082C63.4914 75.7435 63.4136 76.1605 63.3341 76.5597C62.5697 76.7811 61.7513 76.9968 60.9003 77.1928C58.2322 77.807 55.1774 78.2423 52.4394 78.0105C49.3399 77.748 46.8988 77.0903 45.1827 76.4216Z" fill="#C779C9"/>
<path d="M43.7196 82.0865C43.7313 81.7026 43.774 81.3049 43.8412 80.8973C43.9945 80.9624 44.1664 81.03 44.3576 81.0996C45.0728 81.36 45.9755 81.6193 46.9819 81.8623C48.9942 82.348 51.3608 82.7539 53.3428 82.9697C55.6829 83.2245 58.4281 82.7151 60.8162 81.9735C61.1986 81.8548 61.568 81.7313 61.9212 81.6057C61.6899 82.1693 61.4526 82.6444 61.2114 83.0382C58.7571 83.7865 55.7958 84.348 53.1386 84.0587C51.0794 83.8345 48.6352 83.4153 46.5461 82.911C45.5019 82.6589 44.5314 82.382 43.7356 82.0923C43.7303 82.0903 43.7249 82.0884 43.7196 82.0865Z" fill="#C779C9"/>
<path d="M45.9429 87.3799C45.4909 86.9645 45.1306 86.5086 44.8379 86.0249C48.396 86.7195 50.5 87.1925 51.2335 87.375C52.6467 87.5001 55.6203 87.4782 58.6329 86.7479C58.4468 86.9581 58.2516 87.1637 58.0467 87.3615C57.7423 87.6554 57.4114 87.9372 57.0516 88.196C54.496 88.5959 52.1989 88.5758 50.9863 88.4603L50.9154 88.4535L50.8476 88.4363C50.3199 88.3023 48.7076 87.9341 45.9429 87.3799Z" fill="#C779C9"/>
<path fill-rule="evenodd" clip-rule="evenodd" d="M37.5722 6.89309C37.258 10.5717 37.841 11.9188 38.6018 14.4504C39.356 16.9603 39.8599 18.3963 41.498 20.6173C43.1361 22.8383 43.9342 23.9618 45.8218 25.7693C46.0424 25.9805 46.2577 26.1867 46.4672 26.3881C46.6734 26.5863 46.6731 26.9073 46.4666 27.1051C46.2601 27.3029 45.9255 27.3026 45.7193 27.1045C45.5093 26.9027 45.2929 26.6955 45.0708 26.4828C42.4527 23.9761 41.3925 22.7052 39.9433 20.9143C38.2397 18.6044 37.0076 15.9781 36.2192 13.3548C35.4375 10.7532 34.3935 7.64786 35.1897 5.79733C35.9482 4.03428 36.5522 2.99896 38.343 2.81702C40.185 2.62987 40.7678 2.78606 41.7205 3.51594C42.5182 4.12708 43.0668 4.80941 43.2732 5.80385C43.4878 6.83792 42.8569 8.00204 41.6543 8.38764C40.6268 8.7171 39.4158 8.11718 39.2304 7.09311C39.0218 5.94071 39.7875 5.51458 39.9574 5.40344C39.9079 5.15763 37.6585 5.88251 37.5722 6.89309Z" fill="#363538"/>
<path fill-rule="evenodd" clip-rule="evenodd" d="M51.2655 6.3983C49.8633 6.89054 48.3891 7.78598 47.255 8.53973C45.4671 9.7281 44.5311 12.905 44.7289 14.5689C45.0003 16.8529 46.0636 19.0817 46.8208 20.3845C48.3342 22.9882 48.4414 23.2219 52.0037 27.2588C52.1922 27.4725 52.1645 27.7924 51.9418 27.9734C51.7191 28.1543 51.3856 28.1277 51.1971 27.914C47.6609 23.9066 47.2881 23.6868 45.7131 20.9771C44.9261 19.6232 43.5859 17.2049 43.2917 14.7291C43.0971 13.0918 43.4017 9.75769 45.9793 7.48631C47.4846 6.15977 48.8008 5.11363 50.3371 4.57434C51.8361 4.04812 54.4007 4.14197 55.5733 5.25569C57.2846 6.88091 58.7364 10.6109 56.9718 12.8664C56.2775 13.7539 56.0075 13.9628 55.3831 14.2969C54.4369 14.8031 52.7152 14.9116 52.2928 13.9766C52.1157 13.5846 51.6995 12.5426 52.0941 11.761C52.3507 11.2528 52.6359 10.9909 53.165 10.7434C53.606 10.5371 53.913 10.471 54.4005 10.5244C54.8677 10.5755 55.5109 10.9715 55.5109 10.9715C55.2703 8.89804 54.4982 7.56968 53.522 6.93102C52.7109 6.4004 51.9515 6.15751 51.2655 6.3983Z" fill="#363538"/>
<path d="M64.0663 30.5297C64.0663 38.1773 57.2815 44.3768 48.912 44.3768C40.5425 44.3768 33.7576 38.1773 33.7576 30.5297C33.7576 22.8822 40.5425 16.6826 48.912 16.6826C57.2815 16.6826 64.0663 22.8822 64.0663 30.5297Z" fill="#EBBFFF"/>
<path fill-rule="evenodd" clip-rule="evenodd" d="M48.912 42.9921C56.5516 42.9921 62.6231 37.3496 62.6231 30.5297C62.6231 23.7098 56.5516 18.0673 48.912 18.0673C41.2724 18.0673 35.2009 23.7098 35.2009 30.5297C35.2009 37.3496 41.2724 42.9921 48.912 42.9921ZM48.912 44.3768C57.2815 44.3768 64.0663 38.1773 64.0663 30.5297C64.0663 22.8822 57.2815 16.6826 48.912 16.6826C40.5425 16.6826 33.7576 22.8822 33.7576 30.5297C33.7576 38.1773 40.5425 44.3768 48.912 44.3768Z" fill="#C779C9"/>
<path fill-rule="evenodd" clip-rule="evenodd" d="M57.5721 34.6838C57.9706 34.6838 58.2937 34.9938 58.2937 35.3762H57.5721C58.2937 35.3762 58.2937 35.3762 58.2937 35.3762L58.2937 35.3783L58.2937 35.3805L58.2937 35.3854L58.2934 35.3968L58.2923 35.4259C58.2912 35.4481 58.2892 35.4757 58.2857 35.5083C58.2787 35.5733 58.2656 35.6585 58.2414 35.7591C58.193 35.9604 58.0996 36.2245 57.9203 36.5113C57.5533 37.0982 56.8663 37.7164 55.6354 38.1101C54.6553 38.4235 53.8195 38.4274 53.2166 38.3454C52.9164 38.3045 52.6753 38.2426 52.5034 38.1883C52.4174 38.161 52.3484 38.1356 52.2978 38.1155C52.2725 38.1054 52.2516 38.0967 52.2355 38.0896L52.2149 38.0804L52.2072 38.0769L52.2041 38.0754L52.2026 38.0748C52.2026 38.0748 51.8848 38.6963 52.2041 38.0754L52.2013 38.0742C51.8439 37.905 51.6971 37.4899 51.8735 37.1469C52.0486 36.8063 52.4768 36.665 52.8329 36.8291L52.8502 36.8362C52.8699 36.8441 52.9054 36.8574 52.9554 36.8732C53.0556 36.9049 53.2131 36.9463 53.4192 36.9744C53.829 37.0301 54.4364 37.0339 55.179 36.7964C56.1129 36.4978 56.5085 36.0775 56.6827 35.7989C56.7739 35.6529 56.8159 35.5277 56.8351 35.4477C56.8447 35.4076 56.8486 35.3792 56.8501 35.3658M57.5721 34.6838C57.1793 34.6838 56.8598 34.9849 56.8507 35.3596Z" fill="#363538"/>
<ellipse cx="56.706" cy="27.9682" rx="2.74221" ry="2.97713" fill="#363538"/>
<path d="M56.8697 26.8644C56.6249 27.3876 56.395 27.7983 56.0315 27.6417C55.6679 27.485 55.4399 26.8772 55.6848 26.3539C55.9296 25.8307 56.5546 25.5902 56.9182 25.7468C57.2817 25.9034 57.1146 26.3411 56.8697 26.8644Z" fill="white"/>
<ellipse cx="46.3142" cy="30.8757" rx="2.74222" ry="2.97713" fill="#363538"/>
<path d="M46.4783 29.9105C46.2334 30.4338 46.0036 30.8444 45.64 30.6878C45.2764 30.5312 45.0484 29.9233 45.2933 29.4001C45.5381 28.8768 46.1631 28.6363 46.5267 28.793C46.8903 28.9496 46.7231 29.3873 46.4783 29.9105Z" fill="white"/>
</svg>
