<svg width="100" height="98" viewBox="0 0 100 98" fill="none" xmlns="http://www.w3.org/2000/svg">
<path d="M84.3027 23.7522L87.3969 21.8948C91.9998 19.1317 94.96 13.6315 96.5213 8.91732C97.2965 6.57663 97.7006 4.50711 97.7978 3.17886C97.8219 2.84952 97.826 2.58035 97.8154 2.37321C97.8101 2.27018 97.8016 2.18944 97.792 2.12891C97.7873 2.09903 97.7827 2.07638 97.7788 2.06015C97.7749 2.04371 97.7724 2.03649 97.7726 2.0368C97.7726 2.03701 97.773 2.03813 97.7738 2.04009C97.7743 2.04145 97.775 2.04322 97.7759 2.04537C97.7781 2.05058 97.7818 2.05874 97.7873 2.06928C97.7977 2.08937 97.8178 2.12429 97.8518 2.16588C97.9221 2.25195 98.0646 2.37948 98.2895 2.42987C98.5325 2.48433 98.7136 2.42266 98.8162 2.36709C98.8141 2.31634 98.8112 2.26748 98.8077 2.22059L98.1921 1.60498L97.5374 0.950302C97.5097 0.947361 97.4813 0.944636 97.4522 0.942128C97.3922 1.03342 97.295 1.23876 97.3683 1.52888C97.4467 1.83883 97.6532 1.96534 97.715 1.99549M84.3027 23.7522L71.7422 28.105L70.6955 28.105L70.6954 28.105H70.6953H70.6949L70.6931 28.105L70.6804 28.1049L70.6233 28.1042C70.5716 28.1033 70.4936 28.1015 70.3929 28.0979C70.1913 28.0907 69.9003 28.0762 69.55 28.0471C68.845 27.9883 67.9203 27.8718 67.0082 27.6438C66.0819 27.4124 65.2472 27.0849 64.6643 26.6478C64.1095 26.2319 63.8365 25.7661 63.8365 25.1772C63.8365 24.3625 63.7562 23.6095 63.6795 22.8918C63.6578 22.6881 63.6364 22.4871 63.6171 22.2885C63.5286 21.3729 63.472 20.3967 63.5873 19.1304C63.8193 16.581 64.7565 12.7637 67.6862 5.92954L67.6863 5.92939C68.4046 4.25292 69.0723 3.07602 69.6752 2.28695C70.285 1.48873 70.7712 1.16236 71.1032 1.05163C71.3849 0.957724 71.6391 0.9888 71.9394 1.17342C72.2759 1.38033 72.6533 1.7774 73.0425 2.38903C73.8184 3.60839 74.4617 5.39265 74.9116 7.16237C75.3613 8.93157 75.5865 10.5608 75.5865 11.4272V15.0384L77.4441 11.9416C80.1966 7.35286 85.7924 4.50329 90.6225 3.05412C93.0187 2.33521 95.1443 1.98621 96.5149 1.92907C97.2339 1.89909 97.608 1.95704 97.715 1.99549M84.3027 23.7522H87.9115C88.7836 23.7522 90.4022 23.965 92.1486 24.3932C93.898 24.8222 95.6512 25.4377 96.8391 26.1843C97.4353 26.559 97.8126 26.9197 98.0037 27.2359C98.1705 27.5118 98.1979 27.7471 98.0997 28.0215C97.9822 28.3498 97.6454 28.8326 96.8374 29.4401C96.0396 30.0398 94.8564 30.7055 93.1787 31.4247C86.3343 34.358 82.5935 35.3832 80.1173 35.6973C78.8909 35.8529 77.9574 35.8361 77.0817 35.7792C76.8381 35.7633 76.5883 35.7432 76.332 35.7226C75.6914 35.671 75.0094 35.6161 74.2782 35.6161C73.6748 35.6161 73.2361 35.3515 72.8644 34.8483C72.4659 34.3088 72.1794 33.5286 71.9902 32.6499C71.8041 31.7861 71.7287 30.9085 71.7012 30.2376C71.6875 29.9046 71.6859 29.628 71.6876 29.4366C71.6884 29.341 71.6901 29.2669 71.6915 29.2181L71.6933 29.1643L71.6938 29.1525L71.6938 29.1512L71.6938 29.1507L71.6938 29.1505L84.3027 23.7522ZM97.715 1.99549C97.7356 2.00556 97.7401 2.00487 97.7182 1.99668C97.7172 1.99628 97.7161 1.99588 97.715 1.99549Z" fill="#2E6C0B" stroke="#1F4A06" stroke-width="2"/>
<path d="M33.6456 33.3062L33.6455 33.3063C22.9747 43.9785 13.8311 58.0713 7.96821 70.1106C5.03688 76.1299 2.90732 81.6732 1.82119 86.0502C1.2791 88.2348 0.985982 90.1716 1.00052 91.7527C1.01464 93.2886 1.32056 94.7093 2.22058 95.6093C3.12058 96.5093 4.54124 96.8153 6.0772 96.8295C7.65826 96.8441 9.59507 96.5511 11.7796 96.0091C16.1567 94.9232 21.6999 92.7939 27.7193 89.8628C39.7586 84.0002 53.8515 74.8566 64.5237 64.1843C75.1258 53.5822 80.5549 45.4047 82.0752 38.5962C82.8422 35.1611 82.6134 32.0792 81.563 29.2414C80.5178 26.4177 78.6797 23.8908 76.3099 21.5202L76.3097 21.52C73.9391 19.1502 71.4122 17.3122 68.5885 16.2669C65.7507 15.2165 62.6688 14.9877 59.2337 15.7547C52.4252 17.275 44.2477 22.7041 33.6456 33.3062Z" fill="#F85900" stroke="#AA4D19" stroke-width="2"/>
<path d="M62.2966 38.3828C59.5966 35.6828 54.6022 30.6466 49.2633 21.4216C46.9354 22.962 44.7009 24.639 42.5716 26.4439C50.3577 36.48 65.1299 41.2133 62.2966 38.3828ZM41.5049 60.805C38.6133 57.9133 33.0883 52.3328 27.3244 41.7883C25.4125 44.1064 23.5782 46.4873 21.8244 48.9272C29.6216 58.9189 44.3272 63.6272 41.5049 60.805ZM67.3411 59.83C57.3938 54.2522 52.0911 48.9689 49.2799 46.1605C46.4466 43.3216 51.2022 58.1466 61.2716 65.9216C63.3278 63.9243 65.3512 61.8934 67.3411 59.83ZM33.4994 85.73C36.0556 84.3244 38.5705 82.8451 41.0411 81.2939C31.9494 76.0022 26.9605 71.0633 24.2799 68.3828C21.7188 65.8189 25.3522 77.68 33.4994 85.73Z" fill="#BB4706"/>
</svg>
