<svg width="100" height="100" viewBox="0 0 100 100" fill="none" xmlns="http://www.w3.org/2000/svg">
<path d="M77.4435 6.95752C77.6762 6.81995 76.0389 4.4025 75.4571 3.22325C74.8753 2.04401 74.4016 0.176866 73.1715 0.314445C71.9415 0.452024 71.8251 3.01688 71.8833 4.11751C71.9996 6.32859 73.0552 8.82466 73.0552 8.82466L77.4435 6.95752Z" fill="#FFBD16"/>
<path d="M28.2414 55.0315L63.0735 62.618C63.0735 62.618 62.6995 65.2713 62.0595 68.2489C61.4196 71.2265 59.0176 79.7269 59.134 83.2548C59.2504 86.7827 61.5359 93.9073 60.7131 95.4305C59.8903 96.9537 56.9066 96.8849 55.1529 96.4034C53.3993 95.9218 51.5625 94.4183 51.3298 93.524C51.0971 92.6298 51.6456 84.6502 51.5875 82.7831C51.5293 80.9159 51.1802 77.3192 50.5901 74.548C50.0083 71.7768 49.651 66.7355 49.651 66.7355L41.1652 61.6156C41.1652 61.6156 35.256 66.9419 33.6187 69.7819C31.9814 72.6219 30.7514 78.7049 30.8095 81.1911C30.8677 83.6773 32.2557 90.8118 31.3581 92.0991C30.2444 93.6911 27.5682 93.8975 25.8228 93.7107C23.6785 93.4847 21.8085 92.0991 21.8085 92.0991V62.2937L28.2414 55.0315V55.0315Z" fill="#DADADA"/>
<path d="M5.89262 62.5688C7.29721 62.5 8.57713 68.4651 8.17819 71.079C7.59641 74.8821 5.25266 76.1989 4.49634 77.447C3.73171 78.695 3.29122 80.2379 2.39362 80.6997C1.45445 81.1812 0.365691 75.8648 0.465425 71.7768C0.57347 66.7158 3.99767 62.6671 5.89262 62.5688Z" fill="#4D4D4D"/>
<path d="M33.1532 62.844L37.6579 67.8263C37.6579 67.8263 35.5884 70.5779 33.9179 71.9733C31.9315 73.6341 30.0532 73.9092 30.0532 73.9092C30.0532 73.9092 30.4604 77.8499 28.474 78.1938C26.6207 78.5181 26.7786 74.1844 26.4877 74.1156C26.1968 74.0468 25.6067 77.2995 24.0276 77.2308C22.4484 77.162 19.5229 69.8998 19.5229 69.8998L23.1549 59.0409L33.1532 62.844Z" fill="#FEA8A7"/>
<path d="M66.4811 10.967C66.3647 10.6231 67.653 9.30624 68.883 8.34319C70.1131 7.37031 72.5067 7.02637 72.5067 7.02637L83.2115 13.1781L89.7025 20.6073C89.7025 20.6073 92.4286 22.8676 93.6004 23.8306C94.7723 24.8035 96.7005 26.3463 97.6978 27.103C98.6952 27.8597 99.5097 28.2823 99.6842 29.1765C99.8587 30.0708 96.0772 37.3133 96.0772 37.3133L94.0908 39.0429L89.3534 38.5613C89.3534 38.5613 83.0369 42.0205 80.1114 43.2685C77.1859 44.5165 70.5203 47.0716 70.5203 47.0716C70.5203 47.0716 69.2903 51.0122 68.4758 53.2233C67.653 55.4344 65.999 58.5004 65.999 58.5004L48.8198 68.298C48.8198 68.298 47.1825 75.9729 46.8917 77.9776C46.6008 79.9823 46.2517 85.5838 46.3681 88.2862C46.4844 90.9886 46.9665 95.4304 46.8917 96.59C46.8169 97.8774 45.8278 99.489 44.3734 99.774C41.9714 100.236 39.1041 99.2237 37.8824 97.219C36.6606 95.2143 38.1732 89.6816 38.3478 87.3919C38.5223 85.1121 39.3534 79.8939 38.755 78.1938C37.7577 75.3538 36.7687 71.7571 36.5941 70.5189C36.4196 69.2709 36.0123 67.2661 36.0123 67.2661C36.0123 67.2661 32.8541 67.3349 30.2776 66.9222C27.7012 66.5095 25.133 65.8805 25.133 65.8805C25.133 65.8805 24.3102 69.9588 24.1939 72.4548C24.0775 74.9411 23.6703 79.8546 23.7284 83.7264C23.7866 87.5983 24.9003 92.3055 24.5512 93.2685C24.2022 94.2414 23.4957 95.9415 20.2211 95.4108C16.7554 94.8507 15.9326 92.7084 15.5835 91.7453C15.2344 90.7823 14.7856 82.2032 14.3119 79.9823C13.8464 77.7713 12.3255 69.0547 11.5027 66.0771C10.6799 63.0995 7.63801 51.9654 7.63801 51.9654C7.63801 51.9654 7.63801 56.6038 7.40529 58.4709C7.17258 60.3381 6.70716 64.3475 5.76799 64.2099C4.82883 64.0724 5.12804 60.7508 5.06986 58.5397C5.01168 56.3286 5.12803 53.2135 4.42989 50.5897C3.73176 47.9658 3.07518 43.809 3.02531 43.3275C2.59313 39.4065 3.08349 34.8172 3.14167 34.0606C3.19985 33.3039 7.87903 29.7072 7.87903 29.7072C7.87903 29.7072 7.76267 26.8279 8.05356 26.4053C8.34446 25.9926 12.6164 22.16 13.9462 21.8357C16.1653 21.2952 18.4093 22.2288 18.4093 22.2288L30.8012 33.0975L53.3827 22.1698C53.3827 22.1698 55.6018 22.1011 56.3082 22.1011C57.0063 22.1011 60.3474 20.4403 60.3474 20.4403L64.2121 16.2245L66.4811 10.967Z" fill="#F4F4F4"/>
<path d="M14.1457 42.1678C14.6278 37.0086 12.7993 32.2032 11.6856 30.1297C10.5719 28.0561 9.32522 26.1399 9.01771 25.5896C8.72682 25.0785 3.00873 31.073 3.16664 33.8934C3.19157 34.3848 3.94789 40.2613 4.72914 42.9736C5.36079 45.1847 6.9316 50.6485 7.4552 50.8549C7.97881 51.0613 13.5556 48.3883 14.1457 42.1678Z" fill="#4D4D4D"/>
<path d="M14.3201 49.0074C15.8826 48.9583 17.0711 50.8058 18.4757 52.6729C19.8802 54.5401 20.9939 55.9945 20.7612 57.8616C20.5285 59.7287 18.7749 62.7751 15.5584 62.3624C12.342 61.9496 11.461 58.0778 11.4029 55.7193C11.3364 53.3706 11.9763 49.0762 14.3201 49.0074Z" fill="#4D4D4D"/>
<path d="M35.1812 21.8455C43.1931 21.983 52.6346 21.9339 53.632 22.2189C54.2137 22.3761 52.1692 30.68 48.7201 34.9744C45.2709 39.2688 34.5329 54.5695 26.604 50.5404C21.1602 47.7692 22.2157 38.7087 21.3348 34.0113C20.4538 29.3042 16.4561 21.9535 16.4561 21.9535C16.4561 21.9535 28.6901 21.7374 35.1812 21.8455V21.8455Z" fill="#4D4D4D"/>
<path d="M53.0502 7.37026C52.3521 8.50037 56.0921 14.9076 57.3222 16.5684C58.5522 18.2291 61.004 20.1651 61.004 20.1651C61.004 20.1651 58.9346 21.0888 58.5855 21.4328C58.2364 21.7767 55.4106 27.9088 55.3857 29.6383C55.3441 32.6356 60.7713 40.2909 63.2813 40.2221C65.7996 40.1533 71.8834 35.3773 72.6979 34.0703C73.5207 32.7535 74.5679 21.2755 73.3378 17.5413C72.1078 13.807 69.7141 10.8982 69.0077 10.7606C68.3012 10.623 67.4286 10.8982 67.4286 10.8982C67.4286 10.8982 64.6194 8.48072 60.4056 7.57663C56.1919 6.67254 53.5157 6.61358 53.0502 7.37026V7.37026Z" fill="#4D4D4D"/>
<path d="M65.7995 18.5731C66.2067 18.0228 65.2094 14.0625 62.4667 11.7237C59.5412 9.23742 56.4411 9.30621 55.9175 9.78774C55.3357 10.3184 57.1226 14.2296 59.3666 16.2245C62.1758 18.7107 65.3922 19.1333 65.7995 18.5731Z" fill="#FFD1B3"/>
<path d="M89.553 26.3955C89.553 26.3955 86.0457 18.0916 83.2947 15.743C80.5437 13.3943 77.7013 12.5197 75.2827 11.5272C71.6009 10.004 70.1963 6.75124 70.1963 6.75124C70.1963 6.75124 75.1082 5.43441 79.2056 6.88882C82.2225 7.95996 85.2894 10.2791 86.5776 12.1463C87.8658 14.0134 88.7053 17.3743 89.6195 19.1333C90.7332 21.2756 93.4011 23.6341 93.4011 23.6341C93.4011 23.6341 92.4868 23.8601 91.4147 24.6954C90.9576 25.0394 89.553 26.3955 89.553 26.3955V26.3955Z" fill="#4D4D4D"/>
<path d="M71.9997 8.34311C71.8667 8.90325 71.4927 10.1316 70.6533 10.8293C69.6642 11.6646 68.1267 11.9005 67.1459 11.4485C65.3341 10.623 64.7108 5.84704 64.5695 4.39263C64.3368 1.90639 64.6858 -0.176944 65.7995 0.0392512C66.5558 0.17683 68.7832 3.46889 69.4232 4.04869C70.4205 4.95278 72.4734 6.32856 71.9997 8.34311Z" fill="#FFBD16"/>
<path d="M81.1669 19.6836C80.7347 19.4576 80.1114 17.8361 78.8647 17.9737C77.618 18.1113 76.6373 19.8409 77.0279 21.7964C77.4186 23.7324 78.4408 24.322 79.5628 24.0567C80.5353 23.8306 81.009 22.5335 81.2001 22.3468C81.3913 22.16 83.3444 21.934 83.3029 20.9611C83.2696 20.0079 81.1669 19.6836 81.1669 19.6836Z" fill="#1B1B1B"/>
<path d="M97.1159 37.0185C97.465 37.5295 96.7586 39.1608 95.2459 39.7897C93.3925 40.5464 92.1459 40.5071 90.7828 40.0943C89.6857 39.7602 88.6552 38.9642 88.6552 38.9642C88.6552 38.9642 86.461 37.9717 87.4251 36.6352C88.7549 34.7877 90.4088 37.7162 90.4088 37.7162C90.4088 37.7162 91.5225 38.522 93.5504 38.1977C95.1296 37.9422 96.1851 36.2814 96.1851 36.2814L97.1159 37.0185V37.0185Z" fill="#4D4D4D"/>
<path d="M92.4036 31.7217C92.2457 30.7685 91.9964 30.0904 94.1573 29.3239C96.3763 28.5378 98.4874 28.125 99.385 28.636C99.8421 28.8915 100.399 31.6824 99.1523 34.493C98.4458 36.0849 97.0828 38.8267 96.4262 38.5024C95.7696 38.1781 94.5728 35.8 94.2071 35.23C93.6835 34.4438 92.6696 33.3334 92.4036 31.7217Z" fill="#FCA4A7"/>
<path d="M93.7667 31.2598C93.7999 32.5963 95.5203 33.9819 97.5483 33.2842C99.5762 32.5865 99.9253 30.8373 99.8089 29.8251C99.6926 28.8129 98.1301 29.776 97.1161 30.0118C96.1021 30.2477 93.7251 29.8251 93.7667 31.2598Z" fill="#FFD3AF"/>
<path d="M44.8554 50.7174C46.6839 51.2087 48.4458 54.9135 48.2464 57.9992C48.0718 60.7213 46.1603 64.0723 43.1018 64.4556C40.1762 64.829 38.0319 61.645 38.1067 58.7854C38.1649 56.6627 40.1513 55.5228 41.265 53.9406C43.0602 51.4053 43.6503 50.3931 44.8554 50.7174Z" fill="#4D4D4D"/>
<path d="M65.2927 50.167C66.2318 50.6289 66.5393 52.5157 66.6972 53.6753C66.8552 54.8349 66.6972 57.046 66.2318 58.1957C65.7664 59.3455 63.1484 64.3278 62.4087 65.0255C61.669 65.7134 58.3113 67.4233 54.5297 68.0719C50.7481 68.7205 48.7534 68.4847 48.7534 68.4847C48.7534 68.4847 49.8089 65.9493 50.6234 63.6006C51.4462 61.252 52.6098 57.2327 54.1723 55.0707C55.7348 52.9088 63.5972 49.3317 65.2927 50.167V50.167Z" fill="#4D4D4D"/>
</svg>
