<svg width="100" height="100" viewBox="0 0 196 194" fill="none" xmlns="http://www.w3.org/2000/svg">
<g filter="url(#filter0_d)">
<path d="M58.3118 36.5C59.8743 15.5625 84.8743 14.625 84.8743 14.625C52.9993 3.37501 45.8118 35.25 47.6868 37.75C50.1868 40.5625 57.9993 41.5 58.3118 36.5Z" fill="#947151"/>
<path d="M174.876 77.125C171.438 69.625 181.126 43.375 181.126 43.375C181.126 43.375 204.876 70.25 181.751 83.0625C180.501 83.6875 175.501 78.375 174.876 77.125Z" fill="#A28373"/>
<path d="M31.7506 113.062C31.7506 113.062 23.0006 98.6875 35.5006 80.875L17.6881 89C9.2506 105.563 31.7506 113.062 31.7506 113.062Z" fill="#A28373"/>
<path d="M184.251 145.562C179.563 132.75 180.813 127.438 180.813 127.438C192.688 105.875 184.563 75.25 172.688 73.375C130.188 65.875 75.1883 78.375 75.1883 64C75.1883 34.3125 50.1883 15.875 30.5008 34C16.4383 47.125 27.6883 51.5 6.1258 78.375C1.1258 84.3125 6.7508 89 16.4383 90.875C19.5633 91.5 20.5008 91.1875 28.3133 87.125C35.8133 83.0625 46.4383 88.0625 49.2508 74C49.2508 74 47.6883 109 68.9383 133.062C68.9383 133.062 73.3133 145.562 64.8758 179.625H75.1883L84.5633 153.687C84.5633 153.687 82.6883 135.25 88.6258 137.125C107.063 143.687 152.688 132.438 152.688 132.438C157.063 141.187 171.126 149.625 171.126 149.625C171.126 149.625 166.751 159.938 167.376 179.625H178.313C178.938 172.125 184.251 145.562 184.251 145.562Z" fill="white"/>
<path d="M62.6875 187.75H72.6875L74.5625 179.938H64.25C63.625 184.625 62.6875 187.75 62.6875 187.75Z" fill="#947151"/>
<path d="M167.063 179.938C166.438 184.625 166.751 187.75 166.751 187.75H177.376C177.376 187.75 177.376 184.625 178.001 179.938H167.063Z" fill="#947151"/>
<path d="M36.125 57.75C38.7138 57.75 40.8125 55.6513 40.8125 53.0625C40.8125 50.4737 38.7138 48.375 36.125 48.375C33.5362 48.375 31.4375 50.4737 31.4375 53.0625C31.4375 55.6513 33.5362 57.75 36.125 57.75Z" fill="#3E4347"/>
<path d="M12.0624 80.5625C11.7499 81.1875 10.1874 82.125 9.56236 81.5C8.93736 81.1875 9.24986 79.625 9.87486 78.6875C10.1874 78.0625 11.1249 77.75 11.7499 78.375C12.3749 79 12.3749 79.9375 12.0624 80.5625Z" fill="#A28373"/>
<path d="M27.999 73.0625C28.9365 76.8125 27.999 80.875 25.8115 84.3125C24.874 85.875 23.3115 87.4375 21.749 88.6875C20.1865 89.9375 18.3115 90.5625 16.4365 91.1875C19.5615 89 22.374 86.8125 24.249 83.6875C25.1865 82.125 25.8115 80.5625 26.4365 78.6875C27.0615 76.8125 27.6865 74.9375 27.999 73.0625Z" fill="#A28373"/>
<path d="M59.5623 45.25C78.9373 44.625 76.7498 18.375 73.6248 19.9375C68.6248 22.4375 52.9998 29.625 52.9998 38.375C52.9998 39.9375 51.1248 45.5625 59.5623 45.25Z" fill="white"/>
<path d="M57.3742 36.5C58.9367 31.5 70.1867 25.875 72.0617 25.25C73.9367 24.3125 73.9367 37.75 61.4367 43.0625C60.1867 43.6875 58.9367 43.6875 58.3117 42.75C57.6867 41.8125 60.4992 39.9375 62.3742 39C64.5617 38.0625 62.0617 38.375 60.4992 38.6875C58.9367 39.3125 59.8742 38.0625 61.1242 37.4375C62.3742 36.5 59.2492 37.4375 57.9992 38.6875C56.7492 39.9375 56.4367 39.9375 57.3742 36.5Z" fill="#A28373"/>
<path d="M51.4378 33.6875C45.8128 10.25 73.0003 0.249995 73.0003 0.249995C33.6253 -1 37.0628 36.8125 40.1878 38.6875C43.9378 40.875 52.6878 39.3125 51.4378 33.6875Z" fill="#947151"/>
</g>
<defs>
<filter id="filter0_d" x="0.264648" y="0.219681" width="195.604" height="195.53" filterUnits="userSpaceOnUse" color-interpolation-filters="sRGB">
<feFlood flood-opacity="0" result="BackgroundImageFix"/>
<feColorMatrix in="SourceAlpha" type="matrix" values="0 0 0 0 0 0 0 0 0 0 0 0 0 0 0 0 0 0 127 0" result="hardAlpha"/>
<feOffset dy="4"/>
<feGaussianBlur stdDeviation="2"/>
<feComposite in2="hardAlpha" operator="out"/>
<feColorMatrix type="matrix" values="0 0 0 0 0 0 0 0 0 0 0 0 0 0 0 0 0 0 0.25 0"/>
<feBlend mode="normal" in2="BackgroundImageFix" result="effect1_dropShadow"/>
<feBlend mode="normal" in="SourceGraphic" in2="effect1_dropShadow" result="shape"/>
</filter>
</defs>
</svg>
