<svg width="85" height="85" viewBox="0 0 85 85" fill="none" xmlns="http://www.w3.org/2000/svg">
<path d="M58.7445 78.1457C58.515 77.7464 58.1713 77.4248 57.7575 77.2225C53.9868 73.1945 56.6667 68.4699 56.6667 68.4699C56.6667 67.1642 59.0278 63.7477 56.6667 63.7477L54.3056 66.1088C51.9445 68.4699 51.9445 75.5532 51.9445 75.5532H47.2222C46.9122 75.5532 46.6052 75.6143 46.3187 75.733C46.0322 75.8516 45.7719 76.0255 45.5527 76.2448C45.3334 76.464 45.1595 76.7243 45.0409 77.0108C44.9222 77.2972 44.8611 77.6043 44.8611 77.9143C44.8611 78.2244 44.9222 78.5314 45.0409 78.8179C45.1595 79.1044 45.3334 79.3647 45.5527 79.5839C45.7719 79.8032 46.0322 79.9771 46.3187 80.0957C46.6052 80.2144 46.9122 80.2755 47.2222 80.2755H49.836L49.3118 80.5588C49.0391 80.7064 48.7982 80.9062 48.6027 81.147C48.4072 81.3877 48.2611 81.6645 48.1726 81.9617C48.0842 82.2589 48.0551 82.5706 48.0871 82.879C48.1191 83.1875 48.2115 83.4866 48.3591 83.7593C48.5067 84.032 48.7066 84.2729 48.9473 84.4684C49.188 84.6639 49.4649 84.81 49.762 84.8985C50.0592 84.9869 50.371 85.016 50.6794 84.984C50.9878 84.952 51.2869 84.8596 51.5596 84.712L57.7906 81.3427C58.0634 81.1957 58.3045 80.9963 58.5001 80.7559C58.6958 80.5156 58.8421 80.239 58.9307 79.9421C59.0193 79.6451 59.0485 79.3336 59.0165 79.0254C58.9846 78.7171 58.8921 78.4182 58.7445 78.1457V78.1457ZM42.2167 78.1457C41.9882 77.7464 41.6452 77.4249 41.2321 77.2225C37.4614 73.1945 40.1389 68.4699 40.1389 68.4699C40.1389 67.1642 42.5 63.7477 40.1389 63.7477L37.7778 66.1088C35.4167 68.4699 35.4167 75.5532 35.4167 75.5532H30.6945C30.3844 75.5532 30.0774 75.6143 29.7909 75.733C29.5044 75.8516 29.2442 76.0255 29.0249 76.2448C28.8057 76.464 28.6317 76.7243 28.5131 77.0108C28.3944 77.2972 28.3334 77.6043 28.3334 77.9143C28.3334 78.2244 28.3944 78.5314 28.5131 78.8179C28.6317 79.1044 28.8057 79.3647 29.0249 79.5839C29.2442 79.8032 29.5044 79.9771 29.7909 80.0957C30.0774 80.2144 30.3844 80.2755 30.6945 80.2755H33.3106L32.7864 80.5588C32.5137 80.7064 32.2727 80.9062 32.0773 81.147C31.8818 81.3877 31.7357 81.6645 31.6472 81.9617C31.5587 82.2589 31.5297 82.5706 31.5617 82.879C31.5937 83.1875 31.6861 83.4866 31.8337 83.7593C32.1318 84.31 32.6364 84.7198 33.2366 84.8985C33.5338 84.9869 33.8455 85.016 34.154 84.984C34.4624 84.952 34.7615 84.8596 35.0342 84.712L41.2652 81.3427C41.5378 81.1955 41.7787 80.9959 41.9741 80.7555C42.1695 80.5151 42.3155 80.2385 42.4039 79.9415C42.4923 79.6446 42.5212 79.3331 42.4891 79.025C42.457 78.7168 42.3644 78.4181 42.2167 78.1457V78.1457ZM17.7461 23.6111C17.7461 26.2178 15.1041 28.3334 11.8434 28.3334C8.58266 28.3334 3.57947 25.9723 3.57947 23.6111C3.57947 21.25 8.58266 18.8889 11.8434 18.8889C15.1017 18.8889 17.7461 21.0045 17.7461 23.6111Z" fill="#FFAC33"/>
<path d="M31.9128 4.72222C27.1906 2.36111 24.8295 7.08333 24.8295 7.08333C24.8295 7.08333 24.8295 0 17.7461 0C10.6628 0 10.6628 7.08333 10.6628 7.08333C10.6628 7.08333 3.57947 4.86861 3.57947 11.8056C3.57947 15.3047 6.17905 17.4982 9.44447 17.4415V28.3333C9.44447 30.6944 10.0654 35.4167 7.70433 37.7778C5.34322 40.1389 1.83933 47.2222 8.92266 47.2222C16.006 47.2222 16.006 37.7778 16.006 30.6944C18.3671 33.0556 25.4504 33.0556 25.4504 21.25C25.4504 19.2029 24.9475 17.68 24.1518 16.5278H27.1906C36.635 16.5278 36.635 7.08333 31.9128 4.72222V4.72222Z" fill="#DD2E44"/>
<path d="M76.7739 21.25C86.2183 44.8612 76.7739 73.1945 46.0795 73.1945C27.8233 73.1945 15.385 59.0278 13.0239 47.2223C10.2449 33.3318 10.6628 28.3334 10.6628 18.8889C10.6628 12.4242 15.6636 7.49893 22.4683 9.44448C38.9961 14.1667 34.2739 33.0556 50.8017 33.0556C74.4128 33.0556 70.2336 4.90407 76.7739 21.25Z" fill="white"/>
<path d="M17.7461 21.2501C19.0501 21.2501 20.1072 20.1929 20.1072 18.8889C20.1072 17.5849 19.0501 16.5278 17.7461 16.5278C16.4421 16.5278 15.385 17.5849 15.385 18.8889C15.385 20.1929 16.4421 21.2501 17.7461 21.2501Z" fill="#292F33"/>
</svg>
