<svg width="98" height="107" viewBox="0 0 98 107" fill="none" xmlns="http://www.w3.org/2000/svg">
<path d="M97 62C97 86.222 75.5915 106 49 106C22.4085 106 1 86.222 1 62C1 37.7779 22.4085 18 49 18C75.5915 18 97 37.7779 97 62Z" fill="#F77E00" stroke="#DB7001" stroke-width="2"/>
<path d="M45.815 103.4C71.1179 103.4 91.63 84.5623 91.63 61.325C91.63 38.0876 71.1179 19.25 45.815 19.25C20.5121 19.25 0 38.0876 0 61.325C0 84.5623 20.5121 103.4 45.815 103.4Z" fill="#FF9800"/>
<path d="M16.3333 36.275C20.0083 30.95 27.8483 26.525 36.015 25.175C38.0567 24.875 40.0983 24.725 41.8133 25.325C43.12 25.775 44.1817 26.9 43.4467 28.175C42.875 29.225 41.3233 29.675 40.0983 30.05C32.4374 32.3716 25.8314 36.9612 21.315 43.1C19.6817 45.35 17.2317 51.575 14.21 50C11.025 48.275 11.6783 42.875 16.3333 36.275Z" fill="#FFBD52"/>
<path d="M46.4666 20.7935L50.3637 21.8977L50.5 21.9363L50.6363 21.8977L54.3709 20.8396L52.5785 23.6476L52.365 23.9821L52.6423 24.266L54.9092 26.5869L50.6213 25.5149L50.4872 25.4814L50.355 25.5215L46.1895 26.7837L47.916 24.194L48.0786 23.9502L47.9453 23.6893L46.4666 20.7935Z" fill="#2E6C0B" stroke="#2E6C0B"/>
<path d="M64.2744 1.835C63.266 2.62421 61.7758 2.10125 60.3489 1.92312C60.3489 1.92312 57.3976 1.554 54.533 2.9361C52.5373 3.89847 51.3529 5.39764 50.8325 6.15019C49.1206 8.63424 49.0968 11.4317 49.1147 12.4551C49.1891 12.5019 49.4816 12.7996 49.5335 12.8842C49.5549 12.875 49.5698 12.8714 49.5913 12.8622C51.1506 12.1992 55.2777 15.2062 60.41 12.4361C65.5423 9.66601 65.2279 1.03071 65.2279 1.03071L65.2653 0.989342C65.2606 0.986416 64.4936 1.66485 64.2744 1.835V1.835Z" fill="#2E6C0B"/>
<path opacity="0.2" d="M56.8621 3.3569C58.688 2.91693 60.2125 3.09155 60.2246 3.09268C60.5011 3.12718 60.7849 3.17609 61.0892 3.22814C61.9863 3.38408 62.9169 3.54813 63.8187 3.33084C63.8708 3.31826 63.9193 3.30659 63.9705 3.2902C63.7014 5.82224 62.8038 9.80403 59.8661 11.3896C59.1715 11.7632 58.4539 12.0413 57.731 12.2155C55.6032 12.7282 53.734 12.2847 52.2332 11.9305C51.4935 11.7568 50.857 11.6028 50.2808 11.5839C50.3965 9.31533 51.1389 7.76535 51.7772 6.83094C52.3697 5.96823 53.4192 4.77699 55.0337 3.99968C55.5958 3.73076 56.2137 3.51313 56.8621 3.3569V3.3569ZM56.5857 2.21011C55.9262 2.36904 55.2292 2.6017 54.5328 2.93531C52.537 3.89752 51.3526 5.39629 50.8321 6.14863C49.12 8.63199 49.096 11.4285 49.1138 12.4516C49.1882 12.4984 49.4807 12.7959 49.5326 12.8805C49.5541 12.8713 49.569 12.8677 49.5904 12.8585C49.6444 12.8374 49.7031 12.8192 49.7628 12.8048C51.1564 12.469 54.1738 14.29 58.0045 13.367C58.7759 13.1811 59.5792 12.8824 60.4099 12.4355C65.5423 9.66592 65.2286 1.03352 65.2286 1.03352L65.2659 0.992168C65.251 0.99576 64.4905 1.66841 64.275 1.83763C64.053 2.01247 63.8032 2.12119 63.5386 2.18494C62.607 2.40942 61.459 2.06317 60.3487 1.92221C60.3496 1.92603 58.6539 1.71177 56.5857 2.21011V2.21011Z" fill="#303030"/>
<path d="M47.4813 18.7585C47.4813 18.7585 47.4805 18.7383 47.4828 18.6968C47.4821 18.6602 47.4825 18.611 47.4783 18.5425C47.4702 18.3563 47.4563 18.0611 47.4498 17.6782C47.4464 16.9182 47.4836 15.8008 47.871 14.5091C48.068 13.8686 48.3607 13.1845 48.7928 12.5364C49.0085 12.2104 49.2557 11.8973 49.5404 11.6037C49.6804 11.4555 49.827 11.3179 49.9891 11.1766L50.2102 10.9924L50.4614 10.7969C51.1293 10.2965 51.9005 9.88572 52.7187 9.61904C53.5398 9.34756 54.3849 9.20937 55.1982 9.07476C56.0162 8.94309 56.8102 8.81313 57.5587 8.57959C58.3034 8.34697 59.0007 8.01944 59.6227 7.59962C60.2379 7.19842 60.8245 6.75504 61.3784 6.27267C61.9092 5.81348 62.3956 5.3568 62.8241 4.91407C63.6859 4.03154 64.3447 3.23884 64.7791 2.6679C64.9954 2.37857 65.1562 2.14757 65.2558 1.9845C65.3593 1.82051 65.3986 1.72924 65.3986 1.72924L65.4485 1.74993C65.4485 1.74993 65.4111 1.84893 65.322 2.02173C65.2329 2.19453 65.0883 2.44207 64.8921 2.74701C64.4998 3.35689 63.8859 4.20013 63.0669 5.14186C62.6622 5.61566 62.1967 6.10821 61.681 6.61286C61.1425 7.14362 60.5677 7.6361 59.9607 8.08671C59.3314 8.57782 58.5785 8.98009 57.7852 9.26531C56.989 9.55533 56.1562 9.72738 55.3465 9.89384C54.5398 10.0555 53.7531 10.2328 53.0436 10.5265C52.3312 10.8085 51.6959 11.207 51.1545 11.6729L50.9585 11.8428L50.7526 12.0397C50.6371 12.1534 50.5079 12.2786 50.3999 12.4069C50.1743 12.6575 49.9814 12.9249 49.8153 13.2021C49.4774 13.7498 49.2607 14.3256 49.1146 14.872C48.8328 15.9747 48.845 16.9575 48.8827 17.6396C48.9039 17.9822 48.9286 18.2544 48.9482 18.4541C48.956 18.5545 48.9631 18.6346 48.9641 18.7407L48.9615 18.8313L47.4813 18.7585V18.7585Z" fill="#27540E"/>
<path d="M41.6941 7.72184C41.4518 7.71682 41.1896 7.71483 40.9369 7.72685C40.4059 7.75212 39.8151 7.8383 39.2525 8.10138L38.4383 8.48212L39.1912 8.97312C43.6513 11.8817 45.0262 12.7979 47.1124 15.6027L47.9593 15.0778C46.4814 12.1697 44.9324 9.48318 43.2577 7.87545C43.14 7.76103 43.0101 7.6528 42.8668 7.59276C42.7886 7.56 42.681 7.53066 42.5559 7.5436C42.5067 7.54868 42.4608 7.55967 42.4186 7.57503L41.3619 7.03655L41.6941 7.72184ZM41.4113 6.49999L41.4115 6.49999C41.7132 6.49988 42.0111 6.52894 42.291 6.58499C42.6664 6.66064 43.1541 6.96485 43.7583 7.53916C45.1185 8.84111 46.6902 11.2129 48.0428 13.6615C49.3927 16.1051 50.4863 18.5551 50.9112 19.9774L50.9115 19.9785C51.4996 21.9301 51.54 22.8387 51.4795 23.2301C51.4698 23.2928 51.4583 23.3368 51.4484 23.3665C51.4472 23.3668 51.4461 23.367 51.4449 23.3672C51.3727 23.3822 51.2707 23.4022 51.1523 23.4221C50.9099 23.4631 50.6215 23.5 50.3852 23.5C50.3534 23.5 50.324 23.4993 50.297 23.4981C50.3042 23.2983 50.2766 23.0783 50.2237 22.8427C50.1435 22.485 49.9952 22.0482 49.7663 21.5176C49.3085 20.4563 48.5079 18.9734 47.2092 16.9228C44.7312 13.0015 42.4115 11.3901 36.9536 7.8262C37.3084 7.63646 37.7823 7.40313 38.3272 7.18509C39.2557 6.81352 40.3571 6.49999 41.4113 6.49999Z" fill="#2E6C0B" stroke="#2E6C0B"/>
<path d="M50.9132 19.8632L50.9136 19.8643C51.5018 21.8648 51.5412 22.801 51.4781 23.2083C51.4669 23.2805 51.4534 23.3296 51.4423 23.3615C51.3927 23.3722 51.3276 23.3857 51.252 23.4001C51.0716 23.4343 50.8402 23.4718 50.6193 23.4896C50.49 23.5 50.3826 23.502 50.2991 23.4981C50.3082 23.2922 50.2809 23.0638 50.2269 22.8172C50.1471 22.4525 49.9993 22.006 49.7706 21.4628C49.3132 20.3762 48.5129 18.857 47.2141 16.7553C44.9516 13.0864 42.8211 11.3911 38.3093 8.34131C40.2755 8.48764 42.2939 7.93009 43.9741 7.32945C45.2832 8.70153 46.7614 11.0086 48.0428 13.3856C49.3931 15.8906 50.4876 18.4032 50.9132 19.8632ZM50.1281 23.4728C50.1282 23.4727 50.1296 23.4732 50.132 23.4744C50.1292 23.4734 50.128 23.4728 50.1281 23.4728Z" fill="#2E6C0B" stroke="#2E6C0B"/>
</svg>
