<svg width="120" height="100" viewBox="0 0 120 100" fill="none" xmlns="http://www.w3.org/2000/svg">
<g clip-path="url(#clip0)">
<mask id="path-1-outside-1" maskUnits="userSpaceOnUse" x="-1.2439" y="-0.717896" width="122" height="101" fill="black">
<rect fill="white" x="-1.2439" y="-0.717896" width="122" height="101"/>
<path fill-rule="evenodd" clip-rule="evenodd" d="M68.0254 5.02137C69.1439 5.23689 70.2738 5.47315 71.4003 5.73198L71.4148 5.74262L71.4093 5.73198C75.5434 6.67349 79.4581 8.03566 83.3178 10.2192C84.0461 10.631 84.7783 11.0311 85.5095 11.4306C88.4239 13.0229 91.321 14.6059 93.8727 16.8798C97.7142 20.3053 100.961 24.9327 103.184 30.0208C104.215 32.3814 105.024 34.8401 105.579 37.3267C105.786 37.3971 105.997 37.4488 106.211 37.4728C106.321 37.4928 106.788 37.5529 106.861 37.4427C106.913 37.3645 106.789 37.1902 106.697 37.0599C106.66 37.0068 106.627 36.9609 106.614 36.9319C106.593 36.8918 106.572 36.8515 106.551 36.8109C106.439 36.5974 106.322 36.3746 106.275 36.1306C106.184 35.6599 106.157 35.149 106.239 34.6683C106.586 32.7352 108.041 30.9523 109.87 30.6318C111.05 30.4215 112.312 30.6619 113.346 31.363C114.15 31.9139 114.8 32.7552 115.129 33.7268C115.321 34.2877 115.376 34.8886 115.321 35.4696C115.303 35.7801 115.257 36.0905 115.193 36.381C115.187 36.4185 115.17 36.4764 115.15 36.5445C115.084 36.7674 114.987 37.1003 115.12 37.1923C115.204 37.2508 115.384 37.2466 115.51 37.2435C115.535 37.2429 115.558 37.2424 115.577 37.2424C116 37.2424 116.398 37.1122 116.799 36.981C116.996 36.9163 117.195 36.8513 117.397 36.8017C117.422 36.7958 117.448 36.7893 117.474 36.7827C117.758 36.7114 118.118 36.621 118.294 36.9419C118.55 37.4027 118.303 38.0437 118.083 38.4343C117.425 39.6062 116.163 40.3173 114.964 40.5577C114.507 40.6478 114.05 40.6879 113.593 40.7079C113.499 40.7134 113.399 40.71 113.296 40.7065C113.02 40.6972 112.728 40.6874 112.495 40.8482C112.365 40.935 112.252 41.0524 112.14 41.1697C112.07 41.242 112.001 41.3141 111.928 41.379C111.608 41.6695 111.26 41.9099 110.903 42.1302C109.549 42.9485 107.99 43.3896 106.439 43.4411C106.735 47.6696 106.519 51.9351 106.065 56.1527C105.587 60.5127 104.319 64.6802 103.054 68.8397C102.383 71.0441 101.714 73.2462 101.162 75.4736C100.778 77.026 100.44 78.5986 100.211 80.1911C99.9642 81.8638 99.7355 83.4964 99.58 85.1591C99.5357 85.7021 99.518 86.2528 99.5003 86.8028C99.4779 87.5007 99.4555 88.1972 99.3788 88.875C99.2965 89.5461 99.1319 90.4075 98.7203 90.9383C97.0099 93.1018 90.8178 92.9315 88.952 91.2688C88.4215 90.8081 88.0191 90.1871 87.8453 89.4659C87.7658 89.1117 87.697 88.7652 87.6277 88.4168L87.6276 88.4162C87.5853 88.2034 87.5428 87.9896 87.4977 87.7732C87.4361 87.4491 87.3448 87.1452 87.2539 86.8425C87.1426 86.4717 87.0318 86.1024 86.9764 85.6999C86.9032 85.119 86.6105 84.508 86.3361 83.9972C85.7233 82.8954 84.7904 82.1542 83.6197 81.984C83.4093 81.9539 83.1806 81.9439 82.9428 81.9539C82.5678 81.974 82.1928 82.0641 81.8361 82.1543C81.8223 82.1618 81.8082 82.1688 81.7942 82.1754L81.7832 82.1804L81.7696 82.1864L81.7489 82.1953L81.7278 82.2041C81.6522 82.2357 81.5778 82.2668 81.516 82.3345C80.7862 83.045 80.7178 84.3144 80.6607 85.375L80.6606 85.376C80.6533 85.5113 80.6462 85.6432 80.638 85.77C80.6177 86.0316 80.61 86.2878 80.6025 86.5391C80.5759 87.4229 80.5512 88.2453 79.9886 89.0253C78.827 90.6579 76.5495 90.748 74.83 90.6679H74.766C74.6768 90.6632 74.5721 90.6591 74.455 90.6545L74.4524 90.6544L74.4507 90.6543C73.3064 90.6093 70.9987 90.5186 70.5678 89.4659C70.3291 88.8801 70.1722 88.1904 70.0127 87.4893C69.6896 86.0687 69.3559 84.6014 68.3087 83.857C68.1514 83.8369 67.994 83.8201 67.8367 83.8033C67.6007 83.778 67.3648 83.7528 67.1288 83.7168C66.4703 83.7168 65.8392 83.857 65.4002 84.4379C64.0946 86.1746 64.2285 89.7091 64.3293 92.3676C64.3535 93.0056 64.3758 93.5932 64.3758 94.0933C64.3758 94.2266 64.3796 94.3547 64.3834 94.4787C64.402 95.0907 64.4175 95.6002 63.9459 96.1166C61.6227 98.6306 57.8636 98.5605 54.891 97.8193C53.7752 97.5389 52.6227 97.2384 52.3117 95.8762C52.1407 95.1396 52.0763 94.3486 52.0122 93.5613C51.9734 93.0853 51.9347 92.6106 51.8727 92.1502C51.763 91.2688 51.5892 90.4575 51.3422 89.6162L51.3246 89.5541C50.772 87.6094 50.1915 85.5662 48.6349 84.2977C47.5648 83.4363 45.9916 82.8854 44.4276 82.7352C44.0091 82.7502 43.5957 82.7483 43.1836 82.7464H43.1829C43.0459 82.7458 42.909 82.7452 42.7721 82.7452C42.388 82.7853 42.0038 82.8454 41.6654 82.9455C39.4337 83.5914 39.2718 87.1581 39.1641 89.5293C39.1483 89.8792 39.1336 90.203 39.1136 90.4876C38.8666 93.9231 35.6745 93.8429 33.1776 93.6226C33.0184 93.6093 32.858 93.597 32.6968 93.5846L32.696 93.5846C31.5243 93.4948 30.3126 93.402 29.2355 92.8914C27.8728 92.2531 27.8216 91.3405 27.746 89.9943C27.7374 89.8406 27.7285 89.6813 27.7172 89.516C27.6507 88.5695 27.4684 87.6362 27.2864 86.7044C27.193 86.2261 27.0997 85.7482 27.0221 85.2692C26.7569 83.6767 26.455 82.0841 26.0983 80.5016C17.1898 78.1378 8.80259 73.5204 4.4032 64.526C-0.654725 54.1895 2.1715 41.5393 7.5404 32.1042C10.1288 27.5669 12.9459 22.9395 16.1654 18.7328L17.5216 16.8592C17.0747 16.4474 16.6911 15.9404 16.4308 15.5377C15.4613 14.0152 15.2235 12.9135 15.7905 11.0906C17.1991 6.48318 22.9704 3.49841 27.2235 4.84056C28.1045 5.11245 28.8172 5.66853 29.1896 6.62311C29.7391 6.41882 30.4212 6.16199 31.2571 5.84216L31.2635 5.8492C34.975 4.18844 38.9513 3.28792 42.9093 3.03767C45.3851 2.8776 48.1347 2.81746 50.9757 2.91713L50.9857 2.90746C50.9857 2.90746 52.2978 2.97225 54.4423 3.1602C57.3429 -0.231322 64.5772 1.52057 67.2293 4.08935C67.522 4.37155 67.7875 4.68416 68.0254 5.02137ZM111.933 36.0944C111.991 35.9391 112.05 35.7825 112.093 35.6198C112.202 35.1891 112.12 34.5982 111.818 34.2776C111.324 33.7668 110.574 33.867 110.199 34.488C109.879 35.0288 110.099 35.6799 110.602 35.9704C110.922 36.1607 111.525 36.3109 111.882 36.2308C111.899 36.1854 111.916 36.14 111.933 36.0944Z"/>
</mask>
<path fill-rule="evenodd" clip-rule="evenodd" d="M68.0254 5.02137C69.1439 5.23689 70.2738 5.47315 71.4003 5.73198L71.4148 5.74262L71.4093 5.73198C75.5434 6.67349 79.4581 8.03566 83.3178 10.2192C84.0461 10.631 84.7783 11.0311 85.5095 11.4306C88.4239 13.0229 91.321 14.6059 93.8727 16.8798C97.7142 20.3053 100.961 24.9327 103.184 30.0208C104.215 32.3814 105.024 34.8401 105.579 37.3267C105.786 37.3971 105.997 37.4488 106.211 37.4728C106.321 37.4928 106.788 37.5529 106.861 37.4427C106.913 37.3645 106.789 37.1902 106.697 37.0599C106.66 37.0068 106.627 36.9609 106.614 36.9319C106.593 36.8918 106.572 36.8515 106.551 36.8109C106.439 36.5974 106.322 36.3746 106.275 36.1306C106.184 35.6599 106.157 35.149 106.239 34.6683C106.586 32.7352 108.041 30.9523 109.87 30.6318C111.05 30.4215 112.312 30.6619 113.346 31.363C114.15 31.9139 114.8 32.7552 115.129 33.7268C115.321 34.2877 115.376 34.8886 115.321 35.4696C115.303 35.7801 115.257 36.0905 115.193 36.381C115.187 36.4185 115.17 36.4764 115.15 36.5445C115.084 36.7674 114.987 37.1003 115.12 37.1923C115.204 37.2508 115.384 37.2466 115.51 37.2435C115.535 37.2429 115.558 37.2424 115.577 37.2424C116 37.2424 116.398 37.1122 116.799 36.981C116.996 36.9163 117.195 36.8513 117.397 36.8017C117.422 36.7958 117.448 36.7893 117.474 36.7827C117.758 36.7114 118.118 36.621 118.294 36.9419C118.55 37.4027 118.303 38.0437 118.083 38.4343C117.425 39.6062 116.163 40.3173 114.964 40.5577C114.507 40.6478 114.05 40.6879 113.593 40.7079C113.499 40.7134 113.399 40.71 113.296 40.7065C113.02 40.6972 112.728 40.6874 112.495 40.8482C112.365 40.935 112.252 41.0524 112.14 41.1697C112.07 41.242 112.001 41.3141 111.928 41.379C111.608 41.6695 111.26 41.9099 110.903 42.1302C109.549 42.9485 107.99 43.3896 106.439 43.4411C106.735 47.6696 106.519 51.9351 106.065 56.1527C105.587 60.5127 104.319 64.6802 103.054 68.8397C102.383 71.0441 101.714 73.2462 101.162 75.4736C100.778 77.026 100.44 78.5986 100.211 80.1911C99.9642 81.8638 99.7355 83.4964 99.58 85.1591C99.5357 85.7021 99.518 86.2528 99.5003 86.8028C99.4779 87.5007 99.4555 88.1972 99.3788 88.875C99.2965 89.5461 99.1319 90.4075 98.7203 90.9383C97.0099 93.1018 90.8178 92.9315 88.952 91.2688C88.4215 90.8081 88.0191 90.1871 87.8453 89.4659C87.7658 89.1117 87.697 88.7652 87.6277 88.4168L87.6276 88.4162C87.5853 88.2034 87.5428 87.9896 87.4977 87.7732C87.4361 87.4491 87.3448 87.1452 87.2539 86.8425C87.1426 86.4717 87.0318 86.1024 86.9764 85.6999C86.9032 85.119 86.6105 84.508 86.3361 83.9972C85.7233 82.8954 84.7904 82.1542 83.6197 81.984C83.4093 81.9539 83.1806 81.9439 82.9428 81.9539C82.5678 81.974 82.1928 82.0641 81.8361 82.1543C81.8223 82.1618 81.8082 82.1688 81.7942 82.1754L81.7832 82.1804L81.7696 82.1864L81.7489 82.1953L81.7278 82.2041C81.6522 82.2357 81.5778 82.2668 81.516 82.3345C80.7862 83.045 80.7178 84.3144 80.6607 85.375L80.6606 85.376C80.6533 85.5113 80.6462 85.6432 80.638 85.77C80.6177 86.0316 80.61 86.2878 80.6025 86.5391C80.5759 87.4229 80.5512 88.2453 79.9886 89.0253C78.827 90.6579 76.5495 90.748 74.83 90.6679H74.766C74.6768 90.6632 74.5721 90.6591 74.455 90.6545L74.4524 90.6544L74.4507 90.6543C73.3064 90.6093 70.9987 90.5186 70.5678 89.4659C70.3291 88.8801 70.1722 88.1904 70.0127 87.4893C69.6896 86.0687 69.3559 84.6014 68.3087 83.857C68.1514 83.8369 67.994 83.8201 67.8367 83.8033C67.6007 83.778 67.3648 83.7528 67.1288 83.7168C66.4703 83.7168 65.8392 83.857 65.4002 84.4379C64.0946 86.1746 64.2285 89.7091 64.3293 92.3676C64.3535 93.0056 64.3758 93.5932 64.3758 94.0933C64.3758 94.2266 64.3796 94.3547 64.3834 94.4787C64.402 95.0907 64.4175 95.6002 63.9459 96.1166C61.6227 98.6306 57.8636 98.5605 54.891 97.8193C53.7752 97.5389 52.6227 97.2384 52.3117 95.8762C52.1407 95.1396 52.0763 94.3486 52.0122 93.5613C51.9734 93.0853 51.9347 92.6106 51.8727 92.1502C51.763 91.2688 51.5892 90.4575 51.3422 89.6162L51.3246 89.5541C50.772 87.6094 50.1915 85.5662 48.6349 84.2977C47.5648 83.4363 45.9916 82.8854 44.4276 82.7352C44.0091 82.7502 43.5957 82.7483 43.1836 82.7464H43.1829C43.0459 82.7458 42.909 82.7452 42.7721 82.7452C42.388 82.7853 42.0038 82.8454 41.6654 82.9455C39.4337 83.5914 39.2718 87.1581 39.1641 89.5293C39.1483 89.8792 39.1336 90.203 39.1136 90.4876C38.8666 93.9231 35.6745 93.8429 33.1776 93.6226C33.0184 93.6093 32.858 93.597 32.6968 93.5846L32.696 93.5846C31.5243 93.4948 30.3126 93.402 29.2355 92.8914C27.8728 92.2531 27.8216 91.3405 27.746 89.9943C27.7374 89.8406 27.7285 89.6813 27.7172 89.516C27.6507 88.5695 27.4684 87.6362 27.2864 86.7044C27.193 86.2261 27.0997 85.7482 27.0221 85.2692C26.7569 83.6767 26.455 82.0841 26.0983 80.5016C17.1898 78.1378 8.80259 73.5204 4.4032 64.526C-0.654725 54.1895 2.1715 41.5393 7.5404 32.1042C10.1288 27.5669 12.9459 22.9395 16.1654 18.7328L17.5216 16.8592C17.0747 16.4474 16.6911 15.9404 16.4308 15.5377C15.4613 14.0152 15.2235 12.9135 15.7905 11.0906C17.1991 6.48318 22.9704 3.49841 27.2235 4.84056C28.1045 5.11245 28.8172 5.66853 29.1896 6.62311C29.7391 6.41882 30.4212 6.16199 31.2571 5.84216L31.2635 5.8492C34.975 4.18844 38.9513 3.28792 42.9093 3.03767C45.3851 2.8776 48.1347 2.81746 50.9757 2.91713L50.9857 2.90746C50.9857 2.90746 52.2978 2.97225 54.4423 3.1602C57.3429 -0.231322 64.5772 1.52057 67.2293 4.08935C67.522 4.37155 67.7875 4.68416 68.0254 5.02137ZM111.933 36.0944C111.991 35.9391 112.05 35.7825 112.093 35.6198C112.202 35.1891 112.12 34.5982 111.818 34.2776C111.324 33.7668 110.574 33.867 110.199 34.488C109.879 35.0288 110.099 35.6799 110.602 35.9704C110.922 36.1607 111.525 36.3109 111.882 36.2308C111.899 36.1854 111.916 36.14 111.933 36.0944Z" fill="#FFCEE0"/>
<path fill-rule="evenodd" clip-rule="evenodd" d="M68.0254 5.02137C69.1439 5.23689 70.2738 5.47315 71.4003 5.73198L71.4148 5.74262L71.4093 5.73198C75.5434 6.67349 79.4581 8.03566 83.3178 10.2192C84.0461 10.631 84.7783 11.0311 85.5095 11.4306C88.4239 13.0229 91.321 14.6059 93.8727 16.8798C97.7142 20.3053 100.961 24.9327 103.184 30.0208C104.215 32.3814 105.024 34.8401 105.579 37.3267C105.786 37.3971 105.997 37.4488 106.211 37.4728C106.321 37.4928 106.788 37.5529 106.861 37.4427C106.913 37.3645 106.789 37.1902 106.697 37.0599C106.66 37.0068 106.627 36.9609 106.614 36.9319C106.593 36.8918 106.572 36.8515 106.551 36.8109C106.439 36.5974 106.322 36.3746 106.275 36.1306C106.184 35.6599 106.157 35.149 106.239 34.6683C106.586 32.7352 108.041 30.9523 109.87 30.6318C111.05 30.4215 112.312 30.6619 113.346 31.363C114.15 31.9139 114.8 32.7552 115.129 33.7268C115.321 34.2877 115.376 34.8886 115.321 35.4696C115.303 35.7801 115.257 36.0905 115.193 36.381C115.187 36.4185 115.17 36.4764 115.15 36.5445C115.084 36.7674 114.987 37.1003 115.12 37.1923C115.204 37.2508 115.384 37.2466 115.51 37.2435C115.535 37.2429 115.558 37.2424 115.577 37.2424C116 37.2424 116.398 37.1122 116.799 36.981C116.996 36.9163 117.195 36.8513 117.397 36.8017C117.422 36.7958 117.448 36.7893 117.474 36.7827C117.758 36.7114 118.118 36.621 118.294 36.9419C118.55 37.4027 118.303 38.0437 118.083 38.4343C117.425 39.6062 116.163 40.3173 114.964 40.5577C114.507 40.6478 114.05 40.6879 113.593 40.7079C113.499 40.7134 113.399 40.71 113.296 40.7065C113.02 40.6972 112.728 40.6874 112.495 40.8482C112.365 40.935 112.252 41.0524 112.14 41.1697C112.07 41.242 112.001 41.3141 111.928 41.379C111.608 41.6695 111.26 41.9099 110.903 42.1302C109.549 42.9485 107.99 43.3896 106.439 43.4411C106.735 47.6696 106.519 51.9351 106.065 56.1527C105.587 60.5127 104.319 64.6802 103.054 68.8397C102.383 71.0441 101.714 73.2462 101.162 75.4736C100.778 77.026 100.44 78.5986 100.211 80.1911C99.9642 81.8638 99.7355 83.4964 99.58 85.1591C99.5357 85.7021 99.518 86.2528 99.5003 86.8028C99.4779 87.5007 99.4555 88.1972 99.3788 88.875C99.2965 89.5461 99.1319 90.4075 98.7203 90.9383C97.0099 93.1018 90.8178 92.9315 88.952 91.2688C88.4215 90.8081 88.0191 90.1871 87.8453 89.4659C87.7658 89.1117 87.697 88.7652 87.6277 88.4168L87.6276 88.4162C87.5853 88.2034 87.5428 87.9896 87.4977 87.7732C87.4361 87.4491 87.3448 87.1452 87.2539 86.8425C87.1426 86.4717 87.0318 86.1024 86.9764 85.6999C86.9032 85.119 86.6105 84.508 86.3361 83.9972C85.7233 82.8954 84.7904 82.1542 83.6197 81.984C83.4093 81.9539 83.1806 81.9439 82.9428 81.9539C82.5678 81.974 82.1928 82.0641 81.8361 82.1543C81.8223 82.1618 81.8082 82.1688 81.7942 82.1754L81.7832 82.1804L81.7696 82.1864L81.7489 82.1953L81.7278 82.2041C81.6522 82.2357 81.5778 82.2668 81.516 82.3345C80.7862 83.045 80.7178 84.3144 80.6607 85.375L80.6606 85.376C80.6533 85.5113 80.6462 85.6432 80.638 85.77C80.6177 86.0316 80.61 86.2878 80.6025 86.5391C80.5759 87.4229 80.5512 88.2453 79.9886 89.0253C78.827 90.6579 76.5495 90.748 74.83 90.6679H74.766C74.6768 90.6632 74.5721 90.6591 74.455 90.6545L74.4524 90.6544L74.4507 90.6543C73.3064 90.6093 70.9987 90.5186 70.5678 89.4659C70.3291 88.8801 70.1722 88.1904 70.0127 87.4893C69.6896 86.0687 69.3559 84.6014 68.3087 83.857C68.1514 83.8369 67.994 83.8201 67.8367 83.8033C67.6007 83.778 67.3648 83.7528 67.1288 83.7168C66.4703 83.7168 65.8392 83.857 65.4002 84.4379C64.0946 86.1746 64.2285 89.7091 64.3293 92.3676C64.3535 93.0056 64.3758 93.5932 64.3758 94.0933C64.3758 94.2266 64.3796 94.3547 64.3834 94.4787C64.402 95.0907 64.4175 95.6002 63.9459 96.1166C61.6227 98.6306 57.8636 98.5605 54.891 97.8193C53.7752 97.5389 52.6227 97.2384 52.3117 95.8762C52.1407 95.1396 52.0763 94.3486 52.0122 93.5613C51.9734 93.0853 51.9347 92.6106 51.8727 92.1502C51.763 91.2688 51.5892 90.4575 51.3422 89.6162L51.3246 89.5541C50.772 87.6094 50.1915 85.5662 48.6349 84.2977C47.5648 83.4363 45.9916 82.8854 44.4276 82.7352C44.0091 82.7502 43.5957 82.7483 43.1836 82.7464H43.1829C43.0459 82.7458 42.909 82.7452 42.7721 82.7452C42.388 82.7853 42.0038 82.8454 41.6654 82.9455C39.4337 83.5914 39.2718 87.1581 39.1641 89.5293C39.1483 89.8792 39.1336 90.203 39.1136 90.4876C38.8666 93.9231 35.6745 93.8429 33.1776 93.6226C33.0184 93.6093 32.858 93.597 32.6968 93.5846L32.696 93.5846C31.5243 93.4948 30.3126 93.402 29.2355 92.8914C27.8728 92.2531 27.8216 91.3405 27.746 89.9943C27.7374 89.8406 27.7285 89.6813 27.7172 89.516C27.6507 88.5695 27.4684 87.6362 27.2864 86.7044C27.193 86.2261 27.0997 85.7482 27.0221 85.2692C26.7569 83.6767 26.455 82.0841 26.0983 80.5016C17.1898 78.1378 8.80259 73.5204 4.4032 64.526C-0.654725 54.1895 2.1715 41.5393 7.5404 32.1042C10.1288 27.5669 12.9459 22.9395 16.1654 18.7328L17.5216 16.8592C17.0747 16.4474 16.6911 15.9404 16.4308 15.5377C15.4613 14.0152 15.2235 12.9135 15.7905 11.0906C17.1991 6.48318 22.9704 3.49841 27.2235 4.84056C28.1045 5.11245 28.8172 5.66853 29.1896 6.62311C29.7391 6.41882 30.4212 6.16199 31.2571 5.84216L31.2635 5.8492C34.975 4.18844 38.9513 3.28792 42.9093 3.03767C45.3851 2.8776 48.1347 2.81746 50.9757 2.91713L50.9857 2.90746C50.9857 2.90746 52.2978 2.97225 54.4423 3.1602C57.3429 -0.231322 64.5772 1.52057 67.2293 4.08935C67.522 4.37155 67.7875 4.68416 68.0254 5.02137ZM111.933 36.0944C111.991 35.9391 112.05 35.7825 112.093 35.6198C112.202 35.1891 112.12 34.5982 111.818 34.2776C111.324 33.7668 110.574 33.867 110.199 34.488C109.879 35.0288 110.099 35.6799 110.602 35.9704C110.922 36.1607 111.525 36.3109 111.882 36.2308C111.899 36.1854 111.916 36.14 111.933 36.0944Z" stroke="#CD93A8" stroke-width="4" mask="url(#path-1-outside-1)"/>
<path d="M83.5311 81.9726C72.512 80.4136 67.0446 83.4071 66.391 83.796C66.6267 83.7375 66.8757 83.7168 67.1289 83.7168C67.3648 83.7528 67.6008 83.7781 67.8367 83.8033C67.9941 83.8201 68.1514 83.837 68.3087 83.857C69.3559 84.6014 69.6897 86.0688 70.0128 87.4894C70.1722 88.1905 70.3291 88.8802 70.5679 89.466C70.9988 90.5186 73.3065 90.6094 74.4508 90.6544C74.5695 90.659 74.6758 90.6632 74.766 90.6679H74.8301C76.5496 90.748 78.827 90.6579 79.9886 89.0253C80.5512 88.2454 80.5759 87.4229 80.6025 86.5391C80.6101 86.2879 80.6178 86.0317 80.638 85.7701C80.6463 85.6429 80.6534 85.5107 80.6607 85.375C80.7178 84.3145 80.7862 83.045 81.516 82.3346C81.5779 82.2668 81.6523 82.2358 81.7279 82.2042C81.7641 82.189 81.8006 82.1737 81.8362 82.1543C82.1929 82.0641 82.5679 81.974 82.9429 81.954C83.1477 81.9453 83.3457 81.9516 83.5311 81.9726Z" fill="#FFB5CF"/>
<path d="M81.5644 81.7353C81.4785 81.7268 81.3929 81.7186 81.3077 81.7106C74.2769 81.0525 69.8346 82.3023 67.7426 83.1491C67.5267 83.2364 67.3358 83.3195 67.1698 83.3958L67.1289 83.4146C66.7453 83.5925 66.5006 83.7308 66.391 83.796C66.6267 83.7375 66.8757 83.7168 67.1289 83.7168C67.3594 83.752 67.59 83.7769 67.8205 83.8016L67.8367 83.8033C67.9941 83.8201 68.1514 83.837 68.3087 83.857C68.3087 83.857 67.8205 83.7168 68.7842 83.4385C70.9958 82.6834 74.9374 81.827 80.7608 82.3056C81.0248 82.3273 81.2663 82.3471 81.4869 82.3653C81.5197 82.34 81.6613 82.232 81.7279 82.2042C81.7641 82.189 81.8006 82.1737 81.8362 82.1543C82.1929 82.0641 82.5679 81.974 82.9429 81.954C83.1477 81.9453 83.3457 81.9516 83.5311 81.9726C83.3325 81.9445 83.1357 81.9179 82.9407 81.8927C82.5369 81.8406 82.1403 81.7945 81.7519 81.7544L81.6488 81.7438L81.5644 81.7353Z" fill="#CD93A8"/>
<path d="M14.7115 47.4187C14.8487 47.2484 14.995 47.0782 15.1322 46.9079C17.556 44.2436 20.5377 43.4524 23.9584 43.4023C24.2054 43.3923 24.4615 43.3923 24.7176 43.4023C28.9249 43.5625 34.0286 45.6759 36.0133 49.9728C37.8426 53.9291 37.431 60.8001 32.867 62.4528C31.9981 62.7633 31.0194 63.0137 30.0133 63.214C28.2115 63.5746 26.2542 63.7549 24.2877 63.6847C22.4767 63.6146 20.6658 63.3342 18.9828 62.8234C17.3091 62.3125 15.7633 61.5714 14.4828 60.5698C10.5408 57.4848 11.9859 50.8342 14.7115 47.4187V47.4187Z" fill="#F2847F"/>
<path d="M22.2296 53.7287C22.3211 50.9643 21.9735 48.7007 20.3272 48.6306C18.6717 48.5705 18.1869 50.794 18.1046 53.5685C18.0132 56.3329 18.3516 58.6065 20.0071 58.6666C21.6534 58.7267 22.1382 56.4932 22.2296 53.7287V53.7287Z" fill="#2F2F2F"/>
<path d="M29.0071 59.0172C30.6626 59.0773 31.1473 56.8437 31.2388 54.0793C31.3211 51.3149 30.9827 49.0513 29.3363 48.9812C27.6809 48.9211 27.2052 51.1446 27.1138 53.9191C27.0223 56.6835 27.3607 58.9571 29.0071 59.0172V59.0172Z" fill="#2F2F2F"/>
<path d="M14.1075 36.5212C15.2599 33.887 17.7935 32.625 19.7599 33.7167C21.7355 34.7985 22.4032 37.8233 21.2599 40.4575C20.1075 43.1018 17.5648 44.3438 15.6075 43.2821C13.6319 42.1903 12.9642 39.1555 14.1075 36.5212V36.5212Z" fill="#2F2F2F"/>
<path d="M47.3727 45.5958C45.0862 46.1267 42.7996 44.1134 42.2508 41.0686C41.7112 38.0337 43.138 35.109 45.4154 34.5782C47.7112 34.0273 49.9977 36.0706 50.5465 39.0954C51.077 42.1503 49.6593 45.0549 47.3727 45.5958Z" fill="#2F2F2F"/>
<path d="M71.4146 5.74264C72.0779 7.02384 72.2783 8.79015 72.3786 9.96877C72.6164 12.7132 71.8207 14.3758 70.403 16.4391C68.8756 18.6727 66.1683 22.5489 63.15 21.347C61.9284 20.8586 61.0845 19.6359 60.2329 18.4021C59.4777 17.308 58.7165 16.2051 57.6805 15.5978C57.0687 15.2414 56.4507 14.9932 55.8412 14.7485C55.1659 14.4773 54.501 14.2103 53.8664 13.8049C52.2567 12.7632 50.8024 10.9003 50.2719 8.9271C50.0067 7.97558 50.089 6.66348 50.3176 5.41148C50.3302 5.34264 50.3431 5.2707 50.3563 5.19622C50.4784 4.51215 50.6389 3.613 50.9853 2.91749C50.9821 2.91737 50.9788 2.91726 50.9756 2.91715L50.9855 2.90747C50.9855 2.90747 61.33 3.41829 71.4002 5.73199L71.4146 5.74264Z" fill="#FFB5CF"/>
<path d="M53.528 4.82052C55.3116 -0.688294 64.2201 1.17469 67.2292 4.08935C69.8268 6.59335 70.275 11.4912 68.3908 14.7264C67.7506 15.8281 66.9823 17.1603 65.8847 17.7512C62.9213 19.3538 61.961 15.5477 60.1866 13.9551C59.2079 13.0737 58.0921 12.3826 56.9579 11.7616C54.4244 10.3794 52.467 8.12581 53.528 4.82052V4.82052Z" fill="#FFCEE0" stroke="#CD93A8"/>
<path d="M31.2635 5.84922C31.2613 5.85021 31.2591 5.8512 31.2569 5.8522C31.26 5.91558 31.2771 6.0176 31.2997 6.15217C31.4769 7.20844 31.9907 10.2705 28.705 12.4027C28.0921 12.7972 27.4528 13.0764 26.8043 13.3597C26.1852 13.6301 25.5577 13.9041 24.9367 14.2857C24.1271 14.7871 23.5826 15.7704 23.043 16.745C22.4183 17.8732 21.8001 18.9898 20.7843 19.3338C18.9065 19.9748 17.4648 19.3149 16.6113 18.9243C16.4381 18.845 16.2891 18.7768 16.1656 18.7329L17.5284 16.8498L18.4613 10.3193L24.7632 5.62183L27.2144 7.33457C27.2144 7.33457 28.2205 7.00404 31.2571 5.84218L31.2635 5.84922Z" fill="#FFB5CF"/>
<path d="M27.3724 4.3633C25.0876 3.64284 22.4417 4.09273 20.2038 5.29398C17.9633 6.49662 16.0636 8.48835 15.3127 10.9432C15.0149 11.901 14.9152 12.7125 15.0406 13.505C15.1655 14.2942 15.5064 15.017 16.009 15.8063L16.009 15.8063L16.0109 15.8091C16.3138 16.2777 16.7836 16.8951 17.3436 17.3692C17.8858 17.8281 18.6258 18.2465 19.4288 18.0692L19.4288 18.0693L19.4358 18.0676C19.8725 17.9646 20.2178 17.6883 20.4905 17.3812C20.7641 17.0731 20.998 16.696 21.2038 16.3274C21.3207 16.1181 21.4426 15.8846 21.5582 15.6634C21.6377 15.5111 21.7142 15.3646 21.7839 15.2358C21.9702 14.8917 22.136 14.6188 22.2966 14.4327C23.4354 13.1185 24.8195 12.1296 26.3125 11.2628C26.3938 11.2157 26.4865 11.1634 26.5881 11.1061C27.141 10.7941 27.955 10.3348 28.6176 9.76424C29.3875 9.10119 30.1302 8.13392 29.811 6.92823C29.4523 5.52208 28.5254 4.71958 27.3724 4.3633Z" fill="#FFCEE0" stroke="#CD93A8"/>
<path d="M118.294 36.9418C118.101 36.5913 117.69 36.7315 117.397 36.8016C116.784 36.9518 116.025 37.4426 115.394 37.4426C114.415 37.3653 113.927 37.4795 113.053 37.2423C112.342 37.0496 111.297 36.7315 110.601 35.9703C110.211 35.5432 109.879 35.0288 110.199 34.4879C110.574 33.8669 111.324 33.7667 111.818 34.2776C111.489 33.306 114.15 31.9138 113.345 31.3629C112.312 30.6618 111.05 30.4214 109.87 30.6317C108.041 30.9522 106.586 32.7351 106.239 34.6682C106.156 35.1489 106.184 35.6598 106.275 36.1305C106.33 36.421 106.486 36.6814 106.614 36.9318C106.659 37.032 106.742 37.2579 106.861 37.4426C108.955 40.7079 113.382 40.8481 113.592 40.7079C114.05 40.6878 114.507 40.6478 114.964 40.5576C116.162 40.3172 117.425 39.6061 118.083 38.4342C118.303 38.0436 118.55 37.4026 118.294 36.9418Z" fill="#FFCEE0"/>
<path d="M117.474 36.7827C117.448 36.7893 117.422 36.7957 117.397 36.8016C117.158 36.8601 116.897 36.9704 116.631 37.0831C116.212 37.2598 115.779 37.4426 115.394 37.4426C115.053 37.4157 114.772 37.412 114.513 37.4086C114.028 37.4022 113.623 37.3969 113.053 37.2423C112.342 37.0496 111.297 36.7315 110.601 35.9703C110.211 35.5433 109.879 35.0288 110.199 34.4879C110.438 34.0916 110.83 33.9074 111.211 33.9588C111.427 33.988 111.639 34.0928 111.818 34.2776C111.593 34.0447 110.867 34.5475 110.689 34.8388C110.661 34.8875 110.657 34.9156 110.656 34.9291C110.655 34.946 110.657 34.9779 110.677 35.0321C110.723 35.1573 110.833 35.3175 111.015 35.517C111.581 36.1367 112.471 36.4242 113.194 36.6201C113.578 36.7243 113.874 36.7517 114.201 36.7616C114.293 36.7644 114.393 36.7658 114.5 36.7672C114.759 36.7707 115.063 36.7747 115.412 36.8014C115.608 36.7967 115.86 36.7163 116.197 36.5781C116.259 36.5528 116.325 36.5248 116.394 36.4956C116.666 36.3808 116.983 36.2462 117.269 36.1761L117.272 36.1754C117.286 36.1721 117.303 36.1676 117.323 36.1625C117.446 36.1311 117.672 36.0729 117.883 36.0729C118.168 36.0729 118.555 36.1757 118.794 36.6102C119.033 37.0403 119.012 37.5091 118.937 37.8608C118.86 38.2175 118.711 38.5407 118.582 38.7702C117.809 40.1458 116.371 40.9271 115.07 41.1882L115.068 41.1885C114.601 41.2806 114.14 41.3231 113.691 41.3449C113.65 41.3554 113.609 41.3621 113.575 41.3666C113.505 41.3759 113.424 41.3808 113.34 41.3826C113.17 41.3864 112.951 41.3784 112.697 41.3547C112.187 41.3073 111.512 41.1945 110.776 40.9698C109.315 40.5239 107.538 39.6136 106.382 37.8111C106.251 37.6068 106.139 37.3361 106.102 37.2464L106.094 37.2283C106.082 37.2055 106.069 37.1803 106.055 37.153C105.945 36.9468 105.77 36.6181 105.702 36.2624C105.599 35.7303 105.564 35.1323 105.663 34.5501L105.664 34.5444C106.052 32.3899 107.669 30.3686 109.777 29.9989C107.947 30.3194 106.586 32.7351 106.239 34.6682C106.156 35.149 106.184 35.6598 106.275 36.1305C106.321 36.3745 106.438 36.5973 106.551 36.8108C106.572 36.8514 106.593 36.8918 106.614 36.9318C106.624 36.9549 106.637 36.9845 106.651 37.0188C106.699 37.1337 106.769 37.3004 106.861 37.4426C108.955 40.7079 113.382 40.8481 113.592 40.7079C114.05 40.6878 114.507 40.6478 114.964 40.5576C116.162 40.3172 117.425 39.6061 118.083 38.4342C118.303 38.0436 118.55 37.4026 118.294 36.9418C118.118 36.6209 117.758 36.7113 117.474 36.7827Z" fill="#CD93A8"/>
</g>
<defs>
<clipPath id="clip0">
<rect width="120" height="100" fill="white"/>
</clipPath>
</defs>
</svg>
