<svg width="100" height="146" viewBox="0 0 100 146" fill="none" xmlns="http://www.w3.org/2000/svg">
<path d="M94 102.5C92.5 104.925 93 108 89.5 107.5C86.1863 107.5 83 104.814 83 101.5C83 98.1863 86 98.5 89.5 98C93 101 93 99 94 102.5Z" fill="white"/>
<path d="M61.4831 70.5258C62.1536 70.5258 62.6799 70.9918 62.9346 72.1655C63.0873 72.8646 63.1722 73.5809 63.2656 74.2886C63.5457 76.4721 64.055 78.3622 65.6593 79.9243C66.9664 81.1757 68.3161 82.2113 69.5384 83.5749C73.0525 87.4759 78.9008 88.6496 82.6017 92.8095C85.0972 95.5971 86.8543 99.1097 87.8304 102.734C88.9424 106.851 89.7148 111.468 88.7047 115.68C87.3041 121.54 82.3216 122.446 77.0929 123.473C72.9931 124.276 54.4464 126.382 52.1206 126.382H51.6368C50.7795 126.365 48.7932 126.442 47.9784 125.501C47.3078 124.638 47.4266 122.343 47.52 121.583C47.5879 119.115 47.5964 116.405 47.0956 115.784C46.8579 115.473 45.6866 115.361 45.5507 116.258C45.2706 117.889 45.1094 121.825 45.2367 123.603C45.4744 127.055 41.3151 126.451 38.4122 126.451C36.5957 126.451 34.7792 126.235 33.9559 124.794C33.2938 123.361 34.3803 118.934 34.3463 117.242C34.2784 113.73 33.9219 109.837 33.2514 106.385C32.9458 104.814 32.5553 103.27 32.0121 101.768C31.7235 100.957 30.1617 98.4883 30.4163 97.6943C30.671 96.883 31.4434 96.9607 32.0376 96.6587C32.7506 96.3048 33.2174 95.7438 33.8286 95.2174C35.5262 93.7329 37.2748 92.2917 38.9979 90.8417C42.4271 87.9333 45.8648 85.0248 49.294 82.1164C50.7031 80.9254 52.4262 79.8034 53.4617 78.2672C54.353 76.9468 58.9706 70.5258 61.4831 70.5258" fill="white"/>
<path d="M57.6044 125.553C59.6598 125.109 58.7079 121.502 58.7163 119.089C58.7163 118.723 58.9017 116.574 61.7322 115.713C62.743 115.406 63.8803 115.474 64.6974 114.792C65.9947 113.709 66.3906 111.953 67.1404 110.435C68.2692 108.15 71.7652 106.257 73.1889 106.845C73.5427 106.99 71.622 107.681 70.8975 108.201C70.4173 108.551 69.9456 108.926 69.5918 109.412C68.3282 111.143 68.2692 113.735 67.0898 115.525C66.2474 116.804 63.4507 116.591 62.2966 117.606C61.1003 118.655 61.0245 121.076 61.6985 122.526C62.086 123.361 63.1642 124.819 65.5482 124.683C65.5567 124.683 59.4745 125.356 57.6044 125.553V125.553Z" fill="#B0BEC5"/>
<path d="M34 113C34.9252 109.263 39.5496 108.948 41.5868 108.914C49.2431 108.81 53.4957 107.447 59.2168 105.6C63.0789 104.357 69.4705 100.206 70.7947 94.8808C70.9644 94.1904 70.5485 93.172 69.8525 93.2928C68.2142 94.5269 68.5538 96.6845 55.1679 101.164C49.1668 103.166 35.5828 102.433 31.5 101C32.3658 102.881 33 105 33.5 107L34 113Z" fill="#B0BEC5"/>
<path d="M65.2263 61.9818C65.2009 64.7866 66.7118 69.8441 67.7983 72.1225C69.4195 75.5056 70.854 79.0613 71.4397 82.7897C72.2206 87.7435 71.567 93.0081 67.8747 96.5811C62.2045 102.053 54.6925 104.521 46.9852 104.745C46.6117 104.754 46.2298 104.763 45.8393 104.763C35.8827 104.763 20.5615 101.19 17.2511 90.419C16.275 87.2516 16.606 82.4445 17.9301 79.4152C19.5769 75.6351 20.2389 70.9315 22.0299 66.8148C23.1928 64.1307 24.8395 61.2654 27.2247 59.5135C27.9547 58.987 29.0412 58.5382 29.1261 57.5112C29.2194 56.3806 28.0396 54.5769 27.4539 53.662C22.9976 46.542 16.7333 40.9063 11.2415 34.6493C10.1125 33.3633 9.44196 31.6459 8.7629 30.032C8.10931 28.4958 7.92257 26.8905 7.93106 25.199C7.93106 22.3854 10.138 20.1415 12.625 19.2095C15.2054 18.2428 18.2442 18.6744 20.7907 19.5201C22.5817 20.107 24.2623 21.0132 25.7987 22.1093C30.6115 25.5614 34.7792 30.2477 37.4445 35.5986C40.3475 41.3982 40.7634 47.6467 42.1215 53.9037C42.3931 55.181 42.6817 55.5176 44.0398 55.5176C45.4913 55.5176 46.9513 55.6643 48.3943 55.7161C49.2091 55.742 50.1768 55.8455 50.9068 55.3968C52.6638 54.3266 53.0288 50.6846 53.5636 48.8376C55.9063 40.6819 58.0368 29.9975 63.6221 23.3089C65.0226 21.6346 66.8221 20.1847 68.7744 19.2008C69.0885 19.0368 69.462 18.8901 69.8609 18.7434C72.1272 17.9494 74.9453 17.6473 77.1777 18.7348C80.887 20.5299 80.8531 25.6218 80.225 29.1258C79.4356 33.5187 76.0063 39.8102 73.8588 43.6163C71.8726 47.1202 65.2603 57.6234 65.2263 61.9818Z" fill="white"/>
<path d="M31.0869 78.5004C28.9903 78.4831 27.2842 80.494 27.2757 82.9709C27.2672 85.4565 28.9563 87.476 31.0529 87.4932C33.1325 87.5019 34.8556 85.5082 34.8641 83.0141C34.8811 80.5458 33.1834 78.509 31.0869 78.5004V78.5004Z" fill="#2F2F2F"/>
<path d="M56.4496 78.5004C54.3615 78.509 52.6638 80.5458 52.6893 83.0141C52.6893 85.5083 54.4124 87.5019 56.492 87.4933C58.5886 87.476 60.2777 85.4565 60.2692 82.971C60.2523 80.5027 58.5462 78.4918 56.4496 78.5004V78.5004Z" fill="#2F2F2F"/>
<path d="M71.4227 25.6045C69.9542 25.8807 68.4349 26.9422 67.6115 27.857C65.9393 29.7126 64.8783 32.06 63.9107 34.3471C62.5526 37.5662 60.5578 43.2709 59.4713 46.5936C58.962 48.1471 58.4782 49.6747 58.0368 51.2541C57.5955 52.8162 57.0437 54.3179 56.9843 55.9576C56.9588 56.7775 57.1626 57.0278 57.918 57.3558C58.6904 57.6924 59.6496 58.1843 60.4814 58.2879C60.9653 58.3483 61.1435 58.331 61.4067 57.9685C61.6273 57.6578 61.7971 57.1832 62.0433 56.8379C63.1298 55.2931 63.7239 53.2304 64.6067 51.5561C65.6592 49.5452 66.7966 47.5861 67.8237 45.5666C69.2497 42.7617 71.8047 37.6957 73.0355 34.7872C73.8418 32.8799 75.862 27.857 73.8249 26.1309C73.1458 25.5441 72.297 25.4319 71.4227 25.6045V25.6045Z" fill="#ED80AD"/>
<path d="M37.2747 55.6038C38.7941 54.6544 37.1558 51.0987 36.7654 49.8387C35.8656 46.8957 34.533 44.1253 33.2003 41.3636C30.2804 35.3396 26.4353 29.3069 20.6124 25.8202C19.5344 25.1729 18.4818 24.6292 17.2256 24.9917C15.4855 25.5009 14.764 26.3898 14.8828 28.2626C15.1375 32.3534 20.5275 36.263 22.9381 39.1801C24.9413 41.6052 26.7663 44.1857 28.5149 46.8094C30.0003 49.036 31.2056 51.4439 32.4619 53.8173C32.8099 54.4646 33.3362 56.1302 34.1086 56.4323C34.6773 56.6739 36.4343 56.1302 37.2747 55.6038V55.6038Z" fill="#ED80AD"/>
<path d="M52.995 95.3555C51.6878 94.6823 50.4146 96.6501 49.1838 96.7968C47.7578 96.9694 46.4506 96.3135 46.2469 95.6058C46.1705 95.3382 46.0771 94.2853 46.0601 94.0523C47.987 93.2669 48.9461 91.8343 48.9376 91.0662C48.9376 90.557 48.6915 90.0823 48.2161 90.0219C47.7069 89.9615 47.3758 90.229 46.9769 90.5225C46.0092 91.2129 45.6103 91.5926 44.0654 91.584C43.0299 91.5754 42.198 91.0489 41.5784 90.4879C41.2983 90.2377 40.6447 89.8061 40.1184 90.2808C38.9725 91.3078 40.806 93.1806 41.7736 93.6122C42.2065 93.8107 42.58 94.0005 42.9874 94.1559C42.9874 94.7859 42.9789 95.4245 42.9704 95.5367C42.9025 96.3566 42.0622 96.7709 41.3152 96.9608C40.6871 97.1161 39.7874 97.0039 39.1847 96.745C38.633 96.5206 38.285 95.9596 37.903 95.5367C37.4956 95.0966 37.0032 94.8981 36.5279 95.1397C35.764 95.5281 35.6961 96.4774 36.1459 97.375C36.6977 98.4711 37.3682 98.8853 38.0982 99.2996C39.1083 99.8778 41.4341 100.059 42.945 99.3514C44.1927 98.7731 44.6256 98.005 45.5254 98.7041C46.7562 99.6534 48.5132 99.7656 50.0835 99.36C51.4162 99.0234 54.769 96.2703 52.995 95.3555V95.3555Z" fill="#2F2F2F"/>
</svg>
