<svg width="102" height="114" viewBox="0 0 102 114" fill="none" xmlns="http://www.w3.org/2000/svg">
<path d="M66.3833 110.075C77.9233 106.87 84.0667 95.5785 86.7833 84.0392C89.5 72.5 101.003 60.5059 101 49.1754C100.997 38.2837 85.6167 20.3309 50.6667 23.3809C14.7433 26.517 1.00333 35.5059 1 55.1531C1 68.8392 18.68 78.4337 28.09 92.7031C34.3367 102.173 52.84 119.359 66.3833 110.075Z" fill="#F21D1D" stroke="#101010"/>
<path d="M78.5098 23.2059C74.2498 20.3059 67.5765 18.9003 60.6765 18.5476C61.5865 18.4448 62.4831 18.3364 63.4098 18.2864C66.6531 18.1114 75.4565 14.8642 68.0765 15.267C64.8465 15.442 61.7398 15.9864 58.6198 16.442C59.4098 16.0142 60.2165 15.592 61.0865 15.2142C61.0031 13.2837 47.6698 13.2837 40.9398 17.9726C39.2331 17.6614 37.6698 16.0614 27.6698 16.0614C21.0031 16.0614 12.0531 18.6337 17.6698 18.8392C20.7265 18.9531 24.3365 18.8392 23.8631 19.8531C21.6798 20.0198 11.0031 21.617 11.0031 24.3948C11.0031 25.3753 20.2031 23.9142 21.0031 24.3948C15.2631 26.1837 11.0031 29.9503 11.0031 32.7281C11.0031 33.9031 18.3731 30.4364 21.0031 29.9503C17.6698 32.7281 16.3365 34.6753 16.5298 36.692C16.6565 38.0114 24.4898 36.442 25.3031 36.2226C28.0431 35.4726 37.6698 32.7281 40.6365 28.6559C41.0265 29.4476 50.5131 32.3809 54.3365 32.7281C56.0998 32.8892 63.0698 33.4892 61.4731 30.7531C61.0031 29.9503 57.6698 27.1726 56.6531 24.4642C58.1398 24.4114 84.3365 27.1726 78.5098 23.2059V23.2059Z" fill="#2E6C0B" stroke="#215007"/>
<path d="M32.94 3.73171C33.857 5.18293 33.393 4.53997 33.0574 3.63753C33.1584 3.7046 33.0746 3.21951 33.4784 3.73171C34.9843 5.61585 36.4058 8.81097 37.7939 12.372C35.7832 8.84756 34.4291 7.67683 30.2478 4.12195C31.148 3.57317 32.1912 3.73171 32.94 3.73171ZM32.0731 1C29.9277 1 27.6899 2.65244 27.1346 3.09146C27.0505 3.15854 27 3.20122 27 3.20122C32.5863 7.95122 34.7568 9.81707 37.1125 14.6768C39.5355 19.6646 40.0571 21.8049 39.914 22.5793C39.8551 22.9085 40.1328 23 40.4861 23C41.0077 23 41.6892 22.7927 41.6892 22.7927C41.6892 22.7927 42.5389 22.7134 41.4284 17.9085C40.6039 14.311 37.2555 5.7561 34.597 2.43903C34.0165 1.71951 33.4781 1.2439 32.9901 1.11585C32.696 1.03906 32.3857 0.999858 32.0731 1Z" fill="#2E6C0B" stroke="#215007"/>
<path d="M41.4312 17.7728C40.6065 14.0854 37.2575 5.31665 34.5985 1.91667C32.3349 3.00417 29.5076 3.98541 27.1346 2.59167C27.0505 2.66042 27 2.70417 27 2.70417C32.5873 7.57289 34.7583 9.48538 37.1144 14.4666C39.5379 19.5791 40.0596 21.7728 39.9165 22.5666C39.7651 23.3916 41.6836 22.7853 41.6836 22.7853C41.6836 22.7853 42.5419 22.6978 41.4312 17.7728V17.7728Z" fill="#2E6C0B" stroke="#215007"/>
<path d="M12.6975 55.3642C13.4009 55.3642 13.962 54.9094 14.3219 54.3337C14.6861 53.7509 14.8951 52.9769 14.8951 52.1481C14.8951 51.3194 14.6861 50.5454 14.3219 49.9626C13.962 49.3869 13.4009 48.9321 12.6975 48.9321C11.9942 48.9321 11.433 49.3869 11.0732 49.9626C10.7089 50.5454 10.5 51.3194 10.5 52.1481C10.5 52.9769 10.7089 53.7509 11.0732 54.3337C11.433 54.9094 11.9942 55.3642 12.6975 55.3642Z" fill="#EEDB74" stroke="#8B0D0D"/>
<path d="M64.6975 55.9321C65.4009 55.9321 65.962 55.4773 66.3219 54.9016C66.6861 54.3188 66.8951 53.5448 66.8951 52.716C66.8951 51.8873 66.6861 51.1133 66.3219 50.5305C65.962 49.9548 65.4009 49.5 64.6975 49.5C63.9942 49.5 63.433 49.9548 63.0732 50.5305C62.7089 51.1133 62.5 51.8873 62.5 52.716C62.5 53.5448 62.7089 54.3188 63.0732 54.9016C63.433 55.4773 63.9942 55.9321 64.6975 55.9321Z" fill="#EEDB74" stroke="#8B0D0D"/>
<path d="M28.6975 49.9321C29.4009 49.9321 29.962 49.4773 30.3219 48.9016C30.6861 48.3188 30.8951 47.5448 30.8951 46.716C30.8951 45.8873 30.6861 45.1133 30.3219 44.5305C29.962 43.9548 29.4009 43.5 28.6975 43.5C27.9942 43.5 27.433 43.9548 27.0732 44.5305C26.7089 45.1133 26.5 45.8873 26.5 46.716C26.5 47.5448 26.7089 48.3188 27.0732 48.9016C27.433 49.4773 27.9942 49.9321 28.6975 49.9321Z" fill="#EEDB74" stroke="#8B0D0D"/>
<path d="M43.6975 51.9321C44.4009 51.9321 44.962 51.4773 45.3219 50.9016C45.6861 50.3188 45.8951 49.5448 45.8951 48.716C45.8951 47.8873 45.6861 47.1133 45.3219 46.5305C44.962 45.9548 44.4009 45.5 43.6975 45.5C42.9942 45.5 42.433 45.9548 42.0732 46.5305C41.7089 47.1133 41.5 47.8873 41.5 48.716C41.5 49.5448 41.7089 50.3188 42.0732 50.9016C42.433 51.4773 42.9942 51.9321 43.6975 51.9321Z" fill="#EEDB74" stroke="#8B0D0D"/>
<path d="M53.6975 44.9321C54.4009 44.9321 54.962 44.4773 55.3219 43.9016C55.6861 43.3188 55.8951 42.5448 55.8951 41.716C55.8951 40.8873 55.6861 40.1133 55.3219 39.5305C54.962 38.9548 54.4009 38.5 53.6975 38.5C52.9942 38.5 52.433 38.9548 52.0732 39.5305C51.7089 40.1133 51.5 40.8873 51.5 41.716C51.5 42.5448 51.7089 43.3188 52.0732 43.9016C52.433 44.4773 52.9942 44.9321 53.6975 44.9321Z" fill="#EEDB74" stroke="#8B0D0D"/>
<path d="M85.6975 51.9321C86.4009 51.9321 86.962 51.4773 87.3219 50.9016C87.6861 50.3188 87.8951 49.5448 87.8951 48.716C87.8951 47.8873 87.6861 47.1133 87.3219 46.5305C86.962 45.9548 86.4009 45.5 85.6975 45.5C84.9942 45.5 84.433 45.9548 84.0732 46.5305C83.7089 47.1133 83.5 47.8873 83.5 48.716C83.5 49.5448 83.7089 50.3188 84.0732 50.9016C84.433 51.4773 84.9942 51.9321 85.6975 51.9321Z" fill="#EEDB74" stroke="#8B0D0D"/>
<path d="M75.6975 42.9321C76.4009 42.9321 76.962 42.4773 77.3219 41.9016C77.6861 41.3188 77.8951 40.5448 77.8951 39.716C77.8951 38.8873 77.6861 38.1133 77.3219 37.5305C76.962 36.9548 76.4009 36.5 75.6975 36.5C74.9942 36.5 74.433 36.9548 74.0732 37.5305C73.7089 38.1133 73.5 38.8873 73.5 39.716C73.5 40.5448 73.7089 41.3188 74.0732 41.9016C74.433 42.4773 74.9942 42.9321 75.6975 42.9321Z" fill="#EEDB74" stroke="#8B0D0D"/>
<path d="M16.7716 67.5864C17.475 67.5864 18.0361 67.1317 18.3959 66.5559C18.7602 65.9731 18.9691 65.1991 18.9691 64.3704C18.9691 63.5416 18.7602 62.7676 18.3959 62.1848C18.0361 61.6091 17.475 61.1543 16.7716 61.1543C16.0682 61.1543 15.5071 61.6091 15.1473 62.1848C14.783 62.7676 14.5741 63.5416 14.5741 64.3704C14.5741 65.1991 14.783 65.9731 15.1473 66.5559C15.5071 67.1317 16.0682 67.5864 16.7716 67.5864Z" fill="#EEDB74" stroke="#8B0D0D"/>
<path d="M35.1049 65.5494C35.8083 65.5494 36.3694 65.0946 36.7293 64.5189C37.0935 63.9361 37.3025 63.1621 37.3025 62.3333C37.3025 61.5046 37.0935 60.7306 36.7293 60.1478C36.3694 59.572 35.8083 59.1173 35.1049 59.1173C34.4016 59.1173 33.8404 59.572 33.4806 60.1478C33.1164 60.7306 32.9074 61.5046 32.9074 62.3333C32.9074 63.1621 33.1164 63.9361 33.4806 64.5189C33.8404 65.0946 34.4016 65.5494 35.1049 65.5494Z" fill="#EEDB74" stroke="#8B0D0D"/>
<path d="M48.6852 65.5494C49.3885 65.5494 49.9497 65.0946 50.3095 64.5189C50.6738 63.9361 50.8827 63.1621 50.8827 62.3333C50.8827 61.5046 50.6738 60.7306 50.3095 60.1478C49.9497 59.572 49.3885 59.1173 48.6852 59.1173C47.9818 59.1173 47.4207 59.572 47.0609 60.1478C46.6966 60.7306 46.4877 61.5046 46.4877 62.3333C46.4877 63.1621 46.6966 63.9361 47.0609 64.5189C47.4207 65.0946 47.9818 65.5494 48.6852 65.5494Z" fill="#EEDB74" stroke="#8B0D0D"/>
<path d="M76.6975 55.9321C77.4009 55.9321 77.962 55.4773 78.3219 54.9016C78.6861 54.3188 78.8951 53.5448 78.8951 52.716C78.8951 51.8873 78.6861 51.1133 78.3219 50.5305C77.962 49.9548 77.4009 49.5 76.6975 49.5C75.9942 49.5 75.433 49.9548 75.0732 50.5305C74.7089 51.1133 74.5 51.8873 74.5 52.716C74.5 53.5448 74.7089 54.3188 75.0732 54.9016C75.433 55.4773 75.9942 55.9321 76.6975 55.9321Z" fill="#EEDB74" stroke="#8B0D0D"/>
<path d="M65.6975 67.9321C66.4009 67.9321 66.962 67.4773 67.3219 66.9016C67.6861 66.3188 67.8951 65.5448 67.8951 64.716C67.8951 63.8873 67.6861 63.1133 67.3219 62.5305C66.962 61.9548 66.4009 61.5 65.6975 61.5C64.9942 61.5 64.433 61.9548 64.0732 62.5305C63.7089 63.1133 63.5 63.8873 63.5 64.716C63.5 65.5448 63.7089 66.3188 64.0732 66.9016C64.433 67.4773 64.9942 67.9321 65.6975 67.9321Z" fill="#EEDB74" stroke="#8B0D0D"/>
<path d="M82.6975 67.5864C83.4009 67.5864 83.962 67.1317 84.3219 66.5559C84.6861 65.9731 84.8951 65.1991 84.8951 64.3704C84.8951 63.5416 84.6861 62.7676 84.3219 62.1848C83.962 61.6091 83.4009 61.1543 82.6975 61.1543C81.9942 61.1543 81.433 61.6091 81.0732 62.1848C80.7089 62.7676 80.5 63.5416 80.5 64.3704C80.5 65.1991 80.7089 65.9731 81.0732 66.5559C81.433 67.1317 81.9942 67.5864 82.6975 67.5864Z" fill="#EEDB74" stroke="#8B0D0D"/>
<path d="M57.5124 79.1296C58.2157 79.1296 58.7768 78.6749 59.1367 78.0991C59.5009 77.5163 59.7099 76.7423 59.7099 75.9136C59.7099 75.0848 59.5009 74.3108 59.1367 73.728C58.7768 73.1523 58.2157 72.6975 57.5124 72.6975C56.809 72.6975 56.2479 73.1523 55.888 73.728C55.5238 74.3108 55.3148 75.0848 55.3148 75.9136C55.3148 76.7423 55.5238 77.5163 55.888 78.0991C56.2479 78.6749 56.809 79.1296 57.5124 79.1296Z" fill="#EEDB74" stroke="#8B0D0D"/>
<path d="M55.6975 90.9321C56.4009 90.9321 56.962 90.4773 57.3219 89.9016C57.6861 89.3188 57.8951 88.5448 57.8951 87.716C57.8951 86.8873 57.6861 86.1133 57.3219 85.5305C56.962 84.9548 56.4009 84.5 55.6975 84.5C54.9942 84.5 54.433 84.9548 54.0732 85.5305C53.7089 86.1133 53.5 86.8873 53.5 87.716C53.5 88.5448 53.7089 89.3188 54.0732 89.9016C54.433 90.4773 54.9942 90.9321 55.6975 90.9321Z" fill="#EEDB74" stroke="#8B0D0D"/>
<path d="M57.5124 102.932C58.2157 102.932 58.7768 102.477 59.1367 101.902C59.5009 101.319 59.7099 100.545 59.7099 99.716C59.7099 98.8873 59.5009 98.1133 59.1367 97.5305C58.7768 96.9548 58.2157 96.5 57.5124 96.5C56.809 96.5 56.2479 96.9548 55.888 97.5305C55.5238 98.1133 55.3148 98.8873 55.3148 99.716C55.3148 100.545 55.5238 101.319 55.888 101.902C56.2479 102.477 56.809 102.932 57.5124 102.932Z" fill="#EEDB74" stroke="#8B0D0D"/>
<path d="M67.6975 100.932C68.4009 100.932 68.962 100.477 69.3219 99.9016C69.6861 99.3188 69.8951 98.5448 69.8951 97.716C69.8951 96.8873 69.6861 96.1133 69.3219 95.5305C68.962 94.9548 68.4009 94.5 67.6975 94.5C66.9942 94.5 66.433 94.9548 66.0732 95.5305C65.7089 96.1133 65.5 96.8873 65.5 97.716C65.5 98.5448 65.7089 99.3188 66.0732 99.9016C66.433 100.477 66.9942 100.932 67.6975 100.932Z" fill="#EEDB74" stroke="#8B0D0D"/>
<path d="M74.6975 91.9321C75.4009 91.9321 75.962 91.4773 76.3219 90.9016C76.6861 90.3188 76.8951 89.5448 76.8951 88.716C76.8951 87.8873 76.6861 87.1133 76.3219 86.5305C75.962 85.9548 75.4009 85.5 74.6975 85.5C73.9942 85.5 73.433 85.9548 73.0732 86.5305C72.7089 87.1133 72.5 87.8873 72.5 88.716C72.5 89.5448 72.7089 90.3188 73.0732 90.9016C73.433 91.4773 73.9942 91.9321 74.6975 91.9321Z" fill="#EEDB74" stroke="#8B0D0D"/>
<path d="M43.6975 100.932C44.4009 100.932 44.962 100.477 45.3219 99.9016C45.6861 99.3188 45.8951 98.5448 45.8951 97.716C45.8951 96.8873 45.6861 96.1133 45.3219 95.5305C44.962 94.9548 44.4009 94.5 43.6975 94.5C42.9942 94.5 42.433 94.9548 42.0732 95.5305C41.7089 96.1133 41.5 96.8873 41.5 97.716C41.5 98.5448 41.7089 99.3188 42.0732 99.9016C42.433 100.477 42.9942 100.932 43.6975 100.932Z" fill="#EEDB74" stroke="#8B0D0D"/>
<path d="M71.6975 78.9321C72.4009 78.9321 72.962 78.4773 73.3219 77.9016C73.6861 77.3188 73.8951 76.5448 73.8951 75.716C73.8951 74.8873 73.6861 74.1133 73.3219 73.5305C72.962 72.9548 72.4009 72.5 71.6975 72.5C70.9942 72.5 70.433 72.9548 70.0732 73.5305C69.7089 74.1133 69.5 74.8873 69.5 75.716C69.5 76.5448 69.7089 77.3188 70.0732 77.9016C70.433 78.4773 70.9942 78.9321 71.6975 78.9321Z" fill="#EEDB74" stroke="#8B0D0D"/>
<path d="M81.6975 79.1296C82.4009 79.1296 82.962 78.6749 83.3219 78.0991C83.6861 77.5163 83.8951 76.7423 83.8951 75.9136C83.8951 75.0848 83.6861 74.3108 83.3219 73.728C82.962 73.1523 82.4009 72.6975 81.6975 72.6975C80.9942 72.6975 80.433 73.1523 80.0732 73.728C79.7089 74.3108 79.5 75.0848 79.5 75.9136C79.5 76.7423 79.7089 77.5163 80.0732 78.0991C80.433 78.6749 80.9942 79.1296 81.6975 79.1296Z" fill="#EEDB74" stroke="#8B0D0D"/>
<path d="M45.2901 76.4136C45.9935 76.4136 46.5546 75.9588 46.9145 75.3831C47.2787 74.8003 47.4877 74.0263 47.4877 73.1975C47.4877 72.3688 47.2787 71.5948 46.9145 71.012C46.5546 70.4362 45.9935 69.9815 45.2901 69.9815C44.5868 69.9815 44.0256 70.4362 43.6658 71.012C43.3015 71.5948 43.0926 72.3688 43.0926 73.1975C43.0926 74.0263 43.3015 74.8003 43.6658 75.3831C44.0256 75.9588 44.5868 76.4136 45.2901 76.4136Z" fill="#EEDB74" stroke="#8B0D0D"/>
<path d="M31.0309 79.1296C31.7342 79.1296 32.2954 78.6749 32.6552 78.0991C33.0194 77.5163 33.2284 76.7423 33.2284 75.9136C33.2284 75.0849 33.0194 74.3108 32.6552 73.7281C32.2954 73.1523 31.7342 72.6975 31.0309 72.6975C30.3275 72.6975 29.7664 73.1523 29.4065 73.7281C29.0423 74.3108 28.8333 75.0849 28.8333 75.9136C28.8333 76.7423 29.0423 77.5163 29.4065 78.0991C29.7664 78.6749 30.3275 79.1296 31.0309 79.1296Z" fill="#EEDB74" stroke="#8B0D0D"/>
<path d="M38.6975 90.9321C39.4009 90.9321 39.962 90.4773 40.3219 89.9016C40.6861 89.3188 40.8951 88.5448 40.8951 87.716C40.8951 86.8873 40.6861 86.1133 40.3219 85.5305C39.962 84.9548 39.4009 84.5 38.6975 84.5C37.9942 84.5 37.433 84.9548 37.0732 85.5305C36.7089 86.1133 36.5 86.8873 36.5 87.716C36.5 88.5448 36.7089 89.3188 37.0732 89.9016C37.433 90.4773 37.9942 90.9321 38.6975 90.9321Z" fill="#EEDB74" stroke="#8B0D0D"/>
</svg>
