<svg width="101" height="101" viewBox="0 0 101 101" fill="none" xmlns="http://www.w3.org/2000/svg">
<path d="M99.8654 25.749C100.635 31.4995 94.6582 35.3462 95.96 36.4103C96.4672 36.8204 97.4647 36.2248 98.3016 36.0393C99.5695 35.7757 100.643 36.0784 100.643 39.3197C100.643 44.7187 96.687 49.8834 96.222 50.8597C95.3345 52.6757 98.403 49.7272 98.496 53.3591C98.589 56.9714 93.4747 59.5587 92.3674 61.7358C91.2515 63.913 94.1256 61.3355 93.4156 65.3579C92.6886 69.3803 89.2227 71.001 87.4391 72.6608C85.6724 74.3205 89.5947 72.3971 88.1576 76.0485C86.9826 79.0361 78.8083 78.6553 77.7009 79.739C77.1515 80.2857 80.1608 80.8715 79.7128 82.502C79.2648 84.1324 75.3763 86.8172 70.896 85.8214C70.896 85.8214 71.1581 88.7015 67.929 90.3613C64.6998 92.021 52.1044 86.6025 52.1044 86.6025C52.1044 86.6025 46.0688 76.1755 44.5641 63.1417C43.0425 50.0396 48.1568 33.208 48.1568 33.208C48.2244 32.3879 48.4019 31.4409 48.7569 30.3279C50.194 25.7881 52.2481 27.9653 52.2481 27.9653C52.2481 27.9653 51.3521 23.8452 53.4654 20.9456C55.5703 18.0362 57.5652 19.4714 57.5652 19.4714C57.5652 19.4714 58.6726 14.2188 60.8282 11.5437C62.9753 8.88815 66.0777 10.5186 66.0777 10.5186C66.0777 10.5186 67.295 5.61751 70.541 3.80157C73.7871 1.98564 75.4355 4.17257 76.2639 4.90481C77.0923 5.61751 79.6198 0.374725 83.9225 1.58535C88.631 2.91313 87.7181 9.00531 88.7409 10.0988C89.5186 10.9384 92.8069 8.54644 94.8442 12.1393C97.3379 16.5327 94.6244 19.5202 95.1654 21.834C95.5204 23.3083 99.2399 21.0335 99.8654 25.749V25.749Z" fill="#403732"/>
<path d="M46.0265 31.7729C50.0503 32.5345 52.9498 33.9599 54.7165 34.8386C56.796 35.8832 59.6278 37.3281 62.6879 40.1497C64.5899 41.907 67.5063 45.0508 69.9915 50.0788C70.5664 50.7426 72.2401 53.9157 70.8031 61.6969C69.366 69.478 67.9289 74.3108 62.7555 79.905C60.321 82.5313 56.424 84.6402 52.0114 86.2804C51.0224 86.6513 49.9911 86.9833 48.9429 87.2762C48.9429 87.2762 47.6411 87.7936 45.8406 88.0182C42.2226 88.477 36.3898 88.7797 33.6425 88.3599C33.3973 88.3208 33.1691 88.2818 32.9324 88.2525C22.425 86.4854 13.0926 80.979 9.51685 69.3218C8.05444 64.5282 7.88537 58.8363 8.19814 54.1207C8.19814 54.1207 8.73915 57.2644 11.1314 56.9325C12.5938 56.7372 13.2025 55.7218 13.4561 54.9798C13.5575 54.6479 13.9295 54.5698 14.1492 54.8041C14.7832 55.507 15.9329 56.3564 17.4038 55.5363C18.6126 54.8627 18.9592 53.7692 19.0099 52.8808C19.0352 52.5 19.4072 52.2852 19.6777 52.5098C20.168 52.9198 20.8611 53.1737 21.6811 52.5098C22.7631 51.6311 22.4081 50.0104 22.0531 49.0341C21.9347 48.7314 22.1122 48.3995 22.3996 48.3605C22.7885 48.3214 23.3295 48.0773 23.9888 47.3549C25.3583 45.8513 22.8308 43.7816 22.5772 43.5668C23.2111 41.8582 24.5552 38.8707 27.2265 36.2542C29.847 33.6865 32.4421 32.7492 34.0482 32.1928C38.9258 30.4842 43.0848 31.2164 46.0265 31.7729V31.7729Z" fill="#403732"/>
<path d="M34.902 99.4312C35.1641 100.085 34.7499 100.632 34.1328 100.632H10.21C6.35533 100.632 6.778 100.408 7.16685 98.2499C7.67404 95.4284 11.0554 93.6027 12.7629 92.8021C13.3715 92.5092 14.0647 92.6068 14.6226 92.9973L20.0243 96.4925C20.3455 96.7073 20.7174 96.6585 21.0809 96.6585H24.6228C25.1723 96.6585 25.6711 96.4535 25.857 95.8579L28.9425 86.3389C29.0862 85.8898 29.4835 85.675 29.8892 85.7629L30.9882 86.007C31.5123 86.1143 31.825 86.7489 31.6391 87.325L29.213 94.7938C28.9002 95.7896 29.5342 96.6585 30.4556 96.6585H33.0339C33.5495 96.6585 34.0144 97.0978 34.2342 97.6446L34.902 99.4312Z" fill="#F79329"/>
<path d="M35.2486 7.2968C38.6469 14.5606 33.6425 23.2497 33.1691 24.0503C30.1598 29.1076 27.1251 28.844 24.3777 34.7604C22.4081 38.9683 22.0108 43.3227 22.5349 43.5472C22.5434 43.5472 22.5434 43.557 22.5603 43.557C22.8139 43.7718 25.3414 45.8415 23.972 47.3451C23.3126 48.0773 22.7801 48.3116 22.3828 48.3507C22.0954 48.3897 21.9263 48.7217 22.0362 49.0243C22.3912 50.0104 22.7463 51.6311 21.6642 52.5C20.8443 53.1639 20.1596 52.91 19.6608 52.5C19.3988 52.2754 19.0184 52.5 18.993 52.871C18.9338 53.7594 18.5872 54.8529 17.3869 55.5265C15.916 56.3466 14.7664 55.4973 14.1324 54.7943C13.9126 54.56 13.5491 54.6381 13.4392 54.97C13.1856 55.712 12.577 56.7176 11.1146 56.9227C8.72228 57.2546 8.18127 54.1109 8.18127 54.1109C8.18973 54.0328 8.18973 53.9644 8.20663 53.8863C9.23793 53.6032 10.2439 53.076 11.0216 52.4219C12.7799 50.9476 13.3631 48.6338 14.4705 44.0939C15.4257 40.1789 16.3133 36.5178 16.195 31.3629C16.1187 27.8725 15.5945 24.4145 14.6396 21.1018C14.7326 20.9652 14.7748 20.9066 14.7748 20.9066C15.6455 17.7433 14.1662 15.7517 14.1662 15.7517C14.0478 14.9901 13.3462 9.68877 16.6261 5.19774C20.0412 0.511447 24.9695 0.618842 25.6711 0.648131C29.754 0.814104 33.4819 3.49896 35.2486 7.2968V7.2968Z" fill="#FFE0CE"/>
<path d="M20.2525 8.43909C21.3937 8.43909 22.3067 10.0207 22.3067 11.9538C22.3067 13.9064 21.3852 15.488 20.2525 15.488C19.1113 15.488 18.1815 13.9064 18.1815 11.9538C18.1899 10.0207 19.1198 8.43909 20.2525 8.43909Z" fill="#292323"/>
<path d="M50.287 96.6389L51.4451 99.7045C51.5888 100.066 51.3606 100.642 51.0224 100.642H37.1844C36.8209 100.642 36.5927 99.8607 36.7787 99.4995L38.4271 96.0531C38.9512 95.0085 40.2022 94.7644 40.9123 95.6529L41.0729 96.141C41.1913 96.2875 41.3603 96.6682 41.5463 96.6682H43.7442C43.9639 96.6682 44.1584 96.1508 44.2006 95.8969L44.9361 86.9539C45.9927 86.7391 47.0494 86.5829 48.0638 86.29L47.2607 95.7212C47.2015 96.0531 47.4298 96.6585 47.7256 96.6585H49.8643C50.0503 96.6487 50.2109 96.4437 50.287 96.6389V96.6389Z" fill="#F79329"/>
<path d="M8.22339 53.8961C6.72716 54.3257 5.15485 54.1987 4.04748 53.1834C1.74819 51.055 2.64423 46.1442 2.70341 45.8806C4.04748 39.0171 11.0383 36.2834 12.281 30.7185C12.6698 28.9904 12.8558 27.0671 12.8558 27.0671C13.0079 25.5147 13.0248 24.1284 12.991 23.0154C13.7941 22.3222 14.4027 21.4923 14.6563 21.1213C15.434 23.8257 16.1187 27.3209 16.2117 31.3824C16.3301 36.5373 15.4425 40.1984 14.4873 44.1134C13.3799 48.6533 12.7966 50.9671 11.0383 52.4414C10.2606 53.0857 9.26314 53.6129 8.22339 53.8961V53.8961Z" fill="#F24338"/>
<path d="M12.9996 23.0154C12.1289 23.7769 11.0469 24.3432 9.97331 23.9331C8.88283 23.5036 6.83714 22.0098 5.15494 21.6095C3.20224 21.1409 0.691616 22.1563 0.691616 22.1563C0.252046 19.0223 2.87256 14.9999 5.50998 14.5996C8.13049 14.1896 10.4213 16.8842 11.3935 16.8158C12.6192 16.7377 14.183 15.7712 14.183 15.7712C14.183 15.7712 15.6624 17.7629 14.7917 20.9261C14.7917 20.9261 14.7494 20.9945 14.6564 21.1214C14.4113 21.4826 13.8026 22.3222 12.9996 23.0154V23.0154Z" fill="#F79329"/>
<path d="M76.5597 59.3537C77.4727 58.6215 78.0306 57.2351 78.1912 56.0538C78.2673 55.5168 78.4702 52.8515 78.0644 53.1346L75.9426 55.0384C75.9426 55.0384 75.334 55.5363 75.2241 55.0384C75.1142 54.5405 76.2132 53.6813 76.8049 53.076C77.4642 52.4121 78.2673 51.3968 78.6646 50.0983C79.0788 48.7607 78.9858 47.101 78.8675 46.3297C78.8504 46.2222 78.809 46.1218 78.7474 46.0389C78.6857 45.956 78.6061 45.8934 78.5167 45.8577C78.4273 45.8219 78.3312 45.8142 78.2384 45.8354C78.1456 45.8566 78.0593 45.9059 77.9883 45.9782C77.1515 46.8276 75.4946 48.3116 73.3475 49.3563C71.3356 50.3326 68.5376 50.6645 66.6779 50.5181C61.8849 50.1276 53.8965 45.7537 43.144 46.5347C42.7044 46.5445 34.3695 46.8081 31.2164 53.6716C29.3482 57.7233 30.1259 62.2826 31.8081 66.1293C33.0085 68.8727 38.8582 74.7599 45.2235 76.1853C49.1711 77.064 54.8179 78.4991 61.2678 76.9078C62.4428 76.6149 64.6998 76.2243 66.4919 75.414C67.5316 74.9454 68.2755 74.6915 68.825 73.9202C69.3745 73.149 69.7126 72.6803 69.721 72.3484C69.7379 71.7431 66.0946 72.6218 65.9171 71.909C65.7395 71.1963 67.5401 71.1768 68.5545 71.0206C69.3322 70.8937 71.1496 70.8449 72.164 70.3762C73.1784 69.9076 73.9646 69.4097 74.9367 66.3245C75.0466 65.9828 73.711 67.1837 71.3694 67.1935C70.8115 67.1935 70.6171 66.1 71.5808 65.934C73.2714 65.6411 74.6408 65.3775 75.4946 64.5086C77.3374 62.6536 77.2529 60.6815 77.4473 59.8516C77.5995 59.1975 76.2216 60.8963 74.4041 61.4039C73.9308 61.5406 73.9308 60.9451 74.3619 60.7205C75.6468 60.0566 75.6468 60.0859 76.5597 59.3537V59.3537Z" fill="#855C52"/>
<path d="M78.1743 73.3442C77.885 73.3466 77.6057 73.2229 77.392 72.9978C77.1783 72.7728 77.0459 72.4629 77.0214 72.13C76.9968 71.7972 77.0819 71.4659 77.2595 71.2023C77.4372 70.9388 77.6944 70.7623 77.9798 70.7082C79.3577 70.4348 80.6257 69.7709 80.9892 69.1363C81.0737 68.9898 81.0653 68.9117 81.0484 68.8336C80.8032 67.623 80.2538 67.4668 80.1439 67.4473C79.5352 67.3399 79.0788 66.7053 79.1379 65.9926C79.1971 65.2896 79.7128 64.7624 80.3129 64.8015C81.1667 64.8601 82.7475 65.6411 83.28 68.2186C83.4491 69.0387 83.3138 69.8588 82.8996 70.591C81.8092 72.4948 79.1548 73.1587 78.3687 73.3247C78.3095 73.3344 78.2419 73.3442 78.1743 73.3442Z" fill="#B89278"/>
<path d="M83.018 62.4583C82.5869 62.4583 82.1727 62.1752 81.9782 61.687C81.7077 61.0231 81.9613 60.2323 82.5362 59.9199C83.7196 59.2853 85.4779 57.8404 85.4948 56.7762C85.5202 55.7315 85.0214 55.4582 84.7256 55.38C84.1169 55.2336 83.7027 54.5404 83.8211 53.8277C83.9394 53.115 84.4973 52.6464 85.1229 52.7635C86.0696 52.9393 87.8533 54.023 87.7941 56.8348C87.7265 59.9687 83.931 62.0873 83.4998 62.3216C83.3477 62.4192 83.1786 62.4583 83.018 62.4583V62.4583Z" fill="#B89278"/>
<path d="M84.8017 52.3535C84.4297 52.3535 84.0662 52.1485 83.8464 51.758C83.4914 51.1429 83.6351 50.3228 84.1677 49.9127C84.8946 49.3562 86.7797 47.4524 86.8135 45.4803C86.822 44.7871 86.6191 44.5821 86.5515 44.5137C86.1964 44.1525 85.4357 44.1427 85.1905 44.1818C84.8928 44.219 84.5943 44.1211 84.358 43.9086C84.1217 43.6962 83.9663 43.3859 83.9246 43.0434C83.8828 42.701 83.9581 42.3532 84.1344 42.0737C84.3107 41.7942 84.5743 41.6049 84.8693 41.5458C85.0637 41.5165 86.8473 41.2626 88.0731 42.5123C88.5549 43.0102 89.1297 43.9377 89.1044 45.5193C89.0367 49.2977 85.5794 51.9923 85.4272 52.1094C85.2412 52.2754 85.0214 52.3535 84.8017 52.3535V52.3535Z" fill="#B89278"/>
<path d="M85.5201 40.4133C85.1482 40.4133 84.7847 40.2083 84.5565 39.8178C84.2099 39.2027 84.3536 38.3826 84.8777 37.9823C85.275 37.6699 86.3908 36.5374 86.2302 35.4829C86.0865 34.5262 85.4948 34.4285 85.1228 34.4285C84.4973 34.4871 83.9563 33.9013 83.9225 33.1788C83.9039 32.8323 84.0044 32.4913 84.2023 32.2299C84.4001 31.9685 84.6793 31.8078 84.9791 31.7827C86.1795 31.6656 88.1238 32.4564 88.5042 35.0338C88.9522 38.0311 86.2725 40.1204 86.1541 40.1985C85.9597 40.345 85.7399 40.4133 85.5201 40.4133V40.4133Z" fill="#B89278"/>
<path d="M84.6072 31.1286C84.3029 31.1286 83.9986 30.9919 83.7703 30.7088C83.3308 30.1718 83.3561 29.3322 83.8126 28.8343C84.2099 28.3949 84.9792 27.2136 84.8186 26.4033C84.6833 25.7199 83.5083 25.5636 83.2801 25.5636C82.6461 25.5539 82.1389 24.9486 82.1473 24.2163C82.1558 23.4841 82.6545 22.9569 83.3139 22.9081C84.4889 22.9276 86.6022 23.5622 87.0502 25.8077C87.5574 28.3071 85.6047 30.5233 85.3849 30.7674C85.182 31.0017 84.8946 31.1286 84.6072 31.1286V31.1286Z" fill="#B89278"/>
<path d="M80.8793 21.3947C80.837 21.3947 80.7948 21.3947 80.761 21.385C80.6104 21.3667 80.4645 21.3143 80.3315 21.2307C80.1986 21.1472 80.0812 21.0341 79.9862 20.8981C79.8911 20.762 79.8203 20.6056 79.7777 20.4379C79.7352 20.2701 79.7217 20.0943 79.7381 19.9205C79.7719 19.4909 79.8565 17.2844 78.039 16.9232C75.9764 16.5229 75.0381 18.9344 75.0296 18.9539C74.776 19.6276 74.0998 19.9303 73.5165 19.6374C72.9332 19.3445 72.6712 18.5634 72.9248 17.8898C73.4911 16.3862 75.3678 13.7014 78.4194 14.2969C81.6401 14.9315 82.1811 18.4267 82.0205 20.1939C81.9914 20.5211 81.8589 20.8244 81.6484 21.0459C81.4379 21.2675 81.1641 21.3916 80.8793 21.3947V21.3947Z" fill="#B89278"/>
<path d="M64.9111 25.8467C64.3954 25.8467 63.9305 25.4464 63.7952 24.8411C63.7614 24.6947 63.0344 21.1409 64.9872 18.9344C66.6186 17.0892 69.0109 17.6262 70.1606 18.2413C70.7354 18.5439 70.989 19.3347 70.7269 19.9986C70.4649 20.6625 69.7802 20.9554 69.2053 20.6528C69.1969 20.6528 67.5062 19.8034 66.5933 20.8383C65.6042 21.961 66.0269 24.1968 66.0269 24.2163C66.1706 24.929 65.7987 25.6417 65.1816 25.8174C65.0971 25.837 65.0041 25.8467 64.9111 25.8467V25.8467Z" fill="#B89278"/>
<path d="M57.8864 35.1412C57.3792 35.1412 56.9058 34.7409 56.7706 34.1454C56.7452 34.0087 56.052 30.8064 57.7427 28.3656C59.1882 26.2763 61.0479 26.2275 61.9186 26.5302C62.5272 26.7449 62.8738 27.4772 62.6879 28.1801C62.5019 28.8831 61.8679 29.2834 61.2593 29.0686C61.1916 29.049 60.3463 28.8538 59.5348 30.0156C58.5711 31.4019 58.9938 33.4522 59.0022 33.4717C59.1628 34.1844 58.7909 34.9069 58.1738 35.0924C58.0808 35.1315 57.9878 35.1412 57.8864 35.1412V35.1412Z" fill="#B89278"/>
</svg>
