<svg width="30" height="20" viewBox="0 0 177 101" fill="none" xmlns="http://www.w3.org/2000/svg">
<path d="M11.4221 40.0605L11.0196 40.3572L11.1964 40.5971L11.4915 40.5557L21.1263 39.2037L21.8459 39.1027L21.4944 38.4667L21.0568 38.7085L21.4944 38.4666L21.4942 38.4663L21.4933 38.4646L21.4893 38.4574L21.4734 38.4284L21.4105 38.3131C21.3553 38.2114 21.274 38.0608 21.1704 37.8663C20.9632 37.4774 20.6668 36.9129 20.311 36.2128C19.5991 34.8122 18.6502 32.8706 17.7018 30.7058C16.7529 28.5399 15.8075 26.1573 15.1001 23.8736C14.3903 21.5822 13.9309 19.4241 13.9309 17.6963C13.9309 15.9951 14.4263 14.6746 15.2114 13.7085C15.9987 12.7398 17.1016 12.0977 18.3637 11.7981C20.8975 11.1968 24.0357 11.9893 26.3282 14.2421C28.7198 16.5922 30.915 19.1221 32.5141 21.0672C33.3131 22.0391 33.9621 22.8635 34.411 23.4445C34.6354 23.735 34.8097 23.9646 34.9278 24.1212C34.9868 24.1995 35.0317 24.2595 35.0617 24.2999L35.0955 24.3454L35.1039 24.3567L35.1059 24.3594L35.1064 24.36L35.1064 24.3601L35.3592 24.703L35.7378 24.508L40.5552 22.0275L41.0318 21.7821L40.7538 21.3237L40.3263 21.5829C40.7538 21.3237 40.7538 21.3236 40.7537 21.3235L40.7534 21.3229L40.7521 21.3209L40.7475 21.3132L40.7292 21.2833L40.6582 21.1675C40.5959 21.0661 40.5038 20.9173 40.3846 20.7265C40.1461 20.3451 39.7988 19.796 39.3628 19.1242C38.491 17.7808 37.2631 15.945 35.8395 13.9756C33.0077 10.0583 29.3491 5.53802 26.1553 3.36611C24.6192 2.32066 22.3121 1.45208 19.7382 0.95483C17.1582 0.45641 14.2689 0.322959 11.5545 0.780785C8.84143 1.23837 6.27048 2.29283 4.37396 4.19965C2.46749 6.11647 1.28732 8.85008 1.28732 12.5695C1.28732 19.8843 3.72847 26.8341 6.15306 31.9376C7.36704 34.493 8.581 36.594 9.49219 38.0574C9.94789 38.7892 10.3282 39.362 10.5952 39.7529C10.7288 39.9483 10.8341 40.0983 10.9064 40.2C10.9425 40.2508 10.9704 40.2896 10.9895 40.3159L11.0114 40.346L11.0172 40.354L11.0189 40.3562L11.0193 40.3569C11.0195 40.3571 11.0196 40.3572 11.4221 40.0605ZM165.804 40.5971L165.98 40.3572L165.578 40.0605C165.98 40.3572 165.981 40.3571 165.981 40.3569L165.981 40.3562L165.983 40.354L165.989 40.346L166.011 40.3159C166.03 40.2896 166.058 40.2508 166.094 40.2C166.166 40.0983 166.271 39.9483 166.405 39.7529C166.672 39.362 167.052 38.7892 167.508 38.0574C168.419 36.594 169.633 34.493 170.847 31.9376C173.272 26.8341 175.713 19.8843 175.713 12.5695C175.713 8.85008 174.533 6.11647 172.626 4.19965C170.73 2.29283 168.159 1.23837 165.446 0.780785C162.731 0.322959 159.842 0.45641 157.262 0.95483C154.688 1.45208 152.381 2.32066 150.845 3.36611C147.651 5.53802 143.992 10.0583 141.161 13.9756C139.737 15.945 138.509 17.7808 137.637 19.1242C137.201 19.796 136.854 20.3451 136.615 20.7265C136.496 20.9173 136.404 21.0661 136.342 21.1675L136.271 21.2833L136.253 21.3132L136.248 21.3209L136.247 21.3229L136.246 21.3235C136.246 21.3236 136.246 21.3237 136.674 21.5829L136.246 21.3237L135.968 21.7821L136.445 22.0275L141.262 24.508L141.641 24.703L141.894 24.3601L141.894 24.36L141.894 24.3594L141.896 24.3567L141.905 24.3454L141.938 24.2999L141.973 24.253C142 24.2175 142.033 24.1734 142.072 24.1212C142.19 23.9646 142.365 23.735 142.589 23.4445C143.038 22.8635 143.687 22.0391 144.486 21.0672C146.085 19.1221 148.28 16.5922 150.672 14.2421C152.964 11.9893 156.103 11.1968 158.636 11.7981C159.898 12.0977 161.001 12.7398 161.789 13.7085C162.574 14.6746 163.069 15.9951 163.069 17.6963C163.069 19.4241 162.61 21.5822 161.9 23.8736C161.193 26.1573 160.247 28.5399 159.298 30.7058C158.35 32.8706 157.401 34.8122 156.689 36.2128C156.333 36.9129 156.037 37.4774 155.83 37.8663C155.726 38.0608 155.645 38.2114 155.589 38.3131L155.527 38.4284L155.511 38.4574L155.507 38.4646L155.506 38.4663L155.506 38.4666L155.943 38.7085L155.506 38.4667L155.154 39.1027L155.874 39.2037L165.508 40.5557L165.804 40.5971Z" fill="#926D4B" stroke="black"/>
<path d="M88.4996 100.5C118.435 100.5 136.928 90.9918 147.934 79.2733C158.927 67.5694 162.407 53.7079 162.407 45.0612C162.407 42.2318 160.494 39.739 157.118 37.61C153.732 35.4752 148.771 33.6354 142.423 32.1276C129.719 29.1102 111.323 27.3923 88.4996 27.3923C65.6759 27.3923 47.2806 29.1102 34.5764 32.1276C28.2282 33.6354 23.2674 35.4752 19.8816 37.61C16.505 39.739 14.5925 42.2318 14.5925 45.0612C14.5925 53.7079 18.0723 67.5694 29.0651 79.2733C40.0715 90.9918 58.5642 100.5 88.4996 100.5Z" fill="#926D4B" stroke="black"/>
<path d="M84.4964 87.3066V86.8118L84.0016 86.8066C66.4521 86.6229 51.0417 85.4123 38.748 82.7152L38.3263 83.5923C43.5324 87.8061 49.7749 91.2183 56.7046 93.6444L56.7611 93.6642L56.8208 93.6701C65.1106 94.4867 74.2354 94.9018 83.9911 95.0065L84.4964 95.0119V94.5065V87.3066ZM93.6258 86.8066L93.1312 86.8119V87.3066V94.5101V95.0155L93.6365 95.0101C103.387 94.9054 112.512 94.494 120.807 93.6737L120.867 93.6678L120.923 93.648C127.852 91.2206 134.094 87.8086 139.301 83.596L138.88 82.7188C126.586 85.4087 111.175 86.6193 93.6258 86.8066ZM46.5201 69.8794L46.402 69.668L46.163 69.6296C37.6582 68.2631 30.2753 66.3753 24.3647 63.7955L23.1949 63.2849L23.7066 64.4542C25.0794 67.5911 26.8605 70.7485 29.1077 73.8355L29.2025 73.9657L29.3554 74.0161C35.6545 76.092 43.151 77.5827 51.5275 78.6377L52.7776 78.7952L51.9756 77.8234C49.8806 75.2849 48.0567 72.6286 46.5201 69.8794ZM114.261 79.8158L114.466 79.8012L114.601 79.6469C116.828 77.1105 118.71 74.4906 120.304 71.8568L120.819 71.0056L119.829 71.1002C110.44 71.9961 100.065 72.4211 88.8138 72.4211C77.0623 72.4211 66.2791 71.9564 56.5735 70.9707L55.58 70.8698L56.0944 71.7257C57.6847 74.3718 59.576 76.9953 61.8021 79.5416L61.9366 79.6955L62.1405 79.711C70.3693 80.3395 79.2944 80.6318 88.8138 80.6318C97.8555 80.6318 106.37 80.3756 114.261 79.8158ZM130.216 69.8165L129.975 69.8531L129.856 70.0652C128.311 72.804 126.481 75.4495 124.381 77.9772L123.58 78.9412L124.825 78.7932C133.727 77.7346 141.658 76.1971 148.277 74.0124L148.43 73.962L148.525 73.8319C150.772 70.7449 152.553 67.5875 153.926 64.4506L154.438 63.2809L153.268 63.7919C147.066 66.5005 139.246 68.4425 130.216 69.8165Z" fill="#D1B79F" stroke="black"/>
<path d="M88.5 73.0001C112.471 73.0001 132.832 70.7423 147.217 64.8053C154.416 61.8342 160.145 57.9308 164.075 52.902C168.011 47.866 170.118 41.732 170.118 34.3513C170.118 30.3944 168.095 26.8136 164.351 23.6908C160.614 20.5733 155.131 17.8816 148.108 15.6753C134.06 11.2613 113.724 8.75012 88.5 8.75012C63.2761 8.75012 42.9397 11.2613 28.8916 15.6753C21.8695 17.8816 16.3861 20.5733 12.6489 23.6908C8.90531 26.8136 6.88171 30.3944 6.88171 34.3513C6.88171 41.732 8.98898 47.866 12.9248 52.902C16.855 57.9308 22.5844 61.8342 29.783 64.8053C44.1679 70.7423 64.5292 73.0001 88.5 73.0001Z" fill="#926D4B" stroke="black"/>
<path d="M88.4999 61.421C108.798 61.421 127.195 58.7925 140.534 54.5297C147.201 52.3993 152.632 49.8518 156.408 46.9994C160.175 44.1531 162.372 40.9392 162.372 37.4737C162.372 34.0081 160.175 30.7942 156.408 27.948C152.632 25.0955 147.201 22.5481 140.534 20.4176C127.195 16.1548 108.798 13.5263 88.4999 13.5263C68.2016 13.5263 49.8048 16.1548 36.4656 20.4176C29.7989 22.5481 24.3675 25.0955 20.5921 27.948C16.825 30.7942 14.6276 34.0081 14.6276 37.4737C14.6276 40.9392 16.825 44.1531 20.5921 46.9994C24.3675 49.8518 29.7989 52.3993 36.4656 54.5297C49.8048 58.7925 68.2016 61.421 88.4999 61.421Z" fill="#926D4B" stroke="black"/>
<path d="M59.049 59.4606L59.0946 59.467L59.1406 59.465C68.4494 59.0487 78.3659 58.8487 88.8478 58.8487C99.132 58.8487 108.879 59.0409 118.043 59.4393L118.089 59.4413L118.134 59.4349C121.879 58.9074 125.462 58.2828 128.851 57.5709L129.718 57.3889L129.114 56.7408C127.49 54.9976 125.682 53.2718 123.666 51.5838L123.538 51.4766L123.371 51.4679C112.668 50.9098 101.116 50.6543 88.8478 50.6543C75.9312 50.6543 63.8232 50.9458 52.6618 51.5723L52.4956 51.5817L52.3681 51.6888C50.4584 53.2944 48.7295 54.9313 47.1703 56.5861L46.5625 57.2311L47.4289 57.4178C51.0841 58.2053 54.9708 58.8905 59.049 59.4606ZM36.9859 54.6944L37.2642 54.7816L37.4771 54.5823C37.8602 54.2238 38.2506 53.8674 38.6482 53.5133L39.7839 52.5019L38.2696 52.6421C37.107 52.7497 35.9571 52.8618 34.8203 52.9787L34.7096 53.9491C35.4515 54.2029 36.2105 54.4514 36.9859 54.6944ZM22.8499 48.5474L23.0063 48.6453L23.1888 48.6181C25.676 48.2478 28.2482 47.9072 30.8994 47.5941L31.1103 47.5693L31.2388 47.4003C33.3241 44.658 35.8009 42.0064 38.6482 39.4708L39.7839 38.4593L38.2696 38.5995C30.3405 39.3335 22.999 40.2786 16.3894 41.4844L15.6738 41.615L16.052 42.2363C17.4286 44.4981 19.7573 46.6123 22.8499 48.5474ZM142.452 53.8936L142.339 52.9234C140.815 52.7697 139.267 52.6244 137.697 52.4871L136.187 52.3551L137.322 53.3597C137.853 53.8293 138.371 54.3028 138.876 54.7802L139.087 54.9801L139.366 54.895C140.425 54.5712 141.454 54.2372 142.452 53.8936ZM161.019 42.1172L161.387 41.4971L160.677 41.3701C153.753 40.1311 146.043 39.174 137.697 38.4446L136.187 38.3126L137.322 39.3172C140.176 41.8421 142.662 44.483 144.758 47.2149L144.887 47.3838L145.099 47.4075C148.148 47.7485 151.098 48.1246 153.938 48.5392L154.121 48.5659L154.277 48.4672C157.36 46.5203 159.671 44.3931 161.019 42.1172ZM20.4813 33.6172L20.8166 34.5405C37.5349 31.8449 58.4788 30.6366 82.312 30.4532L82.8081 30.4494V29.9533V20.6632V20.167L82.312 20.1632L82.3081 20.6632C82.312 20.1632 82.3118 20.1632 82.3116 20.1632L82.3107 20.1632L82.3075 20.1632L82.2947 20.1631L82.2446 20.1628C82.2005 20.1626 82.135 20.1623 82.0491 20.1621C81.8773 20.1617 81.6239 20.1616 81.2967 20.1628C80.6422 20.1651 79.6923 20.1724 78.509 20.1924C76.1426 20.2325 72.8419 20.3237 69.1037 20.5281C61.6368 20.9362 52.389 21.7973 45.3579 23.6165C35.2357 26.2355 27.5289 29.4247 20.4813 33.6172ZM95.3836 20.1667L94.8875 20.1706V20.6666V29.9533V30.4493L95.3836 30.4532C119.217 30.6402 140.161 31.8485 156.879 34.537L157.214 33.6135C150.165 29.4223 142.46 26.2311 132.338 23.6129C125.306 21.7943 116.059 20.9349 108.592 20.5284C104.854 20.3249 101.553 20.2345 99.1865 20.1949C98.0032 20.1751 97.0533 20.1681 96.3988 20.1659C96.0716 20.1649 95.8182 20.1651 95.6464 20.1655C95.5605 20.1657 95.495 20.166 95.4509 20.1662L95.4008 20.1665L95.388 20.1666L95.3848 20.1667L95.3839 20.1667C95.3837 20.1667 95.3836 20.1667 95.3875 20.6666L95.3836 20.1667ZM123.666 37.5413L123.538 37.4341L123.371 37.4254C112.668 36.8673 101.116 36.6117 88.8478 36.6117C75.9312 36.6117 63.8232 36.9032 52.6618 37.5298L52.4956 37.5391L52.3681 37.6463C49.3502 40.1835 46.7842 42.7991 44.6252 45.4393L43.8878 46.3412L45.0495 46.2545C58.2379 45.27 72.8871 44.8062 88.8478 44.8062C104.129 44.8062 118.223 45.2304 130.981 46.1251L132.141 46.2065L131.402 45.3085C129.237 42.6805 126.685 40.0685 123.666 37.5413Z" fill="#D1B79F" stroke="black"/>
</svg>
