<svg width="263" height="220" viewBox="0 0 263 220" fill="none" xmlns="http://www.w3.org/2000/svg">
<path d="M133.009 3.25852L240.306 126.611C241.432 127.906 240.512 129.924 238.797 129.924H24.2033C22.4877 129.924 21.5684 127.906 22.6943 126.611L129.991 3.25853C130.788 2.34198 132.212 2.34198 133.009 3.25852Z" fill="#C43F3A" stroke="#9C211C" stroke-width="2"/>
<path d="M136.04 23.3414L215.664 128.712V219.5H43.7329V128.721L128.949 23.2267C130.788 20.9504 134.276 21.0069 136.04 23.3414Z" fill="#FCDA6C" stroke="#877231"/>
<rect x="157.32" y="165" width="39.1508" height="54.571" fill="url(#paint0_linear)"/>
<ellipse cx="190.598" cy="189.037" rx="3.26255" ry="3.24827" fill="#FEC418"/>
<rect x="74.1143" y="101.992" width="44.8921" height="49.7318" rx="5" fill="#816646"/>
<rect x="77.0789" y="105.217" width="39.1508" height="44.1766" rx="5" fill="url(#paint1_linear)"/>
<line x1="97.6544" y1="105.217" x2="97.6544" y2="149.394" stroke="#644B2D" stroke-width="2"/>
<line x1="116.23" y1="128.306" x2="77.0791" y2="128.306" stroke="#644B2D" stroke-width="2"/>
<rect x="147.805" y="101.992" width="44.8921" height="49.7318" rx="5" fill="#816646"/>
<rect x="150.77" y="105.217" width="39.1509" height="44.1766" rx="5" fill="url(#paint2_linear)"/>
<line x1="171.345" y1="105.217" x2="171.345" y2="149.394" stroke="#644B2D" stroke-width="2"/>
<line x1="189.921" y1="128.306" x2="150.77" y2="128.306" stroke="#644B2D" stroke-width="2"/>
<path d="M149.365 176.433L155.222 163.682H198.222L204.628 176.433H149.365Z" fill="#BB423D" stroke="#A02823" stroke-width="2"/>
<defs>
<linearGradient id="paint0_linear" x1="176.895" y1="165" x2="176.895" y2="219.571" gradientUnits="userSpaceOnUse">
<stop offset="0.0989583" stop-color="#8E6C43"/>
<stop offset="0.458333" stop-color="#816546"/>
</linearGradient>
<linearGradient id="paint1_linear" x1="96.6543" y1="105.217" x2="96.6543" y2="149.394" gradientUnits="userSpaceOnUse">
<stop offset="0.0989583" stop-color="#70FFE5"/>
<stop offset="0.625" stop-color="#7EE7F5"/>
</linearGradient>
<linearGradient id="paint2_linear" x1="170.345" y1="105.217" x2="170.345" y2="149.394" gradientUnits="userSpaceOnUse">
<stop offset="0.0989583" stop-color="#70FFE5"/>
<stop offset="0.625" stop-color="#7EE7F5"/>
</linearGradient>
</defs>
</svg>
