<svg width="263" height="300" viewBox="0 0 416 555" fill="none" xmlns="http://www.w3.org/2000/svg">
<path d="M260 508.75C260 542.805 236.717 555 208 555C179.283 555 156 542.805 156 508.75L169 370C169 335.945 179.283 339.167 208 339.167C236.717 339.167 247 335.945 247 370L260 508.75Z" fill="#662113"/>
<path d="M416 262.083C416 398.32 322.881 447.083 208 447.083C93.132 447.083 0 398.32 0 262.083C0 125.862 117 0 208 0C299 0 416 125.862 416 262.083Z" fill="#3BAB44"/>
<path d="M52 339.167C66.3594 339.167 78 332.264 78 323.75C78 315.236 66.3594 308.333 52 308.333C37.6406 308.333 26 315.236 26 323.75C26 332.264 37.6406 339.167 52 339.167Z" fill="#298B31"/>
<path d="M364 339.167C378.359 339.167 390 332.264 390 323.75C390 315.236 378.359 308.333 364 308.333C349.641 308.333 338 315.236 338 323.75C338 332.264 349.641 339.167 364 339.167Z" fill="#298B31"/>
<path d="M104 400.833C118.359 400.833 130 393.931 130 385.417C130 376.902 118.359 370 104 370C89.6406 370 78 376.902 78 385.417C78 393.931 89.6406 400.833 104 400.833Z" fill="#298B31"/>
<path d="M156 354.583C170.359 354.583 182 347.681 182 339.167C182 330.652 170.359 323.75 156 323.75C141.641 323.75 130 330.652 130 339.167C130 347.681 141.641 354.583 156 354.583Z" fill="#298B31"/>
<path d="M104 262.083C118.359 262.083 130 255.181 130 246.667C130 238.152 118.359 231.25 104 231.25C89.6406 231.25 78 238.152 78 246.667C78 255.181 89.6406 262.083 104 262.083Z" fill="#298B31"/>
<path d="M65 200.417C79.3594 200.417 91 193.514 91 185C91 176.486 79.3594 169.583 65 169.583C50.6406 169.583 39 176.486 39 185C39 193.514 50.6406 200.417 65 200.417Z" fill="#298B31"/>
<path d="M351 200.417C365.359 200.417 377 193.514 377 185C377 176.486 365.359 169.583 351 169.583C336.641 169.583 325 176.486 325 185C325 193.514 336.641 200.417 351 200.417Z" fill="#298B31"/>
<path d="M156 169.583C170.359 169.583 182 162.681 182 154.167C182 145.652 170.359 138.75 156 138.75C141.641 138.75 130 145.652 130 154.167C130 162.681 141.641 169.583 156 169.583Z" fill="#298B31"/>
<path d="M260 169.583C274.359 169.583 286 162.681 286 154.167C286 145.652 274.359 138.75 260 138.75C245.641 138.75 234 145.652 234 154.167C234 162.681 245.641 169.583 260 169.583Z" fill="#298B31"/>
<path d="M312 262.083C326.359 262.083 338 255.181 338 246.667C338 238.152 326.359 231.25 312 231.25C297.641 231.25 286 238.152 286 246.667C286 255.181 297.641 262.083 312 262.083Z" fill="#298B31"/>
<path d="M208 277.5C222.359 277.5 234 270.598 234 262.083C234 253.569 222.359 246.667 208 246.667C193.641 246.667 182 253.569 182 262.083C182 270.598 193.641 277.5 208 277.5Z" fill="#298B31"/>
<path d="M260 354.583C274.359 354.583 286 347.681 286 339.167C286 330.652 274.359 323.75 260 323.75C245.641 323.75 234 330.652 234 339.167C234 347.681 245.641 354.583 260 354.583Z" fill="#298B31"/>
<path d="M208 416.25C222.359 416.25 234 409.348 234 400.833C234 392.319 222.359 385.417 208 385.417C193.641 385.417 182 392.319 182 400.833C182 409.348 193.641 416.25 208 416.25Z" fill="#298B31"/>
<path d="M312 400.833C326.359 400.833 338 393.931 338 385.417C338 376.902 326.359 370 312 370C297.641 370 286 376.902 286 385.417C286 393.931 297.641 400.833 312 400.833Z" fill="#298B31"/>
</svg>
